<?xml version="1.0" encoding="utf-8"?>
<!-- Generator: Adobe Illustrator 16.0.3, SVG Export Plug-In . SVG Version: 6.00 Build 0)  -->
<!DOCTYPE svg PUBLIC "-//W3C//DTD SVG 1.1//EN" "http://www.w3.org/Graphics/SVG/1.1/DTD/svg11.dtd">
<svg version="1.1" id="Capa_1" xmlns="http://www.w3.org/2000/svg" xmlns:xlink="http://www.w3.org/1999/xlink" x="0px" y="0px"
	 width="25.201px" height="25.201px" viewBox="0 0 25.201 25.201" enable-background="new 0 0 25.201 25.201" xml:space="preserve">
<g>
	<path fill-rule="evenodd" clip-rule="evenodd" fill="#4D83F7" d="M11.053,18.257c-3.163,1.233-6.348,2.405-9.495,3.682
		c-0.055,0.022-0.111,0.042-0.166,0.065c-0.138,0.057-0.266,0.059-0.35-0.084c-0.089-0.154-0.015-0.266,0.109-0.363
		c0.345-0.269,0.688-0.543,1.036-0.812c2.81-2.171,5.73-4.187,8.76-6.037c0.302-0.186,0.605-0.368,0.938-0.571
		c-0.557-0.378-1.082-0.75-1.622-1.102c-0.753-0.488-1.52-0.957-2.28-1.436c-0.114-0.07-0.243-0.126-0.231-0.293
		c0.008-0.166,0.142-0.21,0.264-0.265c2.333-1.048,4.642-2.154,6.933-3.295c2.92-1.456,5.815-2.963,8.711-4.468
		c0.048-0.023,0.093-0.049,0.139-0.072c0.125-0.063,0.25-0.067,0.34,0.052c0.095,0.127,0.065,0.25-0.052,0.354
		c-0.222,0.199-0.441,0.4-0.662,0.599c-1.154,1.028-2.31,2.056-3.463,3.085c-1.748,1.557-3.518,3.089-5.311,4.595
		c-0.143,0.12-0.096,0.148,0.028,0.216c1.478,0.813,2.916,1.688,4.314,2.633c0.049,0.034,0.096,0.071,0.146,0.1
		c0.112,0.063,0.188,0.148,0.168,0.286c-0.019,0.142-0.13,0.182-0.248,0.225c-1.258,0.446-2.519,0.888-3.772,1.342
		c-0.92,0.334-1.837,0.682-2.755,1.022c-0.061,0.021-0.125,0.035-0.188,0.056c-0.161,0.021-0.322,0.052-0.483,0.049
		c-0.219-0.006-0.252-0.062-0.148-0.249c0.026-0.043,0.042-0.093,0.08-0.132c0.166-0.12,0.359-0.174,0.547-0.242
		c1.404-0.517,2.799-1.051,4.207-1.545c0.595-0.21,1.186-0.43,1.782-0.642c-0.028-0.104-0.117-0.123-0.182-0.166
		c-1.327-0.877-2.693-1.69-4.09-2.454c-0.344-0.188-0.367-0.389-0.067-0.649c0.689-0.599,1.394-1.179,2.085-1.776
		c0.59-0.51,1.175-1.024,1.765-1.535c0.645-0.559,1.28-1.127,1.923-1.689c0.525-0.458,1.037-0.933,1.563-1.39
		c0.255-0.223,0.479-0.484,0.775-0.656c-0.973,0.536-1.97,1.029-2.959,1.541c-3.341,1.728-6.708,3.4-10.13,4.96
		c-0.097,0.044-0.256,0.063-0.267,0.17c-0.01,0.112,0.148,0.144,0.239,0.2c1.158,0.716,2.293,1.466,3.397,2.261
		c0.317,0.231,0.31,0.468-0.029,0.673c-1.333,0.815-2.665,1.628-3.966,2.489c-1.705,1.131-3.374,2.307-5.004,3.542
		c-0.118,0.089-0.229,0.191-0.37,0.244c1.14-0.464,2.292-0.896,3.438-1.341c0.793-0.307,1.583-0.605,2.377-0.908
		c0.464-0.176,0.928-0.354,1.395-0.531c0.089-0.03,0.181-0.076,0.281-0.052c0.13,0.139,0.27,0.258,0.484,0.223
		c0.037-0.004,0.086,0.013,0.093,0.07c0,0.006-0.005,0.012-0.012,0.013C11.067,18.251,11.062,18.254,11.053,18.257z"/>
	<path fill-rule="evenodd" clip-rule="evenodd" fill="#4D83F7" d="M11.804,17.476c-0.032,0.082,0.016,0.206-0.157,0.229
		c0.253,0.092,0.48,0.013,0.699,0.063c-0.421,0.187-0.853,0.346-1.293,0.489c-0.019-0.095-0.095-0.056-0.137-0.045
		c-0.218,0.044-0.335-0.062-0.407-0.247c0.004-0.009,0.003-0.019,0.008-0.021c0.385-0.245,0.817-0.374,1.254-0.492
		C11.781,17.449,11.795,17.464,11.804,17.476z"/>
	<path fill-rule="evenodd" clip-rule="evenodd" fill="#4D83F7" d="M14.227,15.756c0.265-0.136,0.559-0.293,0.858-0.441
		c0.441-0.222,0.898-0.413,1.364-0.579c0.065-0.023,0.151-0.082,0.184,0.03c0.025,0.088-0.063,0.099-0.124,0.12
		c-0.758,0.284-1.488,0.618-2.188,1.021c-0.055,0.032-0.122,0.077-0.173-0.002C14.106,15.845,14.165,15.813,14.227,15.756z"/>
	<path fill-rule="evenodd" clip-rule="evenodd" fill="#4D83F7" d="M14.266,14.83c-0.034-0.061-0.02-0.105,0.047-0.14
		c0.393-0.207,0.803-0.381,1.221-0.529c0.057-0.021,0.108-0.011,0.124,0.054c0.018,0.063-0.028,0.09-0.082,0.107
		c-0.406,0.146-0.797,0.323-1.183,0.513C14.353,14.854,14.312,14.873,14.266,14.83z"/>
</g>
</svg>
