<?xml version="1.0" encoding="utf-8"?>
<!-- Generator: Adobe Illustrator 16.0.3, SVG Export Plug-In . SVG Version: 6.00 Build 0)  -->
<!DOCTYPE svg PUBLIC "-//W3C//DTD SVG 1.1//EN" "http://www.w3.org/Graphics/SVG/1.1/DTD/svg11.dtd">
<svg version="1.1" id="Capa_1" xmlns="http://www.w3.org/2000/svg" xmlns:xlink="http://www.w3.org/1999/xlink" x="0px" y="0px"
	 width="33px" height="28px" viewBox="0 0 33 28" enable-background="new 0 0 33 28" xml:space="preserve">
<g>
	<path fill="none" d="M50.166,21.77h-33"/>
</g>
<g>
	<path fill="#7099F1" d="M10.739,25.43c-0.539,0-1.325-0.264-3.071-2.219c-0.888-0.992-1.615-1.97-1.646-2.012
		c-0.021-0.027-0.039-0.057-0.056-0.086c-0.332-0.598-0.508-1.275-0.508-1.959v-4.971c0-0.434,0.352-0.785,0.785-0.785h6.348
		c0.909,0,1.767,0.352,2.415,0.988l3.25,3.199c0.941,0.941,0.941,2.466,0.004,3.403c-0.001,0.001-0.008,0.008-0.009,0.009
		c-0.45,0.45-1.054,0.7-1.695,0.7c-0.642,0-1.246-0.25-1.7-0.704l-3.247-3.246c-0.319-0.003-0.836-0.006-1.249-0.008l-0.608-0.002
		c-0.433-0.003-0.783-0.355-0.78-0.789c0.002-0.432,0.353-0.781,0.785-0.781c0.001,0,0.002,0,0.004,0l0.607,0.004
		c0.37,0.001,0.763,0.003,1.064,0.005c0.152,0.001,0.281,0.002,0.373,0.003c0.217,0.002,0.464,0.006,0.692,0.234l3.47,3.471
		c0.157,0.157,0.367,0.244,0.59,0.244c0.223,0,0.432-0.087,0.589-0.244c0.002-0.002,0.009-0.008,0.01-0.01
		c0.321-0.32,0.321-0.85-0.004-1.176l-3.246-3.193c-0.353-0.348-0.819-0.538-1.314-0.538H7.028v4.187c0,0.4,0.099,0.799,0.286,1.152
		c0.143,0.189,0.743,0.977,1.447,1.773c1.394,1.574,1.926,1.762,1.997,1.78l8.484-0.001c0.578,0,1.253-0.304,1.894-0.613
		c0.541-0.262,4.558-2.986,6.962-4.643c0.014-0.009,0.027-0.018,0.041-0.025c0.447-0.27,0.593-0.855,0.322-1.304
		c-0.131-0.217-0.338-0.37-0.584-0.431c-0.242-0.061-0.492-0.025-0.706,0.1l-5.862,3.888c-0.361,0.239-0.848,0.141-1.088-0.22
		c-0.238-0.361-0.141-0.849,0.221-1.088l5.879-3.898c0.009-0.006,0.019-0.012,0.028-0.018c0.576-0.348,1.253-0.449,1.906-0.287
		s1.204,0.568,1.552,1.145c0.711,1.183,0.336,2.722-0.836,3.443c-0.728,0.501-6.332,4.354-7.15,4.75
		c-0.805,0.39-1.668,0.77-2.578,0.77L10.739,25.43C10.739,25.43,10.739,25.43,10.739,25.43z"/>
	<rect x="2.951" y="13.219" fill="#4D83F7" width="4.602" height="10.369"/>
	<path fill="#7099F1" d="M7.553,24.371H2.951c-0.433,0-0.785-0.351-0.785-0.784V13.219c0-0.434,0.352-0.784,0.785-0.784h4.602
		c0.434,0,0.785,0.351,0.785,0.784v10.368C8.337,24.021,7.986,24.371,7.553,24.371z M3.736,22.803h3.032v-8.799H3.736V22.803z"/>
	<path fill="#CFF09E" d="M25.763,5.419c-0.037-0.117-0.078-0.231-0.124-0.344c-0.061-0.15-0.129-0.297-0.205-0.439
		c-0.039-0.071-0.078-0.142-0.12-0.211c-0.084-0.138-0.175-0.272-0.273-0.402c-0.173-0.227-0.366-0.439-0.583-0.634
		c-0.95-0.86-2.24-1.334-3.633-1.334c-1.392,0-2.682,0.474-3.633,1.334c-0.986,0.893-1.529,2.138-1.529,3.505
		c0,2.143,0.89,3.009,1.605,3.706c0.494,0.482,0.891,0.817,0.99,1.584h2.566h2.566c0.098-0.781,0.497-1.113,0.995-1.596
		c0.179-0.174,0.368-0.357,0.551-0.568c0.092-0.106,0.183-0.219,0.269-0.341c0.022-0.03,0.044-0.062,0.064-0.093
		c0.064-0.096,0.126-0.195,0.184-0.303c0.02-0.035,0.039-0.072,0.058-0.109c0.28-0.555,0.476-1.277,0.476-2.28
		C25.986,6.381,25.91,5.886,25.763,5.419z"/>
	<g>
		<path fill="#7099F1" d="M23.391,12.969h-5.133c-0.394,0-0.727-0.293-0.777-0.684c-0.056-0.422-0.213-0.593-0.661-1.025
			l-0.101-0.098c-0.733-0.715-1.841-1.795-1.841-4.268c0-1.593,0.635-3.044,1.787-4.087c1.095-0.992,2.573-1.538,4.159-1.538
			c1.588,0,3.064,0.546,4.16,1.538c0.25,0.226,0.479,0.476,0.68,0.741c0.115,0.15,0.223,0.309,0.32,0.471
			c0.049,0.079,0.096,0.163,0.141,0.247c0.089,0.166,0.17,0.338,0.241,0.514c0.053,0.131,0.102,0.266,0.145,0.402
			c0.173,0.546,0.261,1.122,0.261,1.711c0,1.027-0.184,1.889-0.561,2.634c-0.022,0.045-0.045,0.089-0.069,0.132
			c-0.067,0.123-0.142,0.245-0.22,0.363c-0.025,0.037-0.051,0.074-0.077,0.11c-0.097,0.136-0.2,0.267-0.315,0.399
			c-0.205,0.237-0.414,0.439-0.598,0.617l-0.105,0.104c-0.446,0.429-0.604,0.6-0.657,1.027
			C24.119,12.674,23.785,12.969,23.391,12.969z M18.863,11.398h3.918c0.22-0.567,0.592-0.926,0.955-1.275l0.103-0.099
			c0.169-0.163,0.343-0.333,0.505-0.52c0.082-0.095,0.155-0.187,0.223-0.282c0.018-0.023,0.035-0.049,0.052-0.074
			c0.053-0.078,0.103-0.16,0.147-0.241c0.016-0.028,0.03-0.058,0.045-0.087c0.264-0.521,0.391-1.151,0.391-1.926
			c0-0.429-0.063-0.846-0.187-1.238c-0.03-0.097-0.065-0.193-0.103-0.286c-0.051-0.125-0.108-0.247-0.171-0.364
			c-0.032-0.06-0.065-0.119-0.099-0.174c-0.07-0.115-0.146-0.228-0.227-0.333c-0.145-0.189-0.307-0.366-0.485-0.527
			c-0.806-0.73-1.909-1.132-3.106-1.132s-2.3,0.402-3.105,1.132c-0.82,0.742-1.271,1.78-1.271,2.923
			c0,1.811,0.695,2.489,1.367,3.143l0.097,0.094C18.272,10.48,18.643,10.839,18.863,11.398z"/>
		<path fill="#507C5C" d="M20.824,12.969c-0.434,0-0.784-0.352-0.784-0.785V9.418c0-0.434,0.351-0.785,0.784-0.785
			s0.785,0.352,0.785,0.785v2.766C21.609,12.617,21.258,12.969,20.824,12.969z"/>
		<path fill="#507C5C" d="M20.824,10.352c-0.201,0-0.401-0.076-0.555-0.229l-1.816-1.817c-0.307-0.306-0.307-0.803,0-1.109
			c0.307-0.306,0.803-0.307,1.109,0l1.262,1.262l1.262-1.262c0.307-0.306,0.804-0.306,1.11,0c0.307,0.307,0.307,0.804,0,1.109
			l-1.817,1.817C21.227,10.275,21.025,10.352,20.824,10.352z"/>
		<path fill="#7099F1" d="M21.836,15.872h-2.022c-1.323,0-2.399-1.076-2.399-2.399v-1.455c0-0.434,0.352-0.784,0.785-0.784h5.218
			c0.434,0,0.784,0.351,0.784,0.784s-0.351,0.785-0.784,0.785h-4.433v0.67c0,0.458,0.371,0.83,0.829,0.83h2.022
			c0.434,0,0.785,0.352,0.785,0.785C22.621,15.521,22.27,15.872,21.836,15.872z"/>
	</g>
	<g>
	</g>
	<g>
	</g>
	<g>
	</g>
	<g>
	</g>
	<g>
	</g>
	<g>
	</g>
	<g>
	</g>
	<g>
	</g>
	<g>
	</g>
	<g>
	</g>
	<g>
	</g>
	<g>
	</g>
	<g>
	</g>
	<g>
	</g>
	<g>
	</g>
</g>
</svg>
