<?xml version="1.0" encoding="utf-8"?>
<!-- Generator: Adobe Illustrator 16.0.3, SVG Export Plug-In . SVG Version: 6.00 Build 0)  -->
<!DOCTYPE svg PUBLIC "-//W3C//DTD SVG 1.1//EN" "http://www.w3.org/Graphics/SVG/1.1/DTD/svg11.dtd">
<svg version="1.1" id="Capa_1" xmlns="http://www.w3.org/2000/svg" xmlns:xlink="http://www.w3.org/1999/xlink" x="0px" y="0px"
	 width="869.504px" height="670.848px" viewBox="0 0 869.504 670.848" enable-background="new 0 0 869.504 670.848"
	 xml:space="preserve">
<g transform="translate(-313.972 -131.651)">
	<path fill="#F5F5FC" d="M1176.415,533.071c-15.044-41.945-38.734-54.707-61.269-81.613c-27.521-32.858-46.083-56.745-38.938-99.006
		c11.677-69.061,16.675-241.3-166.157-218.786c-65.53,8.071-117.315,58.287-154.989,108.415
		c-32.055,42.655-89.718,46.418-136.134,56.362c-57.025,12.22-115.118,30.676-167.88,57.717
		C342.385,411.854,309.93,491.92,314.362,594.36c1.337,30.949,5.719,79.699,58,136.744c70.565,76.992,173.106,87.299,296.521,51.943
		c28.25-8.094,54.953-20.787,82.745-30.344c28.905-9.938,58.877-16.445,89.301-19.391c70.883-6.854,144.36,5.541,212.358-15.621
		c36.126-11.295,68.802-31.559,94.978-58.9C1180.743,624.771,1192.293,577.341,1176.415,533.071L1176.415,533.071z"/>
	<path fill="#E5E5FF" d="M372.361,691.087c0,10.117,128.384,18.324,286.768,18.324c158.362,0,286.746-8.207,286.746-18.324
		c0-10.115-128.384-18.328-286.746-18.328C500.745,672.759,372.361,680.964,372.361,691.087L372.361,691.087z"/>
	<path fill="#E5E5FF" d="M547.348,713.712c0,6.334-32.592,11.467-72.8,11.467s-72.8-5.133-72.8-11.467
		c0-6.332,32.592-11.465,72.8-11.465S547.348,707.376,547.348,713.712z"/>
	<ellipse fill="#E5E5FF" cx="1031.612" cy="716.106" rx="122.142" ry="9.073"/>
	<path fill="#D7D7FF" d="M400.994,565.22l-4.69,65.688h62.66l-4.317-65.811L400.994,565.22z"/>
	<path fill="#EAE6FF" d="M413.422,570.995c0.1-1.092,1.055-1.902,2.147-1.822c1.003-0.17,1.954,0.508,2.123,1.512
		c0.17,1.002-0.507,1.953-1.511,2.123c-0.2,0.033-0.404,0.033-0.604,0.002C414.484,572.892,413.526,572.085,413.422,570.995z
		 M415.571,569.862c-0.622-0.162-1.257,0.211-1.419,0.834c-0.162,0.621,0.211,1.256,0.833,1.418c0.191,0.049,0.394,0.049,0.586,0
		c0.621,0.162,1.256-0.211,1.418-0.832c0.162-0.623-0.211-1.258-0.832-1.42C415.965,569.814,415.763,569.814,415.571,569.862z"/>
	<path fill="#EAE6FF" d="M434.784,570.944h0.348H434.784c0.004-0.443,0.185-0.865,0.5-1.176c0.441-0.422,1.031-0.654,1.642-0.645
		h0.008c1.091-0.086,2.048,0.723,2.147,1.813c-0.004,0.512-0.244,0.994-0.65,1.309c-0.424,0.338-0.951,0.52-1.494,0.512
		C435.846,572.839,434.889,572.034,434.784,570.944L434.784,570.944z M436.928,569.816c-0.426-0.008-0.839,0.152-1.148,0.445
		c-0.188,0.178-0.295,0.424-0.301,0.682c0.108,0.703,0.751,1.197,1.46,1.121c0.382,0.006,0.755-0.119,1.056-0.355
		c0.244-0.184,0.391-0.467,0.399-0.771c-0.104-0.703-0.747-1.197-1.453-1.121H436.928z"/>
	<path fill="#EAE6FF" d="M425.613,584.202c0.199,0,0.399-0.006,0.608-0.01c3.925-0.133,6.919-1.4,8.9-3.758
		c3.272-3.91,2.532-9.363,2.5-9.596c-0.051-0.375-0.396-0.637-0.772-0.586c-0.004,0-0.008,0-0.012,0
		c-0.378,0.057-0.641,0.406-0.591,0.785c0.008,0.051,0.683,5.084-2.195,8.514c-1.713,2.039-4.364,3.135-7.873,3.252
		c-3.399,0.102-5.938-0.785-7.617-2.658c-3.06-3.406-2.306-9-2.3-9.059c0.045-0.381-0.228-0.727-0.609-0.771
		c-0.366-0.043-0.702,0.207-0.766,0.572c-0.036,0.256-0.854,6.281,2.636,10.176C419.387,583.15,422.107,584.202,425.613,584.202
		L425.613,584.202z"/>
	<path fill="#BDC6F9" d="M430.463,583.634l-7.488,48.84l68.03-0.16l-6.889-48.801L430.463,583.634z"/>
	<path fill="#8784EF" d="M405.268,666.095c-7.621,0-13.8,6.178-13.8,13.801c0,7.621,6.179,13.799,13.8,13.799
		c7.622,0,13.801-6.178,13.801-13.799l0,0C419.068,672.273,412.89,666.095,405.268,666.095z M405.268,686.294
		c-3.537-0.014-6.394-2.893-6.38-6.432c0.015-3.537,2.895-6.395,6.433-6.379c3.527,0.014,6.379,2.877,6.38,6.404
		c0.007,3.535-2.854,6.406-6.388,6.412c-0.016,0-0.03,0-0.045,0V686.294z"/>
	<path fill="#9AA3F4" d="M403,666.095c-7.621,0-13.8,6.178-13.8,13.801c0,7.621,6.178,13.799,13.8,13.799
		c7.621,0,13.8-6.178,13.8-13.799l0,0C416.8,672.273,410.621,666.095,403,666.095z M403,686.294
		c-3.538-0.014-6.395-2.893-6.38-6.432c0.015-3.537,2.894-6.395,6.432-6.379c3.527,0.014,6.38,2.877,6.38,6.404
		c0.007,3.535-2.853,6.406-6.388,6.412c-0.015,0-0.029,0-0.044,0V686.294z"/>
	<path fill="#8784EF" d="M483.224,666.095c-7.621,0-13.8,6.178-13.8,13.801c0,7.621,6.179,13.799,13.8,13.799
		c7.622,0,13.8-6.178,13.8-13.799l0,0C497.023,672.273,490.846,666.095,483.224,666.095z M483.224,686.294
		c-3.538-0.016-6.393-2.896-6.377-6.434c0.017-3.539,2.897-6.393,6.436-6.377c3.525,0.016,6.376,2.879,6.377,6.404
		c0.007,3.535-2.854,6.406-6.388,6.412c-0.017,0-0.032,0-0.048,0V686.294z"/>
	<path fill="#9AA3F4" d="M480.956,666.095c-7.622,0-13.8,6.178-13.8,13.801c0,7.621,6.178,13.799,13.8,13.799
		c7.621,0,13.8-6.178,13.8-13.799l0,0C494.756,672.273,488.577,666.095,480.956,666.095z M480.956,686.294
		c-3.538-0.016-6.393-2.896-6.377-6.434c0.016-3.539,2.896-6.393,6.435-6.377c3.526,0.016,6.377,2.879,6.377,6.404
		c0.007,3.535-2.853,6.406-6.388,6.412c-0.016,0-0.031,0-0.047,0V686.294z"/>
	<g>
		<path fill="none" stroke="#9AA3F4" stroke-width="1.5" stroke-miterlimit="10" d="M587.367,511.209h-41.46
			c-4.362-0.001-8.415,2.251-10.721,5.953l-25.059,40.235"/>
		<path fill="none" stroke="#9AA3F4" stroke-width="1.5" stroke-miterlimit="10" d="M398.734,631.349h92.647
			c4.934,0,9.137-3.582,9.918-8.453l9.586-59.801c0.878-5.479-2.852-10.63-8.329-11.508c-0.525-0.084-1.057-0.126-1.589-0.126
			H389.148c-5.549,0.001-10.046,4.499-10.045,10.048c0,0.531,0.042,1.061,0.126,1.586l9.59,59.801
			C389.599,627.767,393.801,631.349,398.734,631.349z"/>
		<path fill="none" stroke="#9AA3F4" stroke-width="1.5" stroke-miterlimit="10" d="M445.058,551.459v79.89"/>
		<path fill="none" stroke="#9AA3F4" stroke-width="1.5" stroke-miterlimit="10" d="M506.348,591.403H383.769"/>
		<path fill="none" stroke="#9AA3F4" stroke-width="1.5" stroke-miterlimit="10" d="M481.649,551.459l-7.929,79.89"/>
		<path fill="none" stroke="#9AA3F4" stroke-width="1.5" stroke-miterlimit="10" d="M410.297,551.459l7.318,79.89"/>
		<path fill="none" stroke="#9AA3F4" stroke-width="1.5" stroke-miterlimit="10" d="M499.113,627.716l15.011,22.32
			c2.817,4.191,1.704,9.873-2.487,12.691c-1.509,1.014-3.284,1.555-5.102,1.555H383.769"/>
	</g>
	<g transform="translate(538.579 332.517)">
		<path fill="#4A74C8" d="M156.07,305.799h127.09v34.188H156.07V305.799z"/>
		<path fill="#5F8BE3" d="M9.387,0h421.796c5.185,0,9.388,4.203,9.388,9.387v298.187c0,5.184-4.203,9.387-9.388,9.387H9.387
			c-5.185,0-9.387-4.203-9.387-9.387V9.387C0,4.203,4.202,0,9.387,0z"/>
		<path fill="#FFF1F1" d="M18.074,11.557h403.082c3.186,0,5.768,2.583,5.768,5.768v263.456c0,3.186-2.582,5.768-5.768,5.768H18.074
			c-3.186,0-5.769-2.582-5.769-5.768V17.325C12.306,14.139,14.889,11.557,18.074,11.557z"/>
		<path fill="#5F8BE3" d="M108.765,337.015h221.7c4.044,0,7.322,3.277,7.322,7.322l0,0v14.23l0,0H101.444l0,0v-14.23
			C101.444,340.293,104.722,337.015,108.765,337.015L108.765,337.015z"/>
		<path opacity="0.35" fill="#FFFFFF" enable-background="new    " d="M116.331,30.55h280.09c2.768,0,5.01,2.243,5.01,5.01v184.985
			c0,2.768-2.242,5.01-5.01,5.01h-280.09c-2.767,0-5.01-2.242-5.01-5.01V35.56C111.321,32.793,113.565,30.55,116.331,30.55z"/>
		<g transform="translate(111.32 30.55)" opacity="0.25">
			<path fill="#FCA70C" d="M27.572,142.449h12.638v31.726H27.572V142.449z"/>
			<path fill="#B1AFFD" d="M56.048,114.598h12.637v59.576H56.048V114.598z"/>
			<path fill="#FCA70C" d="M84.525,120.758h12.638v53.416H84.525V120.758z"/>
			<path fill="#B1AFFD" d="M113.001,90.6h12.637v83.574h-12.637V90.6z"/>
			<path opacity="0.039" enable-background="new    " d="M56.048,114.598h5.8v59.576h-5.8V114.598z"/>
			<path opacity="0.039" enable-background="new    " d="M27.572,142.449h5.801v31.726h-5.801V142.449z"/>
			<path opacity="0.1612" enable-background="new    " d="M113.001,90.6h5.8v83.574h-5.8V90.6z"/>
			<path opacity="0.039" enable-background="new    " d="M84.525,120.758h5.801v53.416h-5.801V120.758z"/>
			<g>
				<path fill="#D5DBDA" d="M132.326,182.908H19.225V62.478h1.726v118.7h111.375V182.908z"/>
				<path fill="#D5DBDA" d="M30.842,127.592l-1.152-1.284l29.586-26.566l27.4,5.953L116.35,72.66l1.284,1.153l-30.342,33.781
					l-27.521-5.979L30.842,127.592z"/>
				<path fill="#D5DBDA" d="M119.963,78.693l-8.367-8.024l10.8-2.89L119.963,78.693z"/>
			</g>
			<path fill="#B1AFFD" d="M143.036,140.199h8.678v8.679h-8.678V140.199z"/>
			<path fill="#FCA70C" d="M143.036,155.405h8.678v8.68h-8.678V155.405z"/>
			<path fill="#EFEFEF" d="M154.104,159.152h27.511v4.933h-27.511V159.152z"/>
			<path fill="#EFEFEF" d="M154.104,143.946h27.511v4.932h-27.511V143.946z"/>
			<path fill="#B1AFFD" d="M194.074,140.199h8.679v8.679h-8.679V140.199z"/>
			<path fill="#FCA70C" d="M194.074,155.405h8.679v8.68h-8.679V155.405z"/>
			<path fill="#EFEFEF" d="M205.142,159.152h27.51v4.933h-27.51V159.152z"/>
			<path fill="#EFEFEF" d="M205.142,143.946h27.51v4.932h-27.51V143.946z"/>
			<path fill="#B1AFFD" d="M240.031,140.199h8.679v8.679h-8.679V140.199z"/>
			<path fill="#FCA70C" d="M240.031,155.405h8.679v8.68h-8.679V155.405z"/>
			<g>
				<path fill="#EFEFEF" d="M251.1,159.152h18.104v4.933H251.1V159.152z"/>
				<path fill="#EFEFEF" d="M251.1,143.946h18.104v4.932H251.1V143.946z"/>
				<path fill="#EFEFEF" d="M144.66,57.28h124.545v2.265H144.66V57.28z"/>
				<path fill="#EFEFEF" d="M19.226,29.488h249.979v5.183H19.226V29.488z"/>
				<path fill="#EFEFEF" d="M144.286,64.322h124.918v2.264H144.286V64.322z"/>
				<path fill="#EFEFEF" d="M144.286,50.238h124.918v2.264H144.286V50.238z"/>
				<path fill="#EFEFEF" d="M144.286,71.363h124.918v2.264H144.286V71.363z"/>
				<path fill="#EFEFEF" d="M144.286,78.405h124.918v2.264H144.286V78.405z"/>
				<path fill="#EFEFEF" d="M144.286,85.447h124.918v2.265H144.286V85.447z"/>
				<path fill="#EFEFEF" d="M144.286,92.489h124.918v2.264H144.286V92.489z"/>
				<path fill="#EFEFEF" d="M144.286,99.531h124.918v2.264H144.286V99.531z"/>
				<path fill="#EFEFEF" d="M144.286,106.572h124.918v2.265H144.286V106.572z"/>
				<path fill="#EFEFEF" d="M159.58,113.614h109.625v2.264H159.58V113.614z"/>
			</g>
			
				<linearGradient id="SVGID_1_" gradientUnits="userSpaceOnUse" x1="-198.6489" y1="520.9019" x2="-198.6489" y2="519.9019" gradientTransform="matrix(290.11 0 0 -23.838 57774.9844 12417.249)">
				<stop  offset="0" style="stop-color:#F94F4F"/>
				<stop  offset="1" style="stop-color:#F66363"/>
			</linearGradient>
			<path fill="url(#SVGID_1_)" d="M277.398,0H12.712C5.692,0,0,5.691,0,12.712l0,0v11.126H290.11V12.712
				C290.11,5.691,284.418,0,277.398,0z"/>
			<path fill="#CFCFFF" d="M252.796,12.354c0,2.024-1.64,3.666-3.664,3.666s-3.666-1.64-3.666-3.664
				c-0.001-2.024,1.64-3.666,3.664-3.666c0,0,0.001,0,0.002,0C251.156,8.69,252.795,10.331,252.796,12.354z"/>
			<circle fill="#CFCFFF" cx="264.072" cy="12.355" r="3.665"/>
			<circle fill="#CFCFFF" cx="279.01" cy="12.355" r="3.665"/>
		</g>
		<path opacity="0.55" fill="#F75B5B" enable-background="new    " d="M39.267,73.685h280.091c2.767,0,5.01,2.243,5.01,5.01v184.984
			c0,2.768-2.243,5.01-5.01,5.01H39.267c-2.767,0-5.01-2.242-5.01-5.01V78.695C34.257,75.928,36.5,73.685,39.267,73.685z"/>
		<path fill="#FFFFFF" d="M45.153,66.091h280.09c2.767,0,5.01,2.243,5.01,5.01v184.985c0,2.768-2.243,5.01-5.01,5.01H45.153
			c-2.768,0-5.011-2.242-5.011-5.01V71.101C40.143,68.334,42.386,66.091,45.153,66.091z"/>
		
			<linearGradient id="SVGID_2_" gradientUnits="userSpaceOnUse" x1="-97.7142" y1="552.3484" x2="-97.7142" y2="551.3484" gradientTransform="matrix(12.637 0 0 -31.726 1308.8525 17732.3418)">
			<stop  offset="0" style="stop-color:#F94F4F"/>
			<stop  offset="1" style="stop-color:#F66363"/>
		</linearGradient>
		<path fill="url(#SVGID_2_)" d="M67.714,208.541h12.637v31.727H67.714V208.541z"/>
		<path fill="#B1AFFD" d="M96.191,180.69h12.638v59.575H96.191V180.69z"/>
		
			<linearGradient id="SVGID_3_" gradientUnits="userSpaceOnUse" x1="-97.7142" y1="553.449" x2="-97.7142" y2="552.449" gradientTransform="matrix(12.637 0 0 -53.416 1365.8057 29749.8672)">
			<stop  offset="0" style="stop-color:#F94F4F"/>
			<stop  offset="1" style="stop-color:#F66363"/>
		</linearGradient>
		<path fill="url(#SVGID_3_)" d="M124.667,186.851h12.637v53.416h-12.637V186.851z"/>
		<path fill="#B1AFFD" d="M153.144,156.692h12.637v83.575h-12.637V156.692z"/>
		<path opacity="0.039" enable-background="new    " d="M96.191,180.69h5.8v59.575h-5.8V180.69z"/>
		<path opacity="0.039" enable-background="new    " d="M67.714,208.541h5.8v31.727h-5.8V208.541z"/>
		<path opacity="0.1612" enable-background="new    " d="M153.144,156.692h5.8v83.575h-5.8V156.692z"/>
		<path opacity="0.039" fill="#241111" enable-background="new    " d="M124.667,186.851h5.8v53.416h-5.8V186.851z"/>
		<path fill="#D5DBDA" d="M172.467,249.002h-113.1V139.328h1.725v107.945h111.375V249.002z"/>
		<path fill="#D5DBDA" d="M70.985,193.683l-1.151-1.284l29.585-26.565l27.4,5.952l29.678-33.034l1.284,1.153l-30.346,33.78
			l-27.517-5.979L70.985,193.683z"/>
		<path fill="#D5DBDA" d="M160.105,144.785l-8.367-8.023l10.8-2.891L160.105,144.785z"/>
		<path fill="#B1AFFD" d="M183.177,206.291h8.68v8.678h-8.68V206.291z"/>
		
			<linearGradient id="SVGID_4_" gradientUnits="userSpaceOnUse" x1="-102.6673" y1="545.1521" x2="-102.6673" y2="544.1521" gradientTransform="matrix(8.679 0 0 -8.679 1078.5608 4952.8701)">
			<stop  offset="0" style="stop-color:#F94F4F"/>
			<stop  offset="1" style="stop-color:#F66363"/>
		</linearGradient>
		<path fill="url(#SVGID_4_)" d="M183.177,221.498h8.68v8.678h-8.68V221.498z"/>
		<path fill="#EFEFEF" d="M194.246,225.244h27.51v4.932h-27.51V225.244z"/>
		<path fill="#EFEFEF" d="M194.246,210.038h27.51v4.933h-27.51V210.038z"/>
		<path fill="#B1AFFD" d="M234.215,206.291h8.679v8.678h-8.679V206.291z"/>
		
			<linearGradient id="SVGID_5_" gradientUnits="userSpaceOnUse" x1="-102.6673" y1="545.1521" x2="-102.6673" y2="544.1521" gradientTransform="matrix(8.679 0 0 -8.679 1129.6077 4952.8701)">
			<stop  offset="0" style="stop-color:#F94F4F"/>
			<stop  offset="1" style="stop-color:#F66363"/>
		</linearGradient>
		<path fill="url(#SVGID_5_)" d="M234.215,221.498h8.679v8.678h-8.679V221.498z"/>
		<path fill="#EFEFEF" d="M245.284,225.244h27.51v4.932h-27.51V225.244z"/>
		<path fill="#EFEFEF" d="M245.284,210.038h27.51v4.933h-27.51V210.038z"/>
		<path fill="#B1AFFD" d="M280.173,206.291h8.68v8.678h-8.68V206.291z"/>
		
			<linearGradient id="SVGID_6_" gradientUnits="userSpaceOnUse" x1="-102.6673" y1="545.1521" x2="-102.6673" y2="544.1521" gradientTransform="matrix(8.679 0 0 -8.679 1175.5608 4952.8701)">
			<stop  offset="0" style="stop-color:#F94F4F"/>
			<stop  offset="1" style="stop-color:#F66363"/>
		</linearGradient>
		<path fill="url(#SVGID_6_)" d="M280.173,221.498h8.68v8.678h-8.68V221.498z"/>
		<g>
			<path fill="#EFEFEF" d="M291.242,225.244h18.103v4.932h-18.103V225.244z"/>
			<path fill="#EFEFEF" d="M291.242,210.038h18.103v4.933h-18.103V210.038z"/>
			<path fill="#EFEFEF" d="M184.801,123.372h124.544v2.265H184.801V123.372z"/>
			<path fill="#EFEFEF" d="M59.368,95.58h249.978v5.183H59.368V95.58z"/>
			<path fill="#EFEFEF" d="M184.428,130.414h124.918v2.264H184.428V130.414z"/>
			<path fill="#EFEFEF" d="M184.428,116.33h124.918v2.264H184.428V116.33z"/>
			<path fill="#EFEFEF" d="M184.428,137.455h124.918v2.264H184.428V137.455z"/>
			<path fill="#EFEFEF" d="M184.428,144.497h124.918v2.265H184.428V144.497z"/>
			<path fill="#EFEFEF" d="M184.428,151.539h124.918v2.266H184.428V151.539z"/>
			<path fill="#EFEFEF" d="M184.428,158.581h124.918v2.265H184.428V158.581z"/>
			<path fill="#EFEFEF" d="M184.428,165.623h124.918v2.264H184.428V165.623z"/>
			<path fill="#EFEFEF" d="M184.428,172.664h124.918v2.264H184.428V172.664z"/>
			<path fill="#EFEFEF" d="M199.721,179.706h109.625v2.265H199.721V179.706z"/>
		</g>
		<path fill="#4D83F7" d="M317.541,66.091H52.855c-7.021,0-12.712,5.691-12.712,12.712l0,0v11.125h290.11V78.803
			C330.253,71.782,324.562,66.091,317.541,66.091z"/>
		<g>
			<path fill="#FFFFFF" d="M292.94,78.445c0,2.024-1.641,3.666-3.664,3.666c-2.024,0-3.666-1.64-3.666-3.664
				c-0.001-2.024,1.64-3.666,3.664-3.666C291.297,74.781,292.938,76.421,292.94,78.445z"/>
			<path fill="#FFFFFF" d="M307.88,78.445c0.001,2.024-1.639,3.667-3.664,3.668c-2.024,0.001-3.667-1.639-3.668-3.664
				s1.64-3.667,3.664-3.668h0.001C306.237,74.781,307.878,76.421,307.88,78.445z"/>
			<path fill="#FFFFFF" d="M322.817,78.445c0,2.024-1.641,3.666-3.664,3.666c-2.024,0-3.666-1.64-3.666-3.664
				c-0.001-2.024,1.64-3.666,3.664-3.666c0,0,0.001,0,0.002,0C321.175,74.782,322.816,76.422,322.817,78.445z"/>
		</g>
		<path opacity="0.35" fill="#5851BC" enable-background="new    " d="M415.457,0.219h-67.937
			c0.466,22.029,0.84,44.061,1.121,66.095c0.044,3.37,0,6.846-1.228,9.959l-0.1-0.005c-0.9-0.048-0.5,0.233-0.813,1.845
			c0,0.023-0.015,0.051-0.02,0.074c-2.748,4.486-8.109,6.94-13.329,8.094c-0.041,0.246-0.012,0.498,0.084,0.728
			c-0.643,0.471-0.862,1.331-0.525,2.053c0.317,0.736,4.222,1.733,9.525,1.162c2.02-0.304,3.995-0.852,5.884-1.632
			c0.79-0.386,1.52-0.883,2.167-1.477c0.681-0.068,1.35-0.23,1.987-0.48l0.216,0.2l6.079-2.646c0,0-0.665-3.836-1.19-5.833
			c-0.086-0.331-0.221-0.647-0.4-0.938c5.089-13.797,9.077-27.975,11.929-42.4c-1.106,17.9-7.536,54.248-8.014,55.5
			c-1.402,3.074-4.358,5.149-7.726,5.425c-1.439,0.119-8.515-0.289-7.752,2.966c0.183,0.776,3.857,2.438,9.18,2.794
			c2.042,0.052,4.083-0.145,6.077-0.586c1.384-0.438,2.67-1.138,3.788-2.063l0.82,1.094l6.444-1.553c0,0-0.01-1.677-0.051-3.7
			c-0.115-1.407-0.59-2.76-1.38-3.93l0.089-3.666l3.573-0.421c0,0,7.176-23.209,10.583-31.1c1.536-3.193,2.825-6.499,3.856-9.888
			c1.049-4.027,1.147-8.226,1.479-12.372c0.604-7.569,1.996-15.055,4.151-22.336c0.104-0.473,0.311-0.916,0.605-1.3
			c0.654-0.555,1.492-0.848,2.351-0.82c9.132-0.837,13.317,0.716,19.031-1.056c7.534-2.337,8.332-5.755,8.7-5.92
			C421.786,0.848,418.638,0.214,415.457,0.219L415.457,0.219z"/>
		<path opacity="0.35" fill="#385369" enable-background="new    " d="M440.569,152.289V73.5
			c-10.724,15.381-21.334,29.167-32.058,44.548c-4.653,6.671-22.876,28.776-10.445,37.646c3.172,2.263,8.699,2.159,11.458,2.372
			c9.915,0.771,19.739-2.235,29.38-5.223C439.457,152.676,440.015,152.49,440.569,152.289L440.569,152.289z"/>
		<path opacity="0.35" fill="#5851BC" enable-background="new    " d="M440.568,169.237l-6.539,0.5l-0.124-0.37l-5.091,0.393
			l-1.531-4.33c-1.058-2.582-3.631-4.215-6.417-4.072c-1.937-0.011-3.516,1.551-3.526,3.488c-0.003,0.472,0.09,0.939,0.273,1.375
			c0.266,0.748,1.01,2.85,1.52,4.289l-5.355,0.414l0.113,0.373l-11.031,0.854c-1.743,0.01-4.318,2.261-3.761,3.834l0.089,0.231
			c0.005,0.137,0.022,0.273,0.052,0.408l9.543,26.926l-0.241,113.41h11.075l20.952-81.463V169.237z M423.357,168.394
			c-1.564,0.082-3.009-0.836-3.601-2.285c-0.422-1,0.046-2.151,1.046-2.574c0.246-0.104,0.511-0.156,0.778-0.154
			c1.563-0.08,3.007,0.836,3.6,2.284c0.42,1.002-0.053,2.153-1.054,2.573c-0.244,0.102-0.505,0.153-0.769,0.152L423.357,168.394z"/>
		<path opacity="0.35" fill="#FFB9B0" enable-background="new    " d="M27.69,122.503c-2.464,2.717-5.368,8.505-6.551,11
			c-1.248,2.456-2.6,3.846-6.109,5.5c-4.847,2.217-10.04,4.338-15.029,6.299v12.867c10.146-6.1,19.332-11.8,19.487-11.857
			c7.757,2.967,14.244-3.483,16.324-8.135c0.935-2.088-0.467-2.94-0.529-3.933c-0.036-0.518,0.632-3.537,0.529-3.925
			c-0.605-2.718-7.899-0.343-7.295-1.637c0.532-1.787,1.591-3.373,3.037-4.549c3.573-2.438,6.311-5.143,6.311-6.168
			C37.862,116.193,28.535,121.575,27.69,122.503L27.69,122.503z"/>
	</g>
	<g transform="translate(959.313 520.409)">
		<path fill="#A2A7F4" d="M6.949,0h157.396c3.838,0,6.949,3.111,6.949,6.949v184.191c0,3.838-3.111,6.949-6.949,6.949H6.949
			c-3.838,0-6.948-3.111-6.948-6.949V6.95C0.001,3.112,3.111,0,6.949,0z"/>
		<g>
			<path fill="#9090F4" d="M17.619,20.733h141.32c0.979,0,1.773,0.793,1.773,1.772v37.142c0,0.979-0.794,1.773-1.773,1.773H17.619
				c-0.979,0-1.773-0.795-1.773-1.773V22.505C15.845,21.526,16.639,20.733,17.619,20.733z"/>
			<path fill="#9090F4" d="M17.619,75.85h33.703c0.979,0,1.773,0.793,1.773,1.771v22.283c0,0.979-0.794,1.771-1.773,1.771H17.619
				c-0.979,0-1.773-0.793-1.773-1.771V77.621C15.845,76.643,16.639,75.85,17.619,75.85z"/>
			<path fill="#9090F4" d="M71.427,75.85h33.704c0.979,0,1.772,0.793,1.772,1.771v22.283c0,0.979-0.793,1.771-1.772,1.771H71.427
				c-0.979,0-1.773-0.793-1.773-1.771V77.621C69.654,76.643,70.448,75.85,71.427,75.85z"/>
			<path fill="#9090F4" d="M125.235,75.85h33.704c0.979,0,1.773,0.793,1.773,1.771v22.283c0,0.979-0.794,1.771-1.773,1.771h-33.704
				c-0.979,0-1.772-0.793-1.772-1.771V77.621C123.462,76.643,124.256,75.85,125.235,75.85z"/>
			<path fill="#9090F4" d="M17.619,117.367h33.703c0.979,0,1.773,0.795,1.773,1.773v22.281c0,0.979-0.794,1.773-1.773,1.773H17.619
				c-0.979,0-1.773-0.795-1.773-1.773v-22.281C15.845,118.162,16.639,117.367,17.619,117.367z"/>
			<path fill="#9090F4" d="M71.427,117.367h33.704c0.979,0,1.772,0.795,1.772,1.773v22.281c0,0.979-0.793,1.773-1.772,1.773H71.427
				c-0.979,0-1.773-0.795-1.773-1.773v-22.281C69.654,118.162,70.448,117.367,71.427,117.367z"/>
			<path fill="#9090F4" d="M17.619,158.887h33.703c0.979,0,1.773,0.793,1.773,1.773v22.281c0,0.979-0.794,1.773-1.773,1.773H17.619
				c-0.979,0-1.773-0.795-1.773-1.773V160.66C15.845,159.68,16.639,158.887,17.619,158.887z"/>
			<path fill="#9090F4" d="M71.427,158.887h33.704c0.979,0,1.772,0.793,1.772,1.773v22.281c0,0.979-0.793,1.773-1.772,1.773H71.427
				c-0.979,0-1.773-0.795-1.773-1.773V160.66C69.654,159.68,70.448,158.887,71.427,158.887z"/>
			<path fill="#9090F4" d="M125.235,117.367h33.704c0.979,0,1.773,0.795,1.773,1.773v63.801c0,0.979-0.794,1.773-1.773,1.773
				h-33.704c-0.979,0-1.772-0.795-1.772-1.773v-63.801C123.462,118.162,124.256,117.367,125.235,117.367z"/>
		</g>
		<g transform="translate(13.212 18.101)" opacity="0.45">
			<path fill="#E2DEFF" d="M0,4.499c0-2.485,2.015-4.5,4.5-4.5h135.87c2.485,0,4.5,2.015,4.5,4.5v31.689c0,2.484-2.015,4.5-4.5,4.5
				H4.5"/>
			<path fill="#E2DEFF" d="M1.774,55.116h33.704c0.979,0,1.773,0.793,1.773,1.773v22.281c0,0.979-0.794,1.773-1.773,1.773H1.774
				c-0.979,0-1.772-0.795-1.772-1.773V56.89C0.001,55.909,0.795,55.116,1.774,55.116z"/>
			<path fill="#E2DEFF" d="M55.583,55.116h33.704c0.979,0,1.772,0.793,1.772,1.773v22.281c0,0.979-0.794,1.773-1.772,1.773H55.583
				c-0.979,0-1.773-0.795-1.773-1.773V56.89C53.809,55.909,54.603,55.116,55.583,55.116z"/>
			<path fill="#E2DEFF" d="M109.391,55.116h33.704c0.979,0,1.773,0.793,1.773,1.773v22.281c0,0.979-0.794,1.773-1.773,1.773h-33.704
				c-0.979,0-1.772-0.795-1.772-1.773V56.89C107.619,55.909,108.412,55.116,109.391,55.116z"/>
			<path fill="#E2DEFF" d="M1.774,96.636h33.704c0.979,0,1.773,0.793,1.773,1.771v22.283c0,0.979-0.794,1.773-1.773,1.773H1.774
				c-0.979,0-1.772-0.795-1.772-1.773V98.407C0.001,97.429,0.795,96.636,1.774,96.636z"/>
			<path fill="#E2DEFF" d="M55.583,96.636h33.704c0.979,0,1.772,0.793,1.772,1.771v22.283c0,0.979-0.794,1.773-1.772,1.773H55.583
				c-0.979,0-1.773-0.795-1.773-1.773V98.407C53.809,97.429,54.603,96.636,55.583,96.636z"/>
			<path fill="#E2DEFF" d="M1.774,138.155h33.704c0.979,0,1.773,0.793,1.773,1.773v22.281c0,0.979-0.794,1.773-1.773,1.773H1.774
				c-0.979,0-1.772-0.795-1.772-1.773v-22.281C0.001,138.948,0.795,138.155,1.774,138.155z"/>
			<path fill="#E2DEFF" d="M55.583,138.155h33.704c0.979,0,1.772,0.793,1.772,1.773v22.281c0,0.979-0.794,1.773-1.772,1.773H55.583
				c-0.979,0-1.773-0.795-1.773-1.773v-22.281C53.809,138.948,54.603,138.155,55.583,138.155z"/>
		</g>
		<path fill="#4D83F7" d="M122.603,114.737h33.704c0.979,0,1.773,0.795,1.773,1.773v63.801c0,0.979-0.794,1.773-1.773,1.773h-33.704
			c-0.979,0-1.772-0.795-1.772-1.773V116.51C120.831,115.532,121.625,114.737,122.603,114.737z"/>
		
			<linearGradient id="SVGID_7_" gradientUnits="userSpaceOnUse" x1="-511.3026" y1="365.8841" x2="-511.3026" y2="364.8841" gradientTransform="matrix(36.956 0 0 -67.048 19034.998 24646.5234)">
			<stop  offset="0" style="stop-color:#F94F4F"/>
			<stop  offset="1" style="stop-color:#F66363"/>
		</linearGradient>
		<path fill="url(#SVGID_7_)" d="M123.462,180.215v-58.348c0-2.486,2.015-4.5,4.5-4.5h28.253c0.537,0.004,1.069,0.105,1.57,0.299
			c-0.65-1.758-2.325-2.926-4.199-2.93H125.33c-2.485,0-4.5,2.014-4.5,4.5v58.348c0.004,1.873,1.171,3.547,2.928,4.199
			C123.565,181.284,123.465,180.752,123.462,180.215L123.462,180.215z"/>
		<path opacity="0.35" fill="#5851BC" enable-background="new    " d="M0.001,46.711l4.59,12.076h19.2c0,0-1.332,52.211-1.416,62
			s8.053,77.299,8.053,77.299h11.119l-1.157-85.123L56.16,69.291c0,0,11.861,58.469,16.778,68.25s31.339,60.547,31.339,60.547h10.2
			L88.279,86.131L77.035,47.233l-56.689-26.5l-20.344,2"/>
	</g>
	<path fill="#4D83F7" d="M575.781,610.503l-8.95,92.723l87.938,0.02l-8.507-92.898L575.781,610.503z"/>
	<path fill="#5851BC" d="M591.117,618.989c0.147-1.676,1.613-2.922,3.291-2.799h0.005c1.54-0.264,3.002,0.771,3.265,2.313
		c0.263,1.539-0.772,3.002-2.313,3.264c-0.312,0.055-0.63,0.055-0.942,0.002h-0.006
		C592.744,621.896,591.276,620.661,591.117,618.989L591.117,618.989z M594.41,617.257c-0.953-0.246-1.927,0.326-2.173,1.279
		c-0.247,0.953,0.326,1.926,1.279,2.174c0.295,0.076,0.604,0.074,0.898-0.002h0.005c0.953,0.246,1.926-0.326,2.173-1.279
		s-0.326-1.926-1.279-2.174c-0.295-0.076-0.604-0.074-0.898,0.002H594.41z"/>
	<path fill="#5851BC" d="M623.891,618.915h0.529H623.891c0.005-0.68,0.283-1.33,0.771-1.807c0.675-0.648,1.578-1.004,2.514-0.99
		h0.016c1.671-0.125,3.136,1.109,3.293,2.779c-0.008,0.787-0.376,1.527-1,2.008c-0.65,0.52-1.46,0.799-2.291,0.789h-0.005
		C625.516,621.819,624.051,620.585,623.891,618.915L623.891,618.915z M627.178,617.183c-0.654-0.014-1.288,0.23-1.764,0.68
		c-0.289,0.273-0.455,0.65-0.462,1.049c0.164,1.08,1.149,1.838,2.235,1.719h0.005c0.586,0.01,1.157-0.184,1.619-0.545
		c0.371-0.281,0.595-0.717,0.608-1.182c-0.161-1.08-1.147-1.84-2.232-1.721H627.178z"/>
	<path fill="#5851BC" d="M609.83,639.253c0.307,0,0.616-0.004,0.936-0.014c6.021-0.201,10.614-2.143,13.648-5.766
		c5.024-6,3.887-14.365,3.837-14.719c-0.083-0.582-0.622-0.988-1.204-0.904c-0.583,0.082-0.987,0.621-0.904,1.205l0,0
		c0.01,0.078,1.048,7.799-3.37,13.061c-2.629,3.131-6.693,4.813-12.08,4.992c-5.215,0.154-9.101-1.201-11.688-4.078
		c-4.694-5.227-3.54-13.816-3.527-13.9c0.083-0.582-0.322-1.123-0.905-1.205c-0.583-0.084-1.122,0.322-1.205,0.904
		c-0.054,0.393-1.313,9.641,4.044,15.617C600.281,637.638,604.45,639.253,609.83,639.253L609.83,639.253z"/>
	<path fill="#24446E" d="M489.327,401.542c3.399,5.876,0.464,13.907,3.899,19.766c1.375,2.344,3.7,4.189,4.362,6.825
		c0.797,3.188-1.141,6.417-4.328,7.214c-1.425,0.356-2.931,0.173-4.228-0.514c-0.418-0.263-0.86-0.482-1.322-0.655
		c-1.7-0.5-3.235,1.01-4.694,2.007c-1.782,1.297-4.063,1.701-6.182,1.096c-2.636-0.883-4.268-3.54-5.146-6.178
		c-2.455-7.373-0.71-15.447,1.559-22.882c1.134-3.715,2.809-7.835,6.452-9.183"/>
	<path fill="#FFB9B0" d="M568.372,464.067c0.056,0.817,1.3,1.52,0.472,3.24c-1.847,3.836-7.6,9.152-14.491,6.709
		c-0.3,0.106-38.04,21.922-40.946,21.922c-2.907,0-22.711-18.742-29.192-41.935c-1.545-5.534-0.944-12.042,4.24-14.843
		c0,0,4.321,1.048,7.127,6.343c4.291,8.1,17.14,34.919,19.987,35.931c3.55-2.365,20.831-7.5,34.826-13.445
		c3.118-1.359,4.316-2.506,5.426-4.533c1.051-2.053,3.626-6.825,5.815-9.066c0.749-0.766,9.03-5.2,9.03-3.745
		c0,0.842-2.431,3.075-5.6,5.085c-1.267,0.939-2.208,2.25-2.695,3.75c-0.54,1.066,5.935-0.891,6.473,1.35
		C568.935,461.149,568.344,463.641,568.372,464.067z"/>
	<path fill="#3876C8" d="M486.945,438.479c4.856,1.12,8.977,4.316,11.271,8.741c0.575,1.146,1.088,2.321,1.535,3.522
		c2.01,5.115,4.775,9.743,6.785,14.856c-2.748,2.218-6.074,3.238-8.876,4.28c-2.638,0.979-5.46,1.356-8.262,1.109
		c-0.478-0.022-0.948-0.127-1.391-0.308c-0.563-0.308-1.057-0.731-1.446-1.243c-0.859-0.986-1.697-1.993-2.512-3.019
		c-0.753-0.838-1.326-1.821-1.687-2.888c-0.263-1.509-0.125-3.061,0.399-4.5"/>
	<path opacity="0.35" fill="#7762EF" enable-background="new    " d="M491.882,452.447c-0.167-0.234-0.39-0.423-0.646-0.551
		c-0.538-0.148-1.105,0.103-1.357,0.6c-0.229,0.492-0.327,1.035-0.282,1.576c0.024,2.077,0.349,4.139,0.964,6.123l-0.642,10.787
		l0.015,0.022c2.626,0.165,5.257-0.219,7.727-1.127c1.167-0.435,2.426-0.884,3.693-1.399
		C500.057,462.404,495.913,457.255,491.882,452.447z"/>
	<g>
		<path fill="#FFB9B0" d="M475.156,427.769c0,0-0.146,6.754,0.893,7.2c1.413,0.575,2.873,1.027,4.364,1.35l0.068,13.976
			l-18.635-2.809l-12.817-7.14c0,0,13.323-4.417,13.439-5.745s-0.732-8.8-0.732-8.8"/>
		<path fill="#FFB9B0" d="M446.527,630.003l-0.011,0.055c-5.1,24.17-2.669,57.377-3.806,75.57c0.266,0.074,6.927,0.908,6.927,0.908
			s15.768-76.699,18.629-91.383c0.187-0.939,0.308-1.889,0.363-2.844c0.688-11.053-9.273-11.617-14.886-2.48
			c-0.975,1.58-1.833,3.229-2.568,4.934c-0.316,0.721-0.61,1.451-0.918,2.23l-0.005,0.025c-0.968,2.523-1.793,5.1-2.471,7.715
			l-0.059,0.279c-0.232,0.773-0.424,1.559-0.61,2.346l-0.038,0.178C446.877,628.345,446.701,629.157,446.527,630.003z"/>
		<path fill="#FFB9B0" d="M476.379,543.252c-0.188,2-1.253,11.517-2.535,22.741c-1.094,9.439-2.291,20.078-3.225,28.5
			c-0.693,6.318-1.2,11.357-1.413,13.73c-0.096,1.371-0.283,2.734-0.562,4.08v0.053c-2.399,11.037-10.024,11.68-14.662,9.119
			c-0.632-0.33-1.223-0.732-1.762-1.199c-0.997-0.838-1.69-1.98-1.973-3.252v-0.025c-0.292-2.268-0.586-5.361-0.854-9.041v-0.053
			c-0.024-0.025-0.024-0.025-0.024-0.053l-0.028-0.08c-0.561-7.172-1.04-16.4-1.467-25.383c-0.5-11.039-0.827-21.68-0.906-27.678
			c-0.027-0.348-0.027-0.666-0.053-0.986c-0.081-18.4,16.825-30.181,27.33-24.475c0.129,0.052,0.254,0.113,0.373,0.186
			c0.128,0.088,0.262,0.168,0.399,0.24c1.2,0.8,1.601,3.545,1.626,6.691C476.698,538.665,476.538,541.172,476.379,543.252
			L476.379,543.252z"/>
		<path fill="#FFB9B0" d="M450.653,612.669l-1.286-4.818c-0.005,0.025-0.005,0.025,0.013,0.059c0.085,5.65-0.451,11.293-1.6,16.824
			l-0.059,0.279c-0.185,0.762-0.378,1.57-0.61,2.346l-0.038,0.178c-0.262,0.803-0.444,1.631-0.546,2.469l-0.011,0.053
			c-0.015,2.186,4.639-7.518,5.7-9.785c0.132-0.289,0.213-0.455,0.213-0.455l-1.259-5.053L450.653,612.669z"/>
		<path fill="#FFB9B0" d="M487.071,634.62v0.055c-0.482,25.307,7.333,55.064,9.399,73.447c0.251,0.008,6.384-0.82,6.384-0.82
			s1.167-77.533,1.248-92.854c0.01-0.975-0.042-1.951-0.154-2.92c-1.256-11.162-10.313-9.248-13.812,1.232
			c-0.607,1.814-1.101,3.666-1.474,5.543c-0.16,0.801-0.3,1.6-0.444,2.445v0.029c-0.426,2.605-0.732,5.379-0.913,8.287l-0.005,0.293
			c-0.079,0.828-0.117,1.654-0.152,2.482l-0.005,0.188C487.104,632.88,487.089,633.737,487.071,634.62L487.071,634.62z"/>
		<path fill="#FFB9B0" d="M492.331,624.3c-0.628-0.17-1.228-0.432-1.779-0.777c-1.084-0.598-1.912-1.572-2.327-2.74v-0.027
			c-0.665-2.18-1.456-5.225-2.334-8.816c-0.02-0.031-0.02-0.031-0.018-0.059l-0.038-0.092c-1.708-6.979-3.735-16.037-5.625-24.852
			c-2.322-10.852-4.428-21.359-5.508-27.324c-0.086-0.322-1.021-4.666-1.083-4.986c-3.243-18.487,11.177-30.532,21.656-27.01
			c0.149,0.051,0.278,0.1,0.407,0.142c2.109,0.845,2.692,8.256,3.167,13.265c0.476,5.01,4.034,56.92,4.926,66.305
			c0.14,1.398,0.2,2.803,0.183,4.207C503.708,623.138,496.947,625.683,492.331,624.3L492.331,624.3z"/>
		<path fill="#FFB9B0" d="M487.843,616.353l-1.977-4.473c0,0.027,0,0.027,0.02,0.055c1.044,5.648,1.519,11.387,1.418,17.131
			l-0.005,0.293c-0.038,0.801-0.074,1.658-0.152,2.482l-0.005,0.188c-0.097,0.861-0.121,1.729-0.07,2.594v0.053
			c0.357,2.178,2.899-8.629,3.471-11.152c0.068-0.32,0.114-0.5,0.114-0.5l-1.992-4.713L487.843,616.353z"/>
	</g>
	<path fill="#3876C8" d="M455.714,507.737c0,0-13.573,17.238-12.173,34.561c0.579,7.209,1.474,13.563,2.294,20.816
		c0.119,1.045,1.746,16.277,1.286,16.291c0,0,27.961,8.641,54.974-2.678c0-1.848,2.162-37.301-12.43-71.101
		C478.414,507.15,467.067,507.855,455.714,507.737L455.714,507.737z"/>
	<path fill="#3876C8" d="M498.21,467.941c-0.107,4.938-2.735,7.943-6.5,12.105c-0.477,0.74-1.647,11.75-2.045,19.068
		c-0.208,3.809,1.418,6.199,0,6.513c-5.425,4.731-24.972,8.563-33.939,2.106c0.939-7.961-2.626-25.5-5.03-34.412
		c-0.376-1.373-0.705-2.531-1-3.424c-2.24-6.772-6.285-28.49-3.291-29.436c0.6-0.188,1.521-0.431,2.6-0.756
		c4.687-1.413,11.611-3.841,11.611-3.841s4.062,12.017,14.623,13.468c5.765-2.375,5.257-9.665,5.188-13.016
		c1.885,0.52,2.715,1.038,8.559,2.768c1.637,2.362,0.223,7.29,2.869,14.638C492.501,455.548,498.339,461.924,498.21,467.941
		L498.21,467.941z"/>
	<path fill="#FFB9B0" d="M488.64,400.185c0,0,1.068,13.055-1.16,19.9c-1.648,5.067-8.421,9.8-14.085,9.733
		c-15.589,0-18.385-21.174-18.3-22.2c0.085-1.026,22.993-9.911,22.993-9.911L488.64,400.185z"/>
	<path fill="#5045AF" d="M518.324,715.448c-5.549,1-11.48-0.561-13.91-0.139c-2.01,0.342-7.171,1.65-9.101-0.084
		c-1.929-1.736-1.62-7.863,0.601-8.682c0.469,0.162,0.951,0.277,1.44,0.35c2.203,0.303,4.445,0.119,6.569-0.539
		c4.222,1.738,4.377,2.5,9.178,3.467c2.097,0.406,4.146,1.029,6.115,1.855C521.285,712.62,521.45,714.89,518.324,715.448z"/>
	<path fill="#5045AF" d="M458.425,717.892c-5.559-0.938-9.078-4.014-11.509-4.436c-2.007-0.357-7.064-1.342-7.594-3.416
		c-0.394-1.539,1.134-7.945,3.5-7.965c0.387,0.309,0.801,0.582,1.237,0.816c1.971,1.029,4.144,1.613,6.364,1.713
		c3.387,3.063,3.278,3.828,7.467,6.359c1.836,1.094,3.555,2.371,5.128,3.814C464.647,716.368,461.558,718.419,458.425,717.892
		L458.425,717.892z"/>
	<path fill="#FFB9B0" d="M377.405,458.625l5.104-6.074l31.148,27.853c0,0,15.209-20.244,19.39-26.563
		c4.6-6.95,8.746-12.895,15.473-14.057c1.551,0.957-0.522,25.919-1.332,26.523c-9.399,7.031-27.685,29.708-33.5,30.888
		C406.973,498.555,377.405,458.625,377.405,458.625z"/>
	<path fill="#3876C8" d="M450.819,438.677c0,0-6.364,0.081-9.101,2.334c-2.735,2.253-15.81,22.976-15.81,22.976
		c-0.007,2.797,1.258,5.446,3.438,7.2c2.708,2.193,5.965,3.602,9.416,4.075c0,0,6.563-6.53,10.261-9.5
		c2.301-1.852,2.532,2.729,2.532,2.729l11.57-11.299L450.819,438.677z"/>
	<path fill="#24446E" d="M446.979,438.931c-0.348-0.186-0.688-0.386-1.018-0.584c-1.786-1.066-3.428-2.187-4.179-4.217
		c-1.084-2.926-1.601-7.414-0.089-10.251c1.027-1.921,2.956-3.177,4.277-4.907c1.827-2.393,2.367-5.519,2.522-8.523
		s-0.025-6.052,0.605-8.995c1.078-5.029,2.513-9.819,6.39-13.06c6.209-5.191,18.653-8.267,25.424-2.479
		c1.23,1.053,1.472,1.9,3.134,2.061c2.001,0.079,3.952,0.649,5.681,1.659c2.221,1.284,4.915,3.093,4.601,6.008
		c-0.218,2.017-2.509,5.212-4.235,6.163c-0.742,0.369-1.563,0.553-2.393,0.535c-2.64,0.051-4.828-1.665-7.419-1.388
		c-1.276,0.154-2.441,0.8-3.248,1.8c-0.935,1.152-0.808,2.758-1.9,3.834c-1.748,1.728-4.458,1.581-6.529,2.7
		c-0.357,0.161-0.666,0.415-0.893,0.736c-0.164,0.346-0.242,0.727-0.226,1.109l-0.119,3.271c-1.028-0.452-1.134-1.913-1.982-2.649
		c-0.909-0.649-2.149-0.57-2.969,0.19c-0.776,0.767-1.279,1.767-1.431,2.847c-0.129,1.328,0.068,2.667,0.575,3.9
		c0.678,2.223,2.583,4.225,4.121,2.756c1.116,1.642-0.1,4.382-0.145,6.237c-0.033,1.472-0.005,4.39,1.37,5.355
		c1.266,0.891,3.271,0.216,3.349,2.507c0.069,2.1-2.03,3.735-4.11,3.991c-2.079,0.256-4.141-0.477-6.152-1.073
		s-4.212-1.063-6.168-0.3c-1.186,0.459-2.207,1.35-3.463,1.558C449.177,439.836,447.989,439.558,446.979,438.931L446.979,438.931z"
		/>
	<path fill="#FFB9B0" d="M390.379,459.627c0,0-7.32-5.869-7.82-7.475s-0.605-3.326-1.21-4.9c-0.938-2.304-2.771-4.128-5.08-5.054
		c-1.835-0.756-0.936-1.378-2.899-1c-2.966,0.573-4.374,3.481-5.56,5.755c-5.057,9.69,8.792,11.524,9.279,11.545
		c1.01,0.04,6.163,5.881,6.163,5.881"/>
	<path fill="#F0890A" d="M367.256,454.951l5.014,3.347c0.636,0.422,1.494,0.25,1.916-0.386c0.013-0.019,0.024-0.037,0.035-0.056
		l11.016-18.456l-6.524-3.679l-11.824,17.3c-0.433,0.628-0.273,1.488,0.354,1.92C367.247,454.945,367.251,454.948,367.256,454.951
		L367.256,454.951z"/>
	<path fill="#F0890A" d="M349.343,415.784l1.726,1.175l6.978-10.17l-1.725-1.175c-2.453-1.675-6.007-0.754-7.935,2.055
		C346.461,410.477,346.887,414.11,349.343,415.784z"/>
	<path fill="#FCA70C" d="M342.965,428.179l32.101,4.873l7.331-10.684l-16.199-28.043L342.965,428.179z"/>
	<path fill="#F0890A" d="M345.014,428.625l30.046,4.428l2.923-4.258l-25.287-11.363L345.014,428.625z"/>
	<path fill="#FCA70C" d="M388.261,440.821c1.932,1.119,4.403,0.479,5.549-1.436l1.301-1.9c1.375-1.753,1.077-4.287-0.667-5.673
		c-1.932-1.118-4.402-0.479-5.55,1.436l-1.3,1.9C386.217,436.9,386.515,439.436,388.261,440.821z"/>
	<path fill="#FCA70C" d="M388.895,433.25l-1.3,1.9c-1.418,1.547-1.313,3.951,0.234,5.369c1.547,1.418,3.95,1.313,5.368-0.234
		c0.247-0.269,0.453-0.572,0.613-0.9l1.301-1.9c0.098-0.144,0.187-0.293,0.266-0.447c-1.16,1.702-3.479,2.142-5.182,0.981
		c-1.702-1.16-2.142-3.479-0.981-5.181l0,0C389.1,432.969,388.993,433.106,388.895,433.25L388.895,433.25z"/>
	<path fill="#F0890A" d="M341.916,429.233c1.134,0.655,2.584,0.28,3.258-0.842l22.021-32.085c0.808-1.031,0.632-2.52-0.394-3.334
		c-1.135-0.654-2.584-0.278-3.258,0.845l-22.019,32.084C340.717,426.931,340.892,428.419,341.916,429.233L341.916,429.233z"/>
	<path fill="#FCA70C" d="M367.363,393.584l-18.337,26.717c-0.674,1.124-2.124,1.5-3.259,0.845c-0.229-0.162-0.42-0.37-0.563-0.611
		l-3.682,5.364c-0.826,0.914-0.754,2.324,0.16,3.149c0.914,0.826,2.324,0.754,3.149-0.16c0.136-0.15,0.251-0.319,0.341-0.5
		l22.021-32.087C367.775,395.506,367.841,394.445,367.363,393.584L367.363,393.584z"/>
	<path fill="#FCA70C" d="M377.894,438.671l2.078,1.416c3.065,2.091,7.5,0.941,9.906-2.565l2.065-3.007
		c2.404-3.507,1.869-8.043-1.2-10.132l-2.078-1.416c-3.065-2.091-7.5-0.941-9.906,2.565l-2.064,3.007
		C374.294,432.045,374.83,436.582,377.894,438.671z"/>
	<path fill="#F0890A" d="M376.814,428.373l-3.091,4.5c-0.779,0.99-0.61,2.425,0.378,3.207l9.665,6.587
		c1.092,0.632,2.488,0.271,3.137-0.812l3.091-4.5c-0.647,1.083-2.045,1.444-3.136,0.812l-9.665-6.584
		C376.204,430.799,376.035,429.365,376.814,428.373z"/>
	<path fill="#FFB9B0" d="M368.33,450.32c-0.438-2.648,0.196-5.363,1.763-7.543c0.546-0.694,1.148-1.343,1.8-1.939
		c0.292-0.331,0.666-0.578,1.084-0.716c0.821-0.114,1.655,0.074,2.348,0.53c0.831,0.411,1.506,1.082,1.923,1.911
		c0.535,1.314-0.375,2.41-1.411,3.065c-0.114,0.052-0.206,0.143-0.259,0.256c-0.059,0.175,0.063,0.4,0.178,0.6
		c0.497,0.738,0.757,1.61,0.743,2.5c-0.085,0.806-0.808,1.39-1.613,1.305c-0.036-0.004-0.073-0.009-0.109-0.016
		c-0.378-0.061-0.884-0.208-1.008,0.081c-0.031,0.106-0.034,0.219-0.008,0.327c0.116,0.755-0.097,1.524-0.584,2.114
		c-0.111,0.153-0.277,0.258-0.464,0.292c-0.165,0.011-0.331-0.011-0.487-0.066c-0.604-0.171-1.182-0.427-1.715-0.761"/>
	<path fill="#FFB9B0" d="M382.511,452.556c-0.268-1.302-0.468-2.616-0.6-3.938c-0.084-3.01-1.676-5.776-4.235-7.363
		c-0.199-0.144-0.442-0.214-0.688-0.2c-0.307,0.081-0.531,0.344-0.562,0.66c-0.024,0.309,0.021,0.62,0.135,0.908
		c0.301,0.931,1.619,2.679,1.21,3.639c-0.675,1.428-1.031,2.986-1.045,4.565c0.046,1.393,0.7,3.654,2.345,3.882"/>
	<path fill="none" stroke="#F0890A" stroke-width="0.75" stroke-linecap="round" stroke-linejoin="round" d="M345.29,378.798
		l6.457,15.226"/>
	<path fill="none" stroke="#F0890A" stroke-width="0.75" stroke-linecap="round" stroke-linejoin="round" d="M331.806,392.339
		l13.235,9.919"/>
	<path fill="none" stroke="#F0890A" stroke-width="0.75" stroke-linecap="round" stroke-linejoin="round" d="M323.27,410.783
		l16.46,1.617"/>
	<path fill="#FFB9B0" d="M850.59,250.559c0,0-5.912-4.171-6.122-5.922s-4.331-8.85-5.65-10.263c-1.32-1.413-8.249-3.814-9.727-4.027
		c-1.477-0.213-9.961,0.51-8.905,1.667c1.055,1.157,6.546,0.736,7.6,1.37l1.055,0.632c0,0-1.055,1.434-0.634,2.3
		s-1.812,2.2-0.967,3.679c0.845,1.479-0.342,1.378,0.414,2.92c1.248,2.545,4.442,3.963,5.288,3.268
		c0.634,1.507,3.058,4.582,5.328,4.372c2.27-0.21,7.79,4.96,7.79,4.96"/>
	<path fill="#FFB9B0" d="M940.73,220.883c0.2,3.971-0.081,10.885,1.055,11.91s4.806,0.865,4.806,0.865s-13.117,16.587-14.289,15.676
		c-1.173-0.911-16.688-13.554-13.2-14.209c3.487-0.655,6.899-0.513,6.8-2.317c-0.101-1.804-0.2-3.611-0.3-5.415"/>
	<path fill="#FCA70C" d="M955.691,309.464c0,0-25.595,2.905-31.486,3.027s-5.6-2.956-5.6-2.956c-0.3-6.485-1.4-21.768-2.619-26.946
		c-1.138-4.836-1.643-6.622-2.631-11.217c-2.2-10.213-2.106-12.164-4.438-24.769l15.288-12.288c0,0,1.583,4.7,7.99,4.783
		c8.565,0.109,11.229-5.889,11.229-5.889l20.853,13.844l1.956,33.675l-2.494,27.733"/>
	<path fill="#FFB9B0" d="M941.021,217.286c-0.464,2.001-1.065,3.967-1.8,5.884c-1.353,3.514-3.345,4.775-7.062,4.864l-7.838,0.185
		c-2,0.048-4.5,0.117-6.12-1.292c-1.62-1.409-1.642-3.743-2-5.676c-0.454-2.471-0.824-4.957-1.111-7.457
		c-0.561-4.894-0.791-9.819-0.689-14.744c-0.007-0.676,0.052-1.352,0.175-2.017c0.039-0.273,0.155-0.531,0.335-0.741
		c0.268-0.217,0.597-0.344,0.941-0.363c4.898-0.772,9.857-1.09,14.814-0.949c3.5,0.1,7.206,0.507,9.975,2.649
		c2.787,2.154,4.109,5.656,5.3,8.972c0.189,0.533,0.332,1.243-0.129,1.568"/>
	<path fill="#ED9C80" d="M883.612,400.762c0.364,2.306,0.874,4.587,1.523,6.83c0.678,1.738,6.387,0.134,6.766-0.99s-1.8-9.4-1.8-9.4
		"/>
	<path fill="#38287C" d="M893.892,408.042c0.494,1.875,1.118,5.478,1.118,5.478l-5.709,2.484l-0.936-0.878
		c-0.883,1.038-1.958,1.896-3.166,2.525c-1.772,0.732-3.627,1.247-5.524,1.533c-4.982,0.535-8.649-0.4-8.946-1.091
		c-1.236-2.887,5.377-3.661,6.688-4.006c3.07-0.803,5.466-3.204,6.262-6.275c0.293-1.512-0.084-1.779,0.762-1.733
		c0.548,0.021,1.063,0.263,1.428,0.672c1.015,1.143,2.641,1.52,4.055,0.941c0.833-0.337,1.54-0.926,2.022-1.685
		C892.951,406.218,893.725,407.026,893.892,408.042z"/>
	<path fill="#453087" d="M908.839,334.223c-9.622,1.701-19.446,1.934-29.139,0.69c1.261,3.616,4.351,8.246,5.529,13.336
		c3.887,16.8,5.236,39.382,6.224,53.347c0,0-1.865,3.585-7.848,0.855c-8.938-22.072-24.541-66.805-24.4-76.511
		c0.186-12.354,31.021-15.338,53.622-18.383"/>
	<path fill="#38287C" d="M948.232,309.487c7.106,5.189-39.393,24.736-39.393,24.736c-5.019,0.986-10.123,1.474-15.238,1.454
		c-0.511-0.903-0.893-1.873-1.135-2.882c-0.273-1.35-0.127-2.756-0.362-4.111c-0.589-2.653-2.278-4.93-4.646-6.262
		c-2.352-1.301-4.932-2.137-7.6-2.461c-6.287-1.015-17.264-0.3-17.264-0.3c13.976-10.3,42.568-11.649,55.887-12.5
		C921.031,311.362,947.211,308.743,948.232,309.487L948.232,309.487z"/>
	<path fill="#ED9C80" d="M898.353,412.507c-0.04,2.335,0.067,4.671,0.319,6.993c0.365,1.832,6.268,1.241,6.833,0.2
		c0.566-1.041-0.14-9.571-0.14-9.571"/>
	<path fill="#38287C" d="M907.212,421.459c0.162,1.936,0.152,5.59,0.152,5.59l-6.051,1.459l-0.771-1.03
		c-1.049,0.87-2.256,1.528-3.555,1.939c-1.874,0.414-3.791,0.599-5.709,0.551c-5-0.335-8.447-1.893-8.619-2.624
		c-0.718-3.057,5.927-2.674,7.28-2.786c3.162-0.26,5.937-2.209,7.254-5.095c0.551-1.439,0.228-1.766,1.053-1.573
		c0.535,0.114,1.001,0.442,1.289,0.908c0.802,1.301,2.338,1.954,3.831,1.629c0.879-0.187,1.678-0.644,2.284-1.307
		C906.604,419.503,907.225,420.432,907.212,421.459z"/>
	<path fill="#453087" d="M963.739,308.459c-10.474,0.908-20.989,1.242-31.5,1c-4.024,0-34.454,5.709-37.365,10.865
		c-4.788,8.482,3.123,58.054,2.391,93.544c0,0,3.648,3.045,10.1,0.183c1.6-17.434,11.905-58.561,4.8-77.761
		c16.777,2.225,30.312,4.438,45.561-0.617c3.569-1.182,6.238-3.7,7.845-8.317C967.177,322.725,966.337,312.6,963.739,308.459
		L963.739,308.459z"/>
	<path fill="#FCA70C" d="M924.205,234.313c0,0-3.656,0.2-4.369,0.259c-3.076,0.153-6.118,0.729-9.038,1.71
		c-4.146,1.535-7.071,5.392-10.445,8.409c-3.25,2.9-20.094,18.951-23.234,19.543S846.4,245.927,846.4,245.927l-6.732,6.734
		c0,0,29.923,27.649,38.847,27.7c4.33,0.023,28.218-12.552,35.861-17.439L924.205,234.313z"/>
	<path opacity="0.25" fill="#CE4A30" enable-background="new    " d="M878.581,275.048c-6.151,0.348-34.34-21.182-37.607-23.694
		l-1.308,1.307c0,0,29.923,27.649,38.846,27.7c3.611,0.018,20.791-8.708,30.842-14.448l2.6-1.51l-1.56-9.3
		C910.394,255.103,885.11,274.68,878.581,275.048z"/>
	<path fill="#747E88" d="M849.868,313.991h68.5l-12.281-40.039c-0.678-2.21-2.72-3.72-5.032-3.72h-59.99
		c-1.885-0.001-3.413,1.526-3.414,3.41c0,0.341,0.051,0.679,0.15,1.005L849.868,313.991z"/>
	<path fill="#38424D" d="M849.008,313.991h67.466l-12.281-40.039c-0.679-2.211-2.721-3.721-5.034-3.72h-59.984
		c-1.886,0-3.414,1.529-3.414,3.415c0,0.339,0.05,0.676,0.149,1l11.766,38.359C847.855,313.591,848.396,313.991,849.008,313.991z"/>
	<path opacity="0.25" fill="#CE4A30" enable-background="new    " d="M954.336,253.612c-3.408,15.414-4.012,27.477-4.976,38.5
		c-11.97,4.646-16.843,11.563-28.556,16.774c0,0-9.248-1.535-10.218,1.954c-0.561,2.012,10.827,3.613,10.827,3.613
		c10.854,0.051,39.481-7.881,41.417-8.414c1.937-0.533,7.579-36.921,7.8-56.669c0.03-2.8-0.068-5.849-1.822-8.036
		c-0.98-1.11-2.184-2-3.531-2.613c-7.639-3.9-13.3-4.971-21.857-5.514"/>
	<path fill="#FFB9B0" d="M922.42,311.273c-1.287-1.619-3.631-1.855-5.699-1.8c-1.531,0.038-3.06,0.159-4.577,0.365
		c-0.69,0.094-1.487,0.256-1.559,1c-0.07,0.744,3.354,0,5.151,0.518c-3.521,0.303-7.059,0.399-10.591,0.289
		c-0.411-0.042-0.826,0-1.221,0.124c-0.399,0.137-0.672,0.507-0.685,0.929c0.052,0.321,0.226,0.61,0.485,0.807
		c1.055,0.818,2.316,1.326,3.644,1.467c5.4,0.946,11.078,0.781,16.1-1.421"/>
	<path fill="#FCA70C" d="M953.592,253.323c-0.281,16.477-1.45,24.018-1.132,40.5c-8.271,1.769-19.723,11.134-31.435,16.348
		c-0.388,1.429-0.25,2.95,0.388,4.286c0.894,0.327,39.506-9.073,42.576-11.9c2.763-2.547,6.419-33.432,6.645-53.18
		c0.03-2.8-0.068-5.849-1.821-8.036c-0.98-1.109-2.185-2-3.532-2.613c-7.638-3.9-13.3-4.971-21.857-5.514"/>
	<path opacity="0.45" fill="none" stroke="#FFFFFF" stroke-miterlimit="10" enable-background="new    " d="M883.828,292.802
		c0.244,3.512-3.9,6.356-9.269,6.356c-5.369,0-9.911-2.844-10.157-6.356c-0.246-3.512,3.9-6.359,9.269-6.359
		C879.04,286.443,883.582,289.286,883.828,292.802z"/>
	
		<ellipse transform="matrix(-0.9992 -0.039 0.039 -0.9992 1736.1472 619.4589)" fill="#FFFFFF" stroke="#FFFFFF" cx="874.114" cy="292.8" rx="6.174" ry="3.533"/>
	<path fill="#483A99" d="M928.952,206.75c-0.13-0.617-1.5-0.738-2.872-0.566c-1.372,0.172-5.037,0.634-5.788,1.22
		s-0.71,1.007-1.11,1.053c-0.401,0.046-0.422-0.368-1.301-0.751c-0.879-0.383-2.988-0.114-4.363,0.058
		c-1.375,0.172-2.68,0.477-2.652,1.106c-0.002,0.673,0.189,1.333,0.551,1.9c0.279,0.175,0.279,0.145,1.36,2.629
		c0.389,1.396,1.835,2.212,3.23,1.823c0.026-0.007,0.052-0.015,0.078-0.023c2.261-0.492,2.4-3.068,2.578-4.143
		c0.178-1.075,0.337-1.236,0.68-1.279c0.344-0.043,0.579,0.066,1.016,1.066c0.436,1,0.751,3.3,3.067,3.433
		c3.032,0.17,4.347-0.868,4.768-2.811c0.568-2.636,0.438-2.646,0.667-2.885c0.759,0.004,1.517,0.069,2.266,0.193l-0.051-0.787
		C930.339,207.625,929.629,207.212,928.952,206.75L928.952,206.75z M917.941,212.056c0.081,1.361-0.888,2.56-2.235,2.766
		c-1.39,0.175-2.027-0.563-2.781-2.344c-0.533-0.981-0.693-2.123-0.448-3.212c0.235-0.426,0.986-0.411,2.712-0.521
		c1.725-0.109,2.3-0.146,2.583,0.614c0.188,0.886,0.246,1.794,0.173,2.696H917.941z M927.825,210.602
		c-0.287,1.911-0.987,2.829-2.892,3.057c-2.7,0.325-3.221-0.741-3.618-2.027c-0.295-0.857-0.463-1.752-0.5-2.657
		c0.084-0.8,0.649-0.913,2.349-1.233c1.699-0.32,3.971-0.718,4.307-0.363c0.506,0.995,0.633,2.141,0.357,3.223H927.825z"/>
	<path fill="#483A99" d="M947.264,202.541c-0.155-1.371-0.407-2.729-0.755-4.063c-0.852-3.53-3.148-6.54-6.327-8.295
		c-4.438-2.214-9.532-2.721-14.318-1.426c-2.621,0.733-3.593,2.114-4.943,2.076c-1.27-0.242-2.502-0.647-3.667-1.208
		c-10.243-3.682-8.524,6.346-7.434,9.1c0.485,1.218,2.806,2.106,3.116,2.611c0.31,0.505,0.273,2.986,0.472,4.08
		c0.158,0.678,0.633,1.239,1.276,1.507c0,0,0.056-3.227,0.106-3.664c0.042-1.18,0.595-2.284,1.515-3.024
		c1.145-0.594,2.398-0.946,3.685-1.035c2.558,0.07,5.095,0.49,7.539,1.248c1.913,1.642,2.405,5.387,2.942,7.589
		c0.25,1.028,0.511,1.718,0.93,1.7c0.316-3.032,1.37-3.108,3.184-2.073c0.967,0.553,1.51,2.474,1.543,4.1
		c0.038,1.926-1.038,4.047-3.057,4.476c-0.723,0.155,1.459,4.291,2.469,5.323c0.314,0.357,0.673,0.673,1.068,0.939
		c0.389,0.207,0.803,0.361,1.232,0.457l1.465,0.4c0.643,0.236,1.338,0.296,2.012,0.173c1.081-0.3,1.652-1.451,2.139-2.464
		c0.8-1.659,1.72-3.268,2.375-4.993C947.351,211.736,947.842,207.103,947.264,202.541L947.264,202.541z"/>
	<path fill="#5F8BE3" d="M1131.838,354.349h-129.651l15.525-11.489v-56.075c0-4.679,3.793-8.472,8.473-8.472h105.653
		c4.68,0,8.473,3.793,8.473,8.472v59.092C1140.311,350.556,1136.518,354.349,1131.838,354.349z"/>
	<path opacity="0.45" fill="#FFFFFF" enable-background="new    " d="M1069.793,289.25h59.252v5.67h-59.252V289.25z"/>
	<path opacity="0.45" fill="#FFFFFF" enable-background="new    " d="M1069.793,297.72h59.252v5.67h-59.252V297.72z"/>
	<path opacity="0.45" fill="#FFFFFF" enable-background="new    " d="M1069.793,306.189h59.252v5.67h-59.252V306.189z"/>
	<path opacity="0.45" fill="#FFFFFF" enable-background="new    " d="M1069.793,314.442h59.252v5.669h-59.252V314.442z"/>
	<path opacity="0.45" fill="#FFFFFF" enable-background="new    " d="M1069.793,324.315h41.321v5.67h-41.321V324.315z"/>
	<path fill="#B9B9F8" d="M1031.304,289.25h30.45c1.87,0,3.385,1.515,3.385,3.385v36.75c0,1.87-1.515,3.385-3.385,3.385h-30.45
		c-1.869,0-3.385-1.516-3.385-3.385v-36.75C1027.919,290.765,1029.435,289.25,1031.304,289.25z"/>
	<path opacity="0.45" fill="#A2A7F4" enable-background="new    " d="M1027.919,338.19h37.22v4.672h-37.22V338.19z"/>
	<path fill="#FFFFFF" d="M1050.199,317.492h-13.51c-0.761,0-1.427-0.509-1.626-1.243l-2.601-9.6
		c-0.242-0.898,0.29-1.823,1.188-2.066c0.143-0.039,0.29-0.058,0.438-0.058h18.7c0.929-0.002,1.684,0.75,1.686,1.679
		c0,0.15-0.02,0.3-0.06,0.445l-2.6,9.6C1051.617,316.98,1050.956,317.488,1050.199,317.492z"/>
	<path fill="#FFFFFF" d="M1052.579,319.651h-16.267c-0.186,0-0.336-0.151-0.335-0.337c0-0.185,0.149-0.334,0.335-0.335h16.013
		l5.661-19.74c0.04-0.145,0.172-0.244,0.322-0.244h3.543c0.186,0.001,0.335,0.152,0.335,0.337c-0.001,0.185-0.15,0.334-0.335,0.335
		h-3.286l-5.661,19.74C1052.863,319.552,1052.731,319.652,1052.579,319.651z"/>
	<path fill="#FFFFFF" d="M1038.803,322.295c0.002,1.087-0.879,1.969-1.966,1.97c-1.087,0.001-1.969-0.879-1.97-1.966
		s0.879-1.969,1.966-1.97c0.001,0,0.001,0,0.001,0C1037.921,320.329,1038.802,321.209,1038.803,322.295z"/>
	<circle fill="#FFFFFF" cx="1051.138" cy="322.296" r="1.967"/>
	<path fill="#FDCDCD" d="M650.194,276.035h165.187L795.598,261.4v-90.378c0-5.96-4.831-10.791-10.791-10.791c0,0-0.002,0-0.003,0
		H650.194c-5.96-0.002-10.793,4.828-10.794,10.788c0,0.001,0,0.002,0,0.003v94.219C639.401,271.202,644.233,276.035,650.194,276.035
		L650.194,276.035L650.194,276.035z"/>
	<g transform="translate(653.752 176.988)" opacity="0.45">
		<path fill="#FFFFFF" d="M75.492,7.224H0V0h75.492V7.224z"/>
		<path fill="#FFFFFF" d="M75.492,18.014H0V10.79h75.492V18.014z"/>
		<path fill="#FFFFFF" d="M75.492,28.805H0v-7.224h75.492V28.805z"/>
		<path fill="#FFFFFF" d="M75.492,39.32H0v-7.224h75.492V39.32z"/>
		<path fill="#FFFFFF" d="M75.492,49.834H0V42.61h75.492V49.834z"/>
		<path fill="#FFFFFF" d="M75.492,68.94H0v-7.223h75.492V68.94z"/>
		<path fill="#FFFFFF" d="M128.842,80.318H0v-7.224h128.842V80.318z"/>
	</g>
	<path fill="#4D83F7" d="M778.282,232.436h-38.795c-2.382,0-4.313-1.931-4.313-4.313v-46.822c0-2.382,1.932-4.313,4.313-4.313
		h38.795c2.382,0,4.313,1.931,4.313,4.313v46.822C782.595,230.505,780.664,232.436,778.282,232.436z"/>
	<path opacity="0.45" fill="#FFFFFF" enable-background="new    " d="M782.595,245.293h-47.421v-5.953h47.421V245.293z"/>
	<path fill="#FFFFFF" d="M754.208,212.969h17.208c0.97,0,1.819-0.65,2.073-1.586l3.309-12.222c0.311-1.143-0.364-2.321-1.508-2.632
		c-0.183-0.05-0.372-0.075-0.562-0.075h-23.831c-1.185,0-2.146,0.961-2.146,2.146c0,0.189,0.025,0.378,0.075,0.562l3.309,12.222
		C752.39,212.318,753.238,212.968,754.208,212.969L754.208,212.969z"/>
	<path fill="#FFFFFF" d="M751.176,215.72h20.726c0.236,0.012,0.437-0.17,0.448-0.407c0.011-0.236-0.171-0.437-0.407-0.448
		c-0.014,0-0.027,0-0.041,0h-20.4l-7.211-25.15c-0.052-0.184-0.22-0.311-0.411-0.31h-4.509c-0.236-0.011-0.437,0.171-0.448,0.407
		c-0.012,0.236,0.171,0.437,0.407,0.448c0.014,0.001,0.027,0.001,0.041,0h4.188l7.211,25.15
		C750.82,215.593,750.986,215.719,751.176,215.72L751.176,215.72z"/>
	<path fill="#FFFFFF" d="M768.732,219.092c0,1.384,1.123,2.506,2.507,2.505c1.384-0.001,2.506-1.123,2.505-2.507
		c-0.001-1.384-1.123-2.505-2.507-2.505c-0.002,0-0.004,0-0.005,0c-1.381,0-2.5,1.119-2.5,2.5
		C768.732,219.088,768.732,219.089,768.732,219.092z"/>
	<path fill="#FFFFFF" d="M750.506,219.092c0.001,1.384,1.123,2.506,2.508,2.505c1.384-0.001,2.505-1.123,2.505-2.507
		c-0.001-1.384-1.123-2.505-2.508-2.505c-0.001,0-0.003,0-0.005,0c-1.381,0-2.5,1.119-2.5,2.5
		C750.506,219.088,750.506,219.089,750.506,219.092z"/>
	<ellipse fill="#F5F5FC" cx="1032.246" cy="744.088" rx="72.796" ry="7.675"/>
	<path fill="#38424D" d="M993.18,733.198c-0.612,1.189-3.541,3.939-7.601,5.752s-12.649,2.662-7.873,4.258s10.34,0.629,13.161,0.178
		c2.94-0.41,5.909-0.59,8.878-0.537c4.387-0.029,4.423-0.301,3.831-5.246C1002.766,730.798,995.153,729.351,993.18,733.198
		L993.18,733.198z"/>
	<path fill="#38424D" d="M1072.653,730.728c-0.244,1.373,1.705,5.535-1.784,8.59s-11.405,6.27-6.155,6.389
		c4.443,0.148,8.866-0.676,12.958-2.414c2.667-1.318,0.538-3.395,3.85-4.438c4.361-1.377,3.461-4.584,1.199-6.568
		C1079.812,725.749,1073.441,726.284,1072.653,730.728z"/>
	<path fill="#303D47" d="M1055.936,592.163c0,0,10.453-30.734-19.2-56.051c0,0-15.895,6.328-28.621,7.092
		c-10.025,0.6-15.112-0.322-15.112-0.322s-0.845,27.301-0.88,42.021L1055.936,592.163z"/>
	<path fill="#303D47" d="M989.711,643.212c-0.572-13.74,14.326-11.939,19.822-1.674c11.362,21.227-4.192,70.115-6.247,93.281
		c-2.136,0.828-5.717,1.473-7.866,0.49c-1.011-0.578-1.811-1.463-2.286-2.527C993.466,704.364,990.327,657.907,989.711,643.212z"/>
	<path fill="#303D47" d="M1009.02,645.292c-1.715,5.613-20.735,11.516-19.192-8.91c0.683-9.059,2.5-59.078,2.854-63.9
		c0.354-4.82,1.159-11.869,3.488-12.75c11.654-4.4,32.268,10.84,29.2,28.947C1023.325,600.78,1012.572,633.657,1009.02,645.292
		L1009.02,645.292z"/>
	<path fill="#303D47" d="M1038.95,653.095c-4.6-12.961,10.342-15.254,18.814-7.27c19.842,18.699,20.61,62.762,25.475,85.508
		c-2.623,1.576-5.615,2.434-8.675,2.484c-0.93-0.029-1.799-0.473-2.365-1.211C1064.139,705.355,1043.87,666.952,1038.95,653.095z"/>
	<path fill="#303D47" d="M1058.574,648.864c0.52,5.842-15.336,17.92-21.575-1.586c-2.768-8.652-14.618-59.779-16.1-64.381
		c-1.482-4.602-1.078-14.1,0.751-15.789c9.149-8.455,29.8-1.021,33.759,16.91C1058.057,596.007,1057.498,636.745,1058.574,648.864
		L1058.574,648.864z"/>
	<path fill="#F2A181" d="M976.92,425.013c0.541-0.571,1.081-1.142,1.563-1.761c3.758-4.806,4.306-9.066,7.787-14.643
		c0.741-1.665,1.586-3.282,2.529-4.841c1.588-1.874,3.503-3.443,5.651-4.631c1.626-0.853,0.229,2.733,0.229,2.733s1.38-2,2.715-1.86
		c0.52,0.056,0.611,3.113,0.619,3.636c0.061,4.219-0.919,8.389-2.853,12.139c-0.537,0.83-0.87,1.775-0.972,2.758
		c1.23-0.195,2.373-0.757,3.277-1.614c1-0.731,2.257-1.4,3.431-1c-0.18,0.496-0.4,0.976-0.66,1.434
		c-1.484,2.786-3.151,5.752-6,7.107c-1.705,0.807-3.677,0.952-5.341,1.837c-3.007,1.6-4.468,5.3-7.521,6.808"/>
	<path fill="#5E5DBB" d="M994.122,399.9l10.796,4.515c0.329,0.138,0.484,0.516,0.347,0.845l-8.731,20.879
		c-0.138,0.33-0.517,0.485-0.846,0.347l-10.796-4.515c-0.329-0.138-0.484-0.517-0.347-0.846l8.732-20.879
		C993.414,399.917,993.793,399.762,994.122,399.9z"/>
	<path fill="#B4B4DB" d="M994.324,401.375l10.046,4.202l-8.237,19.693l-10.046-4.202L994.324,401.375z"/>
	<path fill="#385369" d="M1004.369,444.454c-4.91,0.312-9.773,1.134-14.514,2.451c-10.327,3.1-13.879,7.883-17.447,9.86
		c6.93-8.8,14.656-27.477,14.656-27.477s-9.317-7.653-10.389-5.841c-1.07,1.812-40.169,47.567-38.947,54.979
		c0.5,3.056,5.03,6.074,9.033,5.937c11.088-0.381,23.961-4.414,37.461-8.832c5.935-1.94,7.764,2.244,7.764,2.244"/>
	<path fill="#F2A181" d="M987.858,408.67c0.431,0.408,0.682,0.97,0.7,1.563c0.337,2.2,0.661,4.529-0.19,6.582
		c-0.614,1.311-1.521,2.463-2.649,3.37c-1.23,1.074-2.584,1.999-4.031,2.756"/>
	<path fill="#170D54" d="M1004.61,392.155c-2.614,0.754-3.994,4.126-4.882,6.435c-1.009,2.801-1.664,5.717-1.951,8.68
		c-0.394,2.038-0.247,4.143,0.424,6.107c0.457,0.953,1.029,1.845,1.705,2.657c0.338,0.494,0.752,0.931,1.228,1.294
		c0.488,0.364,1.12,0.472,1.7,0.289c0.814-0.312,1.143-1.269,1.373-2.109c1.5-5.483,3.151-11.03,6.247-15.8"/>
	<path fill="#F2A181" d="M1001.712,409.517c-0.053-1.746-1.89-2.885-3.48-1.076c-1.319,1.494-1.669,4.336-1.743,6.435
		c-0.091,2.515,1.856,3.007,3.461,3.359"/>
	<path fill="#385369" d="M984.262,453.464c3.226-3.7,13.456-9.794,27.133-9.36c9.421,0.3,35.081,1.852,37.947,8.155
		c1.467,3.222,3.04,36.219,0.894,47.594c-1.614,8.555-5.742,29.746-5.742,34.862s2.748,7.308,1.467,8.792
		c-2.872,3.326-22.506,4.723-31.724,4.723c-8.2,0-22.169-2.188-22.877-4.816c-1.05-3.9,1.6-3.756,1.961-7.846
		s1.393-30.638-0.112-34.981c-2.718-7.845-4.037-20.64-6.194-26.44C985.376,469.741,981.04,457.161,984.262,453.464z"/>
	<path fill="#31475A" d="M1043.025,480.157c0.977,2.035,7.617,12.711,7.617,12.711l0.269,1.279c-0.121,1.911-0.347,3.814-0.675,5.7
		c-1.614,8.556-5.742,29.747-5.742,34.863s2.631,7.214,1.467,8.792c-2.263,3.068-39.286,9.967-37.464,1.4
		c0.165-0.774,31.072-24.356,31.237-25.147c1.424-6.767,2.667-11.644,3.291-16.579
		C1044.527,491.303,1042.048,478.122,1043.025,480.157z"/>
	<path fill="#FFBE9D" d="M1003.943,432.3c0,0-0.086,10.733-0.519,11.167c-0.808,0.552-1.663,1.032-2.555,1.436
		c0,0,1.512,9.327,3.849,8.634c2.338-0.693,17.774-8.487,17.774-8.487s-2.19-0.891-2.19-1.756c0-0.865,2.078-17.746,2.078-17.746"/>
	<path fill="#FFBE9D" d="M1014.662,393.314c-2.251,0.614-8.178-0.614-9.814,1.84c-1.636,2.454-3.067,8.383-3.682,10.02
		c-1.22,3.255-2.017,6.737-2.9,10.093c-1.156,4.374-3.062,12.387,1.219,16.046c0.883,0.91,2.044,1.5,3.3,1.677
		c2.027,0.365,4.042,0.781,6.069,1.144c3.141,0.563,6.616,1.22,9.737,0.208c4.166-1.352,6.45-7.082,7.523-10.971l6.133-22.288
		L1014.662,393.314z"/>
	<path fill="#E8E8E8" d="M1003.562,457.724c0,0-0.9,41.88-2.608,67.359l6.161,8.492l4.231-10.637c0.85-21.721-0.49-43.471-4-64.922
		L1003.562,457.724z"/>
	<path fill="#E8E8E8" d="M1002.144,454.045l0.145,0.576c0.274,1.089,0.703,2.133,1.274,3.1l3.78,0.292c0,0,2.568-1.347,2.908-2.794
		c0.34-1.447-4.217-3.816-4.217-3.816l-0.553,0.216c-1.277,0.503-2.408,1.317-3.291,2.367L1002.144,454.045z"/>
	<path fill="#38424D" d="M1020.568,440.684c1.709,1.16,3.174,2.645,4.311,4.369c-1.942,4.445-6.336,12.344-11.174,15.942
		c-1.587-3.864-4.249-7.191-7.67-9.589C1006.034,451.406,1019.215,449.06,1020.568,440.684z"/>
	<path fill="#38424D" d="M1006.034,451.406c-3.22,1.495-5.859,4.004-7.516,7.143c0,0-0.906-7.135,1.02-13.258
		c0,0,3.101-3.961,4.166-4.042C1003.264,446.293,1006.034,451.406,1006.034,451.406L1006.034,451.406z"/>
	<path fill="#F2A181" d="M1006.627,544.907c-4.681,0.705-6.412,2.445-9.051,5.052c-0.246,0.183-0.392,0.472-0.393,0.778
		c0.061,0.373,0.5,0.539,0.873,0.601c2.174,0.351,2.526-1.04,4.56-1.888c1.373-0.574,2.735-1.168,4.1-1.762"/>
	<path fill="#E9E6FF" d="M990.734,510.795l16.589,53.169c0.424,0.959-0.012,2.08-0.972,2.504c-0.247,0.109-0.516,0.164-0.786,0.162
		l-34.614,3.033c-1.339-0.066-2.495-0.957-2.9-2.234l-17.838-52.355c-0.446-1.426,1.614-3.467,3-3.477l34.618-3.033
		C989.169,508.628,990.327,509.518,990.734,510.795L990.734,510.795z"/>
	<path fill="#E0D9FF" d="M989.596,512.183l16.358,52.348c0.427,0.959-0.004,2.082-0.962,2.51c-0.251,0.111-0.522,0.168-0.796,0.164
		l-34.615,3.033c-1.339-0.068-2.495-0.961-2.899-2.238l-16.358-52.346c-0.425-0.959,0.009-2.081,0.968-2.506
		c0.249-0.11,0.519-0.166,0.79-0.162l34.612-3.037C988.032,510.014,989.19,510.905,989.596,512.183L989.596,512.183z"/>
	<path fill="#FFFFFF" d="M961.945,510.485l1.228,4.588l16.189-1.43l-1.331-4.57L961.945,510.485z"/>
	<path fill="#FFFFFF" d="M965.01,506.221c0.336,1.068,1.621,5.191,1.621,5.191l7.729-0.716l-1.621-5.19
		c-0.695-2.236-2.786-3.743-5.128-3.694C965.478,502.009,964.313,503.984,965.01,506.221z M966.724,506.114
		c-0.391-0.899,0.021-1.945,0.921-2.336c0.171-0.074,0.353-0.121,0.538-0.139c1.313-0.025,2.485,0.819,2.877,2.073
		c0.391,0.898-0.021,1.944-0.919,2.335c-0.172,0.074-0.354,0.121-0.54,0.139C968.286,508.216,967.111,507.37,966.724,506.114
		L966.724,506.114z"/>
	<path fill="#FFBE9D" d="M1019.817,541.194c-3.631,0.756-13.309,3.645-14.326,4.123c-2.189,1.334-4.255,2.86-6.171,4.563
		c-3.642,3.654-1.779,5.355-3.215,10.313c-0.065,0.256-0.096,0.52-0.089,0.783c0,0.516,0.699,0.963,1.399,0.48
		c0.381,0.639,1.5,0.244,2.05-0.453c-0.01,0.496,0.684,0.809,1.801,0.191c0.6-0.332,0.494-0.301,1.885-1.543
		c1.178-1.004,2.507-1.814,3.938-2.4c1.323-0.49,2.607-1.076,3.844-1.756c1.47-0.967,4.091-1.201,5.385-5.395
		c0.416-0.889,1.131-1.602,2.02-2.017l5.917-3.71"/>
	<path fill="#385369" d="M1042.133,473.09c1.54,5.491,7.944,43.538,7.944,43.538l-36.078,26.129l3,7.891
		c0,0,43.168-14.492,46.568-24.399c3.399-9.907,3.243-54.662-8.746-70.363c-3.816-5-11.464-7.521-11.464-7.521"/>
	<path fill="none" stroke="#F2A181" stroke-width="0.25" stroke-miterlimit="10" d="M1005.125,554.894
		c-0.883,0.588-1.725,1.236-2.52,1.938c-1.03,1.086-1.801,2.289-2.908,3.588"/>
	<path fill="none" stroke="#F2A181" stroke-width="0.25" stroke-miterlimit="10" d="M1003.139,552.504
		c-1.201,1.013-2.209,2.235-2.975,3.606c-0.708,1.564-1.498,3.09-2.367,4.57"/>
	<path fill="none" stroke="#F2A181" stroke-width="0.25" stroke-miterlimit="10" d="M1000.858,550.571
		c-0.351,0.561-1.835,1.955-2.134,2.541c-0.948,1.855-1.64,3.832-2.056,5.875"/>
	<path fill="#3B2E7A" d="M1028.412,419.507c-1.413-0.827-2.5-1.7-3.418-0.345c-0.487,0.718-0.784,1.71-1.616,1.956
		c-0.889,0.136-1.726-0.457-1.893-1.34c-0.126-0.861-0.019-1.74,0.312-2.545c0.569-1.827,1.136-3.654,1.7-5.483
		c0.556-1.789,1.109-3.755,0.4-5.491c-0.395-0.865-0.987-1.625-1.73-2.218c-2.456-1.893-5.354-3.132-8.419-3.6
		c-3.051-0.464-6.074-1.085-9.061-1.862c-1.254-0.344-2.428-0.934-3.451-1.736c-1.574-1.426-2.464-3.456-2.446-5.58
		c0.035-2.106,0.647-4.163,1.771-5.945c0.22,0.72,0.522,1.412,0.899,2.063c0.371-0.965,0.933-1.846,1.652-2.588
		c0.88,4.91,21.552,3.268,26.38,5.435c3.349,1.5,6.118,2.481,6.017,7.906c0.134,0.343,0.359,0.642,0.653,0.863
		c2.966,2.725,4.253,6.041,4.623,10.961c0.457,6.024-3.05,12.542-6.488,17.508c-0.661,1.162-1.525,2.196-2.553,3.052
		c-1.407,0.951-3.12,1.338-4.8,1.086c-1.489-0.284-4.428-0.157-4.455-1.675c-0.02-1.086,2.3-3.022,2.943-3.9"/>
	<path fill="#FFBE9D" d="M1023,425.196c-0.305,1.001,0.259,2.06,1.26,2.365c0.531,0.162,1.106,0.083,1.574-0.216
		c2.18-0.829,3.752-2.757,4.125-5.059c0.487-2.606-0.913-5.209-3.3-4.532c-1.407,0.542-2.313,1.921-2.25,3.428"/>
	<path fill="#F2A181" d="M1003.952,433.215l6.633,1.22c-1.815,1.695-4.237,2.588-6.719,2.479"/>
	<g transform="translate(455.776 287.871)" opacity="0.3">
		<path fill="#3939D3" d="M27.563,31.656l8.884,4.472l-4.441-10.9"/>
		<path fill="#3939D3" d="M0,17.721c0,9.787,8.405,17.721,18.775,17.721s18.776-7.934,18.776-17.721S29.141,0,18.776,0
			S0,7.934,0,17.721z"/>
		<path fill="#FEFEFE" d="M14.179,11.9v12.666c-0.001,0.733,0.594,1.327,1.326,1.328c0.233,0,0.464-0.062,0.666-0.179l10.969-6.333
			c0.635-0.366,0.854-1.177,0.487-1.812c-0.116-0.203-0.284-0.371-0.487-0.488l-10.969-6.333c-0.636-0.367-1.447-0.149-1.814,0.486
			C14.241,11.437,14.179,11.667,14.179,11.9z"/>
	</g>
	<g opacity="0.3">
		
			<linearGradient id="SVGID_8_" gradientUnits="userSpaceOnUse" x1="436.2769" y1="879.6876" x2="436.2769" y2="878.6876" gradientTransform="matrix(8.884 0 0 -10.9 -2782.4373 10036.4248)">
			<stop  offset="0" style="stop-color:#F94F4F"/>
			<stop  offset="1" style="stop-color:#F66363"/>
		</linearGradient>
		<path fill="url(#SVGID_8_)" d="M1097.872,454.265l-8.884,4.472l4.441-10.9"/>
		
			<linearGradient id="SVGID_9_" gradientUnits="userSpaceOnUse" x1="448.0689" y1="885.1495" x2="448.0689" y2="884.1495" gradientTransform="matrix(37.552 0 0 -35.439 -15719.2207 31791.4199)">
			<stop  offset="0" style="stop-color:#F94F4F"/>
			<stop  offset="1" style="stop-color:#F66363"/>
		</linearGradient>
		<path fill="url(#SVGID_9_)" d="M1125.439,440.329c0,9.786-8.406,17.721-18.776,17.721s-18.775-7.934-18.775-17.721
			c0-9.787,8.405-17.718,18.775-17.718S1125.439,430.543,1125.439,440.329z"/>
		<g>
			<path fill="#FEFEFE" d="M1103.305,448.813c4.094,0.066,8.236,0.119,12-0.127c1.19-0.079,2.221-1.865,0.774-2.428
				c0.634-0.204,1.167-0.641,1.492-1.223c0.259-0.603-0.02-1.301-0.622-1.561c-0.034-0.015-0.068-0.028-0.104-0.039
				c1.422,0.332,1.979-1.794,0.873-2.479c0.604-0.44,1.031-1.083,1.2-1.812c0.141-0.745-0.206-1.497-0.865-1.873
				c-0.466-0.193-0.971-0.276-1.474-0.241c-1.702-0.01-3.402-0.022-5.1-0.036c0.462-2.512,0.6-5.252-0.754-7.46
				c-0.409-0.665-1.5-1.461-2.372-0.949c-0.815,0.48-0.59,1.672-0.549,2.423c0.089,3.269-1.725,6.292-4.65,7.752
				C1103.154,438.76,1103.348,445.418,1103.305,448.813z"/>
			<path fill="#FEFEFE" d="M1095.637,438.76h6.186v10.047h-6.186V438.76z"/>
		</g>
	</g>
	<g opacity="0.3">
		<path fill="#0898E7" d="M813.697,300.484l6.48-7l-8.881,1.74"/>
		<path fill="#0898E7" d="M789.686,302.111c0,7.1,6.1,12.849,13.617,12.849c7.519,0,13.615-5.752,13.615-12.849
			c0-7.097-6.1-12.849-13.615-12.849C795.788,289.262,789.686,295.014,789.686,302.111L789.686,302.111z"/>
		<g>
			<path fill="#FEFEFE" d="M800.692,308.267c2.682,0.046,5.394,0.086,7.86-0.094c0.782-0.056,1.454-1.35,0.508-1.761
				c0.427-0.159,0.776-0.476,0.977-0.885c0.187-0.45-0.024-0.967-0.474-1.157c0.931,0.241,1.3-1.3,0.57-1.8
				c0.404-0.334,0.682-0.797,0.784-1.312c0.1-0.525-0.123-1.06-0.565-1.36c-0.303-0.139-0.636-0.199-0.968-0.173l-3.344-0.028
				c0.439-1.808,0.267-3.711-0.492-5.41c-0.269-0.482-0.983-1.058-1.555-0.688c-0.533,0.348-0.386,1.213-0.358,1.758
				c0.1,2.29-1.069,4.447-3.042,5.615C800.593,300.972,800.719,305.804,800.692,308.267L800.692,308.267z"/>
			<path fill="#FEFEFE" d="M795.668,300.974h4.053v7.285h-4.053V300.974z"/>
		</g>
	</g>
	<g transform="translate(841.305 173.948)" opacity="0.3">
		<path fill="#F94F4F" d="M35.789,32.612c6.89-8.664,5.451-21.272-3.212-28.161C23.914-2.439,11.305-1,4.416,7.663
			c-6.89,8.664-5.451,21.272,3.213,28.161c6.814,5.42,16.35,5.819,23.594,0.988l7.779,4.149L35.789,32.612z"/>
		<path fill="#FFFFFF" d="M11.618,14.605c1.932-1.896,5.033-1.868,6.93,0.063c0.003,0.002,0.005,0.005,0.008,0.008l1.251,1.276
			l1.286-1.266c1.931-1.9,5.036-1.875,6.937,0.055s1.876,5.037-0.055,6.937l0,0l-4.771,4.7l-0.027,0.033
			c-1.937,1.895-5.042,1.862-6.938-0.074l-4.693-4.793c-1.896-1.935-1.865-5.04,0.07-6.936
			C11.617,14.607,11.617,14.606,11.618,14.605z"/>
	</g>
</g>
</svg>
