<?xml version="1.0" encoding="utf-8"?>
<!-- Generator: Adobe Illustrator 16.0.3, SVG Export Plug-In . SVG Version: 6.00 Build 0)  -->
<!DOCTYPE svg PUBLIC "-//W3C//DTD SVG 1.1//EN" "http://www.w3.org/Graphics/SVG/1.1/DTD/svg11.dtd">
<svg version="1.1" id="Capa_1" xmlns="http://www.w3.org/2000/svg" xmlns:xlink="http://www.w3.org/1999/xlink" x="0px" y="0px"
	 width="838.547px" height="504.799px" viewBox="0 0 838.547 504.799" enable-background="new 0 0 838.547 504.799"
	 xml:space="preserve">
<path fill="#F5F5FE" d="M96.849,361.735c0,0,109.089,226.227,465.674,109.396s170.523-336.348,10.101-257.05
	C412.199,293.379,267.6,193.974,267.6,193.974s-97.584-57.189-165.079,24.017C102.521,217.992,53.028,270.919,96.849,361.735
	L96.849,361.735z"/>
<path fill="#F5F5FE" d="M305.949,134.27c0,0-9.548,69.195,120.489,68.646S612.405,105.43,569.15,81.358
	c-37.889-21.083-85.646,14.841-138.556-1.344C362.646,59.226,304.318,92.341,305.949,134.27z"/>
<path fill="#6F7DE0" d="M241.705,70.505H114.089c-2.638,0-4.775-2.138-4.775-4.775c0.001-2.637,2.139-4.773,4.775-4.773h127.616
	c2.637,0,4.774,2.136,4.774,4.773C246.48,68.367,244.342,70.505,241.705,70.505z"/>
<path fill="#4D83F7" d="M829.493,435.643h-38.835c-2.637,0.001-4.774-2.136-4.774-4.772l0,0c0-2.638,2.138-4.775,4.774-4.775l0,0
	h38.835c2.638,0,4.775,2.137,4.776,4.774v0.001C834.269,433.507,832.131,435.644,829.493,435.643
	C829.494,435.643,829.494,435.643,829.493,435.643z"/>
<path fill="#4D83F7" d="M434.683,6.332h11.369c0.939,0,1.701,0.762,1.701,1.701v10.905c0,0.939-0.762,1.701-1.701,1.701h-11.369
	c-0.939,0-1.701-0.762-1.701-1.701V8.033C432.982,7.094,433.743,6.332,434.683,6.332z"/>
<path fill="#4D83F7" d="M75.708,453.298h11.369c0.939,0,1.7,0.762,1.7,1.701v10.905c0,0.939-0.761,1.701-1.7,1.701H75.708
	c-0.939,0-1.701-0.762-1.701-1.701v-10.905C74.007,454.06,74.769,453.298,75.708,453.298z"/>
<g>
	<path fill="none" stroke="#FFFFFF" stroke-width="1.87" stroke-linecap="round" stroke-linejoin="round" d="M837.612,312.851
		c-0.075,5.557-4.642,10.002-10.199,9.926c-5.558-0.074-10.002-4.641-9.927-10.198c0.074-5.505,4.559-9.929,10.064-9.929
		C833.144,302.69,837.648,307.256,837.612,312.851z"/>
	<path fill="none" stroke="#FFFFFF" stroke-width="1.87" stroke-linecap="round" stroke-linejoin="round" d="M21.711,256.782
		c-0.08,5.736-4.796,10.322-10.533,10.242s-10.323-4.795-10.243-10.532c0.079-5.681,4.707-10.244,10.388-10.244
		C17.1,246.288,21.751,251.004,21.711,256.782C21.711,256.782,21.711,256.782,21.711,256.782z"/>
	<path fill="none" stroke="#FFFFFF" stroke-width="1.87" stroke-linecap="round" stroke-linejoin="round" d="M732.557,73.25h53.035"
		/>
	<path fill="none" stroke="#FFFFFF" stroke-width="1.87" stroke-linecap="round" stroke-linejoin="round" d="M38.356,397.403H155.36
		"/>
</g>
<g transform="translate(649.285 160.451)">
	<path fill="#6F7DE0" d="M1.791,0h129.485c0.989,0,1.792,0.802,1.792,1.792V38.05c0,0.99-0.803,1.792-1.792,1.792H1.791
		c-0.989,0-1.792-0.802-1.792-1.792V1.792C-0.001,0.802,0.802,0,1.791,0z"/>
	<path fill="none" stroke="#FFFFFF" stroke-width="0.702" stroke-miterlimit="10" d="M18.2,13.667h89.083"/>
	<path fill="none" stroke="#FFFFFF" stroke-width="0.702" stroke-miterlimit="10" d="M18.2,24.352h31.247"/>
	<path fill="#6F7DE0" d="M14.554,35.502V50.45l18.8-14.948H14.554z"/>
</g>
<path fill="#4D83F7" d="M64.398,128.009h92.913c2.732,0,4.947,2.215,4.947,4.947v87.392c0,2.732-2.215,4.947-4.947,4.947H65.976
	c-3.604,0-6.524-2.921-6.524-6.525l0,0v-85.814C59.451,130.224,61.666,128.009,64.398,128.009z"/>
<path fill="#FFFFFF" d="M134.331,184.606l-6.101-6.1c-0.986-1.145-2.411-1.818-3.922-1.854c-1.486,0.042-2.896,0.669-3.924,1.744
	l-3.486,3.488l-0.653-0.328c-0.374-0.16-0.738-0.341-1.091-0.544c-3.446-2.248-6.502-5.045-9.044-8.282
	c-1.14-1.355-2.093-2.858-2.832-4.468c0.87-0.762,1.635-1.634,2.4-2.4c0.328-0.328,0.654-0.654,0.98-0.982
	c2.226-1.908,2.483-5.26,0.575-7.486c-0.177-0.207-0.369-0.399-0.575-0.576l-3.051-3.052c-0.354-0.338-0.681-0.703-0.979-1.09
	l-2.072-2.07c-1.026-1.074-2.437-1.7-3.922-1.742c-1.492,0.014-2.911,0.644-3.922,1.742l-3.814,3.814
	c-1.427,1.438-2.313,3.324-2.506,5.34c-0.124,2.83,0.359,5.653,1.416,8.28c1.914,5.249,4.798,10.092,8.5,14.276
	c4.788,5.717,10.729,10.358,17.435,13.62c3.067,1.555,6.388,2.551,9.806,2.942h0.764c2.485,0.038,4.867-0.994,6.538-2.834
	l0.108-0.108c0.598-0.708,1.254-1.364,1.962-1.962l1.416-1.416c2.194-2.073,2.292-5.533,0.219-7.727
	C134.484,184.754,134.408,184.679,134.331,184.606L134.331,184.606z M131.825,190.272l-1.309,1.308
	c-0.762,0.652-1.416,1.416-2.18,2.178c-1.013,1.082-2.441,1.677-3.922,1.636h-0.544c-2.978-0.31-5.864-1.199-8.5-2.616
	c-6.246-3.064-11.777-7.408-16.236-12.748c-3.354-3.932-6.041-8.386-7.954-13.187c-1.013-2.101-1.463-4.429-1.308-6.756
	c0.071-1.213,0.62-2.349,1.525-3.16l3.7-3.7c0.391-0.442,0.938-0.716,1.526-0.764c0.594,0.025,1.149,0.303,1.525,0.764l1.962,1.962
	c0.335,0.39,0.699,0.753,1.089,1.088l3.052,3.052c0.421,0.406,0.689,0.945,0.762,1.526c-0.048,0.587-0.321,1.133-0.762,1.524
	c-0.328,0.328-0.654,0.654-0.98,0.982c-0.981,0.98-1.854,1.852-2.726,2.724l-0.104,0.109c-0.784,0.671-1.048,1.77-0.653,2.724v0.11
	c0.924,2.117,2.136,4.097,3.6,5.884c2.778,3.546,6.13,6.603,9.916,9.044c0.448,0.295,0.923,0.55,1.416,0.762
	c0.374,0.16,0.738,0.342,1.09,0.546l0.108,0.108c1.021,0.547,2.283,0.322,3.052-0.544l3.814-3.814
	c0.572-0.813,1.695-1.007,2.508-0.434c0.168,0.119,0.315,0.265,0.434,0.434l6.101,6.1c0.871,0.735,0.98,2.039,0.245,2.91
	C131.997,190.114,131.914,190.197,131.825,190.272L131.825,190.272z"/>
<path fill="#4D83F7" d="M547.063,0h85.277c2.507,0,4.54,2.033,4.54,4.54l0,0v80.21c0,2.507-2.033,4.54-4.54,4.54l0,0h-83.828
	c-3.308,0-5.989-2.682-5.989-5.989c0,0,0,0,0-0.001V4.54C542.523,2.033,544.555,0,547.063,0z"/>
<path fill="#FFFFFF" d="M600.75,37.348c0-6.328-5.13-11.457-11.457-11.457c-6.328,0-11.457,5.129-11.457,11.457
	s5.129,11.457,11.457,11.457l0,0C595.62,48.805,600.75,43.676,600.75,37.348z M580.699,37.348c-0.001-4.746,3.846-8.594,8.592-8.595
	c4.745-0.001,8.594,3.845,8.595,8.591c0.001,4.746-3.846,8.594-8.591,8.595c-0.001,0-0.002,0-0.002,0
	C584.548,45.939,580.7,42.093,580.699,37.348z"/>
<path fill="#FFFFFF" d="M588.14,71.133c0.463,0.638,1.356,0.78,1.994,0.316c0.122-0.088,0.229-0.195,0.316-0.316
	c0.116-0.159,0.662-0.906,1.49-2.083l8.454-13.076c3.928-6.7,7.52-14.069,7.52-18.626c0-10.283-8.335-18.619-18.618-18.619
	c-10.282,0-18.618,8.336-18.618,18.619c0,4.426,3.389,11.506,7.181,18.046l8.8,13.662C587.479,70.231,588.023,70.974,588.14,71.133z
	 M589.296,21.595c8.699,0,15.752,7.052,15.753,15.751c0,0.001,0,0.002,0,0.003c0,6.851-10.472,23.039-15.753,30.487
	c-5.281-7.448-15.753-23.636-15.753-30.487c0-8.699,7.051-15.752,15.75-15.754H589.296z"/>
<path fill="#4C53BB" d="M393.765,504.159c-0.769-2.3-39.7-182.672-51.5-237.319c-2.042-9.534-9.733-16.833-19.362-18.372
	c-28.381-4.54-90.188-11.021-150.849,5.09c-12.431,3.301-26.245,20.965-20.476,42.575l51.712,208.026H393.765z"/>
<path fill="#6F7DE0" d="M403.804,503.018c-0.769-2.3-40.043-184.083-51.843-238.73c-2.042-9.534-9.734-16.833-19.362-18.372
	c-28.381-4.54-90.187-11.019-150.849,5.09c-12.433,3.357-19.912,16.025-16.845,28.533l54.429,223.479H403.804z"/>
<path d="M368.381,185.818c0,0-39.747,3.34-52.072,33.619s0,37.8-18.485,48.983c-18.486,11.183-59.101,41.918-19.387,102.61
	L485.7,351.017c-0.789-0.865,38.717-72.594-30.317-120.889L368.381,185.818z"/>
<g>
	<path fill="#FFC4A7" d="M575.007,279.757l-12.848,39.715l35.553,8.748l11.477-38.486L575.007,279.757z"/>
	<path fill="#FFC4A7" d="M573.041,290.008c0,0,25.349,16.867,32.467,11.954c12.44-8.587,24.673-42.441,24.673-42.441
		s-48.078-22.245-47.667-21.482C582.925,238.8,573.041,290.008,573.041,290.008z"/>
	<path fill="#FFC4A7" d="M573.041,290.008c-5.222-3.866-7.461-14.01-10.25-43.114c-0.425-2.725,1.439-5.278,4.164-5.703
		c0.011-0.002,0.021-0.003,0.031-0.005c1.863-0.218,4.752,0.22,5.936,2.953l10.854,22.1L573.041,290.008z"/>
	<path fill="#FFC4A7" d="M576.213,259.035l11.6-41.736c0.767-2.813,3.646-4.493,6.472-3.776c2.386,0.593,3.884,2.958,3.4,5.368
		l-6.011,31.268L576.213,259.035z"/>
	<path fill="#FFC4A7" d="M594.281,244.646l13.769-29.4c1.17-2.587,4.166-3.8,6.807-2.756c2.215,0.908,3.358,3.368,2.625,5.647
		l-11.129,34.317L594.281,244.646z"/>
	<path fill="#FFC4A7" d="M606.056,254.471l16.8-28.652c1.541-2.658,4.879-3.664,7.632-2.3c2.483,1.303,3.441,4.372,2.139,6.855
		c-0.005,0.008-0.009,0.017-0.014,0.025l-13.709,27.203L606.056,254.471z"/>
	<path fill="#FFC4A7" d="M630.181,259.521l12.807-17.368c1.119-1.984,0.417-4.5-1.567-5.619c-0.013-0.008-0.026-0.015-0.039-0.022
		c-2-1.038-4.455-0.513-5.856,1.251l-16.623,19.84L630.181,259.521z"/>
</g>
<path fill="none" stroke="#E5967A" stroke-width="1.064" stroke-linecap="round" stroke-linejoin="round" d="M578.757,256.022
	c0,0,17.37-0.551,17.466,22.552"/>
<path fill="#4D83F7" d="M444.688,303.437c25.267,15.06,80.025,72.42,80.025,72.42l35.153-77.156l59.144,10.888
	c0,0-39.15,101.614-58.654,133.688c-10.157,16.706-29.507,26.979-52.006,15.184l-63.04-38.441L444.688,303.437z"/>
<path fill="#4D83F7" d="M391.236,288.033c0,0-79.6,5.942-93.717,58.679s-11.884,156.725-11.884,156.725h190.894l-5.942-159.699
	C470.586,343.737,466.38,291.005,391.236,288.033L391.236,288.033z"/>
<path fill="none" stroke="#2A4B84" stroke-miterlimit="10" d="M474.077,437.559l-5.076-71.101"/>
<path fill="#F2F2F2" d="M500.115,503.74l76.99-142.112c1.213-2.239,3.554-3.635,6.1-3.636h181.943c2.856,0,5.172,2.315,5.172,5.172
	c0,0.811-0.19,1.609-0.556,2.333L699.881,503.74H500.115z"/>
<path fill="#FFFFFF" d="M380.426,486.405h143.993v17.335H380.426V486.405z"/>
<path fill="#989898" d="M661.877,433.907c0,8.423-6.827,15.251-15.25,15.252c-8.424,0-15.252-6.827-15.252-15.25
	c-0.001-8.423,6.826-15.252,15.25-15.252c0,0,0.001,0,0.002,0C655.049,418.657,661.876,425.485,661.877,433.907z"/>
<path fill="none" stroke="#0C0B0C" stroke-width="1.277" stroke-linecap="round" stroke-linejoin="round" d="M500.115,503.74
	l76.561-141.318c1.478-2.729,4.333-4.431,7.438-4.43h95.533"/>
<path fill="#4040EB" d="M417.432,211.827c-0.493,14.1,10.688,25.936,28.571,26.561c12.646,0.442,16.737-10.858,17.23-24.958
	c0.493-14.1-9.359-25.892-22.006-26.334C428.58,186.654,417.928,197.726,417.432,211.827L417.432,211.827z"/>
<path fill="#2A3596" d="M423.995,212.056c-0.492,14.1,9.359,25.89,22.009,26.332c12.648,0.442,23.3-10.629,23.794-24.73
	c0.494-14.101-9.359-25.89-22.009-26.332C435.141,186.884,424.49,197.955,423.995,212.056L423.995,212.056z"/>
<path d="M400.26,145.327c2.276-3.988-0.65-11.451-0.65-11.451c-22.476,0-41.87,7.2-53.043,27.731
	c-16.433,30.205-4.5,76.911,34.174,91.122c37.11,13.637,17.346-103.595,17.346-103.595L400.26,145.327z"/>
<path fill="#FFC4A7" d="M421.451,260.181l-2.484,36.395c-0.846,13.722-9.755,20.537-23.26,19.6
	c-11.528-0.8-21.943-7.5-22.576-19.033l3.268-58.621L421.451,260.181z"/>
<path fill="#E5967A" d="M420.093,281.749c0,0-26.707-4.395-43.758-37.3l45.476,11.421L420.093,281.749z"/>
<path fill="#FFC4A7" d="M409.791,264.922c23.073,0.874,41.928-16.535,42.617-35.38l1.361-44.477
	c0.86-23.627-17.177-43.676-40.763-45.311c-17.741-1.234-49.944,25.111-51.007,40.373l-0.7,35.783
	C360.751,243.585,387.194,264.065,409.791,264.922L409.791,264.922z"/>
<path fill="#F7DE9E" d="M399.507,133.929c0.113-0.015,0.212-0.036,0.325-0.051L399.507,133.929z"/>
<path fill="#FFC4A7" d="M339.74,210.817c-0.693,9.901,6.771,18.489,16.672,19.183c9.9,0.693,18.489-6.771,19.183-16.672
	c0.693-9.9-6.771-18.489-16.672-19.183c-0.003,0-0.006,0-0.009,0c-9.897-0.692-18.481,6.771-19.173,16.669
	C339.74,210.815,339.74,210.816,339.74,210.817z"/>
<path fill="none" stroke="#20181F" stroke-width="1.277" stroke-linecap="round" stroke-linejoin="round" d="M363.562,217.827
	c0,0,0.9-12.989-11.666-11.81"/>
<path fill="none" stroke="#0C0B0C" stroke-width="1.277" stroke-linecap="round" stroke-linejoin="round" d="M427.297,222.646
	l1.423,11.742l-6.083,0.224"/>
<path d="M402.1,198.699c0,0,12.115-1.64,11.927,2.709c0,0-0.22,2.948-10.778,4.2c-10.558,1.252-13.242,0.737-14.005-1.973
	C388.482,200.925,396.443,199.082,402.1,198.699z"/>
<path d="M441.094,198.991c0,0-9.601-1.439-10.137,2.608c0,0-0.287,2.743,8.108,3.831c8.396,1.088,11.06,0.256,11.713-1.935
	C451.522,201.006,445.638,199.306,441.094,198.991L441.094,198.991z"/>
<path d="M399.909,216.478c-0.074,2.153,1.61,3.958,3.763,4.033c2.153,0.075,3.958-1.61,4.033-3.763
	c0.074-2.152-1.61-3.958-3.763-4.033c-0.004,0-0.008,0-0.012,0C401.781,212.644,399.981,214.328,399.909,216.478L399.909,216.478z"
	/>
<path d="M435.829,216.478c-0.071,2.149,1.614,3.95,3.764,4.021c2.149,0.071,3.949-1.614,4.021-3.763s-1.613-3.95-3.763-4.021
	c-0.001,0-0.002,0-0.002,0c-2.148-0.071-3.948,1.613-4.02,3.761C435.829,216.477,435.829,216.477,435.829,216.478z"/>
<path fill="#F7F7F7" d="M404.95,241.369h24.934c0,0-1.156,8.6-14.224,7.96C410.744,249.271,406.423,246.06,404.95,241.369
	L404.95,241.369z"/>
<path d="M358.913,194.145c0,0,36.257,12.824,61.757-35.311c0,0,27.739,5.922,33.1,28.58c0,0,14.458-55.373-55.807-55.439
	l-40.293,24.383L358.913,194.145z"/>
<path fill="#FFC4A7" d="M380.638,311.091l33.905,21.538c0,0,3.681-23.629,4.424-35.975L380.638,311.091z"/>
<path fill="#2A3596" d="M428.555,136.738l0.083,2.362c0,0-29.041-2.148-45.161,12.833c-17.967,16.7-22.9,42.7-22.9,42.7
	l-6.257-0.591l7.865-41.22l14.672-10.644l21.813-8.221l14.572-1.915L428.555,136.738z"/>
<path fill="#2A3596" d="M375.021,212.754c0.493,14.1-10.689,25.936-28.571,26.563c-12.646,0.442-16.737-10.86-17.23-24.961
	s9.358-25.89,22.006-26.332C363.871,187.582,374.525,198.653,375.021,212.754z"/>
<ellipse transform="matrix(-0.035 -0.9994 0.9994 -0.035 143.9938 566.5945)" fill="#4C53BB" cx="345.544" cy="213.778" rx="25.537" ry="22.906"/>
<path fill="#4C53BB" d="M345.656,191.41c0.567-10.761,2.911-21.354,6.938-31.35c8.315-20.044,27.69-31.922,49.399-31.954
	c1.657-0.004,3.396,0.035,5.218,0.116c6.261,0.288,12.833,1.651,17.867,5.382c1.267,0.919,2.433,1.969,3.479,3.133
	c0,0-27.891-3.85-43.887,8.551c-18.027,13.973-26.016,35.681-27.778,50.768L345.656,191.41z"/>
<path fill="none" stroke="#0C0B0C" stroke-width="1.277" stroke-linecap="round" stroke-linejoin="round" d="M364.748,231.847
	c5.675,6.31,14.126,9.368,22.524,8.149"/>
<path fill="#0C0B0C" d="M390.765,239.329c0,1.436-1.164,2.6-2.601,2.6c-1.436,0-2.6-1.164-2.6-2.6c0-1.436,1.164-2.6,2.6-2.6
	C389.601,236.729,390.765,237.893,390.765,239.329L390.765,239.329z"/>
<path fill="#FFC4A7" d="M415.135,477.859l-36.876-5.076l1.028,30.942l28.532-0.013L415.135,477.859z"/>
<path fill="#FFC4A7" d="M410.83,477.442c-1.132-0.473,79.278-34.306,73.301,26.228h-80.71L410.83,477.442z"/>
<path fill="#4D83F7" d="M269.276,449.385l118.481,3.566l-2.228,51.208l-123.184-0.758c-14.905-2.001-25.367-15.706-23.367-30.611
	c0.294-2.185,0.851-4.326,1.66-6.376C245.194,454.879,256.966,447.879,269.276,449.385L269.276,449.385z"/>
<path fill="none" stroke="#345DA5" stroke-miterlimit="10" d="M385.57,473.347l2.188-20.399l-68.069-2.24l33.247-67.474"/>
<path fill="none" stroke="#E0225D" stroke-miterlimit="10" d="M285.808,450.275"/>
<path fill="none" stroke="#E0225D" stroke-miterlimit="10" d="M321.806,450.711"/>
<path fill="#4D83F7" d="M361.295,353.474c0,0-30.167,75.908-73.44,137.087c-4.851,6.856-18.344,10.266-26.735,9.9
	c-18.941-0.817-26.968-21.221-19.812-37.825c0,0,34.815-109.418,74.207-145.031C316.507,316.709,361.295,353.474,361.295,353.474
	L361.295,353.474z"/>
<path fill="none" stroke="#0C0B0C" stroke-width="1.277" stroke-linecap="round" stroke-linejoin="round" d="M789.274,504.16
	H141.261"/>
<path fill="none" stroke="#0C0B0C" stroke-width="1.277" stroke-linecap="round" stroke-linejoin="round" d="M103.704,504.16H25.48"
	/>
</svg>
