<?xml version="1.0" encoding="utf-8"?>
<!-- Generator: Adobe Illustrator 16.0.3, SVG Export Plug-In . SVG Version: 6.00 Build 0)  -->
<!DOCTYPE svg PUBLIC "-//W3C//DTD SVG 1.1//EN" "http://www.w3.org/Graphics/SVG/1.1/DTD/svg11.dtd">
<svg version="1.1" id="Capa_1" xmlns="http://www.w3.org/2000/svg" xmlns:xlink="http://www.w3.org/1999/xlink" x="0px" y="0px"
	 width="747.533px" height="613.578px" viewBox="0 0 747.533 613.578" enable-background="new 0 0 747.533 613.578"
	 xml:space="preserve">
<path fill="#4D83F7" d="M677.488,50.067c-1.281-4.957-3.253-9.709-5.856-14.118l5.963-8.967l-8.271-8.271l-8.268-8.27l-8.965,5.961
	c-4.41-2.602-9.164-4.572-14.122-5.853l-2.124-10.547h-23.39l-2.126,10.547c-4.956,1.281-9.709,3.252-14.117,5.855l-8.968-5.961
	l-8.271,8.271l-8.271,8.271l5.964,8.964c-2.603,4.408-4.573,9.161-5.854,14.118l-10.549,2.122v23.394l10.549,2.122
	c1.281,4.957,3.252,9.709,5.854,14.119l-5.963,8.965l8.271,8.271l8.271,8.271l8.968-5.961c4.408,2.603,9.161,4.574,14.117,5.857
	l2.122,10.546h23.393l2.124-10.546c4.956-1.283,9.708-3.255,14.118-5.857l8.965,5.961l8.271-8.271l8.271-8.271l-5.963-8.965
	c2.603-4.409,4.574-9.162,5.856-14.119l10.546-2.122V52.189L677.488,50.067z M624.149,104.872
	c-22.635,0-40.985-18.349-40.986-40.984c0-22.635,18.349-40.985,40.984-40.986s40.985,18.349,40.986,40.984
	C665.133,86.521,646.783,104.871,624.149,104.872z"/>
<path fill="#4D83F7" d="M693.448,149.537c-0.588-2.273-1.491-4.452-2.686-6.473l2.733-4.111l-3.792-3.792l-3.791-3.791l-4.109,2.734
	c-2.021-1.193-4.199-2.097-6.471-2.686l-0.975-4.835H663.63l-0.975,4.835c-2.271,0.588-4.45,1.493-6.471,2.686l-4.111-2.734
	l-3.792,3.791l-3.791,3.792l2.734,4.111c-1.193,2.021-2.097,4.2-2.684,6.473l-4.836,0.973v10.72l4.836,0.974
	c0.587,2.272,1.49,4.45,2.684,6.471l-2.734,4.111l3.791,3.791l3.792,3.792l4.111-2.732c2.021,1.193,4.199,2.096,6.471,2.684
	l0.975,4.835h10.724l0.974-4.835c2.272-0.588,4.45-1.491,6.472-2.684l4.109,2.732l3.791-3.792l3.792-3.791l-2.733-4.111
	c1.193-2.021,2.098-4.199,2.686-6.471l4.834-0.974v-10.72L693.448,149.537z M668.993,174.661c-10.377,0-18.788-8.413-18.788-18.79
	c0.001-10.377,8.414-18.789,18.79-18.788s18.788,8.412,18.788,18.788c0.001,10.376-8.409,18.789-18.786,18.79
	c-0.002,0-0.004,0-0.007,0H668.993z"/>
<path fill="#AEBECC" d="M411.115,522.177h-57.54v-174.77h57.54V522.177z"/>
<path fill="#ECECEC" d="M615.521,431.595h-466.35c-8.424,0-15.253-6.83-15.253-15.254v-320c0-8.424,6.829-15.253,15.253-15.253
	h466.35c8.424,0,15.253,6.829,15.253,15.253v320C630.774,424.765,623.945,431.595,615.521,431.595z"/>
<path fill="#FFFFFF" d="M611.314,376.669H153.375V43.783h457.938V376.669z"/>
<path fill="#4D83F7" d="M611.314,83.99H153.375V43.783h457.938V83.99z"/>
<path fill="#757575" d="M366.319,401.8c-0.003,8.852,7.17,16.029,16.021,16.031c8.851,0.004,16.028-7.17,16.03-16.021
	c0.003-8.851-7.17-16.028-16.021-16.031c-0.002,0-0.004,0-0.005,0C373.495,385.78,366.322,392.953,366.319,401.8z"/>
<g>
	<path fill="#DFE1E8" d="M446.777,124.5H292.837c-1.935,0-3.502-1.568-3.502-3.502v-4.91c0-1.934,1.567-3.502,3.502-3.502h153.939
		c1.935,0,3.502,1.568,3.502,3.502v4.91C450.279,122.932,448.711,124.5,446.777,124.5z"/>
	<path fill="#DFE1E8" d="M446.777,145.988H292.837c-1.935,0-3.502-1.568-3.502-3.502v-4.911c0-1.934,1.567-3.502,3.502-3.502
		h153.939c1.935,0,3.502,1.568,3.502,3.502v4.911C450.279,144.42,448.711,145.988,446.777,145.988z"/>
	<path fill="#DFE1E8" d="M446.779,167.476H292.839c-1.934,0-3.5-1.567-3.5-3.5l0,0v-4.912c0-1.933,1.566-3.5,3.5-3.5h153.939
		c1.934,0,3.5,1.567,3.5,3.5v4.912C450.279,165.909,448.712,167.476,446.779,167.476z"/>
	<path fill="#DFE1E8" d="M372.195,353.246H200.536c-14.331-0.016-25.943-11.629-25.959-25.959V222.868
		c0.017-14.33,11.629-25.942,25.959-25.959h171.658c14.33,0.017,25.942,11.629,25.959,25.959v104.418
		C398.138,341.617,386.526,353.23,372.195,353.246z M200.536,200.163c-12.53,0.017-22.684,10.17-22.7,22.7v104.424
		c0.014,12.531,10.168,22.688,22.7,22.705h171.658c12.532-0.018,22.686-10.174,22.7-22.705V222.868
		c-0.018-12.53-10.17-22.683-22.7-22.7L200.536,200.163z"/>
	<path fill="#DFE1E8" d="M363.16,236.262H209.569c-3.821,0-6.92-3.098-6.92-6.92v-11.27c0-3.822,3.099-6.92,6.92-6.92h153.593
		c3.821,0,6.919,3.098,6.919,6.919l0,0v11.271C370.08,233.164,366.983,236.262,363.16,236.262L363.16,236.262z"/>
</g>
<path fill="#ECECEC" d="M252.914,515.58h258.862v13.193H252.914V515.58z"/>
<path fill="#EEF0F7" d="M559.815,231.218c0.001,16.056-10.281,30.308-25.518,35.371c-0.225,0.076-0.449,0.149-0.675,0.217
	c-19.651,6.117-40.541-4.856-46.658-24.508c-6.116-19.652,4.856-40.542,24.509-46.659c19.652-6.116,40.542,4.856,46.658,24.508
	C559.246,223.732,559.815,227.464,559.815,231.218L559.815,231.218z"/>
<path fill="#3C4145" d="M513.654,227.283c0,0-2.547-16.464,11.091-16.16c13.639,0.304,13.453,8.445,13.211,16.527
	c-0.241,8.082-5.468,7.472,0.425,18.712c5.892,11.24-5.101,11.24-5.101,11.24l-8.533-11.725L513.654,227.283z"/>
<path fill="#EEA886" d="M523.252,212.703c0,0-9.235,1.458-9.601,14.58c-0.365,13.122,2.488,15.919,10.57,13.185
	c8.082-2.734,10.632-16.465,10.815-18.591C535.222,219.751,535.707,211.123,523.252,212.703z"/>
<path fill="#E55353" d="M539.472,258.348c0.024,3.932-2.076,6.561-5.174,8.241c-0.225,0.076-0.449,0.149-0.675,0.217
	c-9.152,2.833-19.043,2.045-27.632-2.2c-1.123-2.24,0.5-5.421,3.808-10.3c2.27-3.357,4.495-6.783,8.3-8.448
	c5.618-0.895,11.563-0.948,15.751,1.418C537.19,249.16,539.413,252.586,539.472,258.348z"/>
<path fill="#E55353" d="M511.609,254.101l-4.246,6.692c0.01-0.036,0.292-1.049,0.771-3.985c0.093-0.557,0.189-1.183,0.295-1.884
	c0.031-0.208,0.076-0.415,0.134-0.618c1.817-4.19,7.485-7.307,7.691-7.411L511.609,254.101z"/>
<path fill="#EEA886" d="M541.362,263.391c-2.236,1.311-4.604,2.383-7.064,3.2c-0.225,0.076-0.449,0.149-0.675,0.217
	c-0.94-2.431-1.76-4.535-1.937-5.078c-0.051-0.159-0.172-0.454-0.338-0.853c-0.766-1.861-2.48-6-2.5-9.235
	c-0.012-2.088,0.678-3.8,2.777-4.284c0.729-0.18,1.486-0.209,2.228-0.085c2.344,0.426,3.713,2.532,4.477,4.4
	c0.014,0.031,0.025,0.063,0.036,0.093c0.384,0.959,0.664,1.958,0.835,2.977c0,0,0.038,0.147,0.101,0.411
	c0.133,0.52,0.384,1.509,0.712,2.8C540.389,259.443,540.859,261.335,541.362,263.391z"/>
<path fill="#EEA886" d="M529.424,234.558c-0.801,1.511-1.647,10.893-1.647,10.893s-11.294,4.27-10.138,1.856
	c0.486-1.187,0.721-2.462,0.688-3.744c0.007-0.762-0.036-1.523-0.126-2.28c-0.029-0.247-0.053-0.389-0.053-0.389
	S530.224,233.046,529.424,234.558L529.424,234.558z"/>
<path fill="#3C4145" d="M519.486,222.121c0,0,4.738,7.716,9.053,10.754c4.315,3.038,2.126,5.467,2.126,5.467
	s11.256-23.7,0.556-25.336c-10.7-1.636-17.263-1.763-17.565,14.277C513.654,227.284,518.513,221.999,519.486,222.121z"/>
<path fill="#A77860" d="M524.638,240.317c-1.733,2.556-6.314,3.246-6.314,3.246c0.006-0.762-0.036-1.523-0.126-2.28
	C521.14,241.85,524.638,240.317,524.638,240.317z"/>
<path fill="#BD4444" d="M508.581,254.258c-0.263,0.826-0.413,1.685-0.446,2.551l1.665-2.51c0,0,2.971-4.26,3.989-5.368
	c0.757-0.778,1.592-1.475,2.492-2.079C516.281,246.852,510.358,249.662,508.581,254.258z"/>
<path fill="#E55353" d="M531.057,260.607c0,0,7.248-2.843,9.394-3.009c0,0-1.458-11.641-8.579-10.406
	S531.057,260.607,531.057,260.607L531.057,260.607z"/>
<path fill="#EEA886" d="M518.098,245.853c0,0-5.322,8.183-3.521,8.9c1.802,0.717,11.555-0.954,15.7-8.726
	C530.281,246.025,524.08,242.846,518.098,245.853z"/>
<path fill="#EEF0F7" d="M573.577,122.507c0,26.777-21.708,48.484-48.484,48.483c-26.777-0.001-48.483-21.708-48.483-48.485
	c0.001-26.776,21.708-48.483,48.484-48.483S573.577,95.729,573.577,122.507C573.577,122.506,573.577,122.507,573.577,122.507z"/>
<path fill="#D9C7C1" d="M556.676,149.26l-3.575,12.83c-6.527,4.632-14.105,7.565-22.05,8.537c-1.436,0.177-2.892,0.288-4.361,0.336
	c-0.53,0.018-1.06,0.025-1.592,0.025c-1.568,0-3.119-0.073-4.651-0.219c-9.044-0.864-17.661-4.258-24.864-9.795
	c-0.686-4.243-1.422-8.938-2.068-13.329c3.563-1.327,14.899-5.184,22.063-7.6c0.101-0.035,0.2-0.066,0.3-0.1
	c0.157-0.055,0.313-0.108,0.468-0.157l1.213-0.411c0.393-0.133,0.765-0.257,1.113-0.378c1.468-0.492,2.5-0.84,2.869-0.964
	l0.147-0.05h0.083l9.626,0.721l1.614,0.119l0.5,0.038l0.22,0.055c0.578,0.147,2.267,0.59,4.5,1.272h0.01
	C543.945,141.937,553.195,145.248,556.676,149.26L556.676,149.26z"/>
<g>
	<path fill="#EEA987" d="M527.618,98.433c0,0,11.545,1.948,9.585,20.019c-1.96,18.071-12.146,16.479-12.826,16.452
		c-0.682-0.027-10.249,0.219-10.755-21.878C513.621,113.026,513.475,96.69,527.618,98.433z"/>
	<path fill="#EEA987" d="M532.677,129.665c0,0-0.4,7.437,0.3,9.056c0.7,1.619-9.268,6.741-15.465,0.906c0,0,1.253-8.128,0.863-11
		C517.985,125.755,532.677,129.665,532.677,129.665z"/>
	<path fill="#EEA987" d="M537.438,113.343c0,0,1.281-1.339,1.731,0.035c0.449,1.374-2.047,7.466-1.891,7.742
		c0,0-0.237,0.529-0.538,0.232S537.438,113.343,537.438,113.343z"/>
	<path fill="#EEA987" d="M513.754,112.856c0,0-1.225-1.39-1.73-0.035c-0.506,1.354,1.34,7.436,1.569,7.812
		c0,0,0.399,0.625,0.711,0.341C514.615,120.69,513.754,112.856,513.754,112.856z"/>
</g>
<path fill="#E8734D" d="M538.178,111.807c-0.4,2.472-0.774,4.311-0.774,4.311l-1.68,2.194c0.066-1.873,0.014-3.747-0.157-5.613
	c-0.1-0.288-0.212-0.8-0.328-1.355c-0.193-0.913-0.391-1.945-0.526-2.288c-0.216-0.55-9.894-3.375-18.512,0.591
	c0,0,0.073,0.747,0.068,1.581c0,0.968-0.111,2.051-0.553,2.215c-0.827,0.3-0.482,5.678-0.482,5.678l-1.344-1.551
	c0,0-0.388-2.808-0.771-6.036l-0.005-0.023c-0.085-0.752-0.174-1.526-0.258-2.295c-0.192-3.246,0.129-9.141,4.356-12.6
	c2.853-1.221,7.407-2.258,15,0.065c0.776,0.028,1.538,0.228,2.228,0.587C539.166,102.468,538.178,111.807,538.178,111.807
	L538.178,111.807z"/>
<path fill="#C78D71" d="M519.172,132.487c0,0,1.842,2.558,6.124,2.462c4.281-0.096,6.138-2.328,6.138-2.328s-2.028,4.238-6.16,4.192
	S519.172,132.487,519.172,132.487z"/>
<path fill="#EEA987" d="M516.344,139.784c0,0,3.093,5.385,8.963,5.893c3.723,0.321,6.945-4.4,8.456-6.715
	C528.081,136.889,521.805,137.185,516.344,139.784z"/>
<path fill="#EDDAD3" d="M532.69,137.262c-2.12,2.499-4.611,4.657-7.386,6.4l3.125,4.818l5.332-9.515L532.69,137.262z"/>
<path fill="#EDDAD3" d="M517.75,137.98c2.065,2.431,4.646,4.371,7.554,5.679l-3.434,4.962l-6-8.68L517.75,137.98z"/>
<path fill="#5073AB" d="M525.307,143.659l2.679,4.077c-1.705,0.909-3.759,0.871-5.429-0.1L525.307,143.659z"/>
<path fill="#323657" d="M559.775,148.502c-0.461,1.657-1.151,4.067-2.972,10.688c-0.555,0.48-1.123,0.953-1.7,1.4
	c-0.651,0.515-1.319,1.012-2,1.5c-6.527,4.631-14.105,7.565-22.05,8.537c0.717-16.783,2.711-31.666,2.711-31.666
	c1.572,0.413,3.063,0.822,4.472,1.229h0.01c12.301,3.531,18.543,6.631,20.671,7.805c0.017,0.008,0.031,0.018,0.046,0.026
	C559.514,148.337,559.775,148.502,559.775,148.502z"/>
<path fill="#323657" d="M515.402,170.019c-9.376-1.916-17.976-6.564-24.715-13.358c-0.3-0.3-0.591-0.6-0.88-0.913
	c-0.851-3.6-1.415-5.956-1.45-6.109v-0.008c0,0,6-3.942,27.221-9.6v0.012C515.576,140.528,515.589,154.142,515.402,170.019z"/>
<path fill="#5073AB" d="M526.838,148.184c-0.2,4.42-0.218,13-0.149,22.781c-0.53,0.018-1.06,0.025-1.592,0.025
	c-1.569,0-3.119-0.073-4.651-0.219c0.494-7.604,1.571-15.16,3.221-22.6c0.235-0.977,0.379-1.465,0.379-1.465l2.846,0.469
	C526.87,147.483,526.853,147.819,526.838,148.184z"/>
<path fill="#323657" d="M562.218,153.698c-1.659,1.97-3.471,3.807-5.418,5.492c-0.556,0.48-1.123,0.953-1.7,1.4l4.676-12.093
	C560.907,149.463,561.829,152.752,562.218,153.698L562.218,153.698z"/>
<path fill="#323657" d="M490.687,156.668c-0.3-0.3-0.591-0.6-0.88-0.913c-1.086-1.147-2.113-2.349-3.078-3.6
	c0.305-0.971,0.866-1.84,1.627-2.515v0.008L490.687,156.668z"/>
<path fill="#F5F7FF" d="M175.799,56.29h58.722c1.82,0,3.296,1.476,3.296,3.296v8.601c0,1.82-1.476,3.296-3.296,3.296h-58.722
	c-1.82,0-3.296-1.476-3.296-3.296v-8.601C172.503,57.766,173.979,56.29,175.799,56.29z"/>
<circle fill="#EEF0F7" cx="522.553" cy="320.013" r="37.26"/>
<path fill="#949494" d="M522.553,334.871c-1.036,0-1.876-0.84-1.877-1.877v-25.958c0-1.037,0.84-1.876,1.876-1.876
	s1.877,0.84,1.877,1.876l0,0v25.958C524.429,334.031,523.59,334.871,522.553,334.871
	C522.553,334.871,522.553,334.871,522.553,334.871z"/>
<path fill="#949494" d="M535.532,321.891h-25.959c-1.036-0.001-1.876-0.843-1.875-1.879c0.001-1.035,0.84-1.874,1.875-1.875h25.959
	c1.037,0.001,1.876,0.843,1.875,1.879C537.406,321.051,536.568,321.89,535.532,321.891z"/>
<path fill="#4D83F7" d="M419.745,198.536h26.119c2.438,0,4.413,1.976,4.413,4.413v26.121c0,2.438-1.976,4.413-4.413,4.413h-26.119
	c-2.438,0-4.414-1.976-4.414-4.414V202.95C415.331,200.512,417.308,198.536,419.745,198.536z"/>
<path fill="#F3F3F3" d="M431.698,223.707l-8.834-7.7c-0.724-0.632-0.799-1.731-0.167-2.455c0.632-0.725,1.73-0.8,2.455-0.168
	l6.246,5.446l8.909-9.937c0.621-0.734,1.72-0.826,2.453-0.204c0.734,0.621,0.826,1.72,0.205,2.454
	c-0.022,0.025-0.044,0.05-0.067,0.074L431.698,223.707z"/>
<path fill="#4D83F7" d="M419.745,243.319h26.12c2.438,0,4.413,1.976,4.413,4.413v26.12c0,2.438-1.976,4.414-4.414,4.414l0,0h-26.119
	c-2.438,0-4.414-1.977-4.414-4.414v-26.119C415.331,245.295,417.308,243.319,419.745,243.319z"/>
<path fill="#F3F3F3" d="M431.698,268.49l-8.834-7.7c-0.724-0.632-0.799-1.731-0.167-2.456s1.73-0.799,2.455-0.167l6.246,5.446
	l8.909-9.937c0.621-0.734,1.72-0.825,2.453-0.204c0.734,0.621,0.826,1.72,0.205,2.454c-0.022,0.026-0.044,0.05-0.067,0.075
	L431.698,268.49z"/>
<path fill="#4D83F7" d="M419.745,288.103h26.119c2.438,0,4.413,1.976,4.413,4.413v26.12c0,2.438-1.976,4.414-4.414,4.414l0,0
	h-26.118c-2.438,0-4.414-1.977-4.414-4.414c0,0,0-0.001,0-0.002v-26.117C415.331,290.079,417.308,288.103,419.745,288.103z"/>
<path fill="#131C24" d="M274.717,539.558c-0.863,1.984-1.963,3.857-3.275,5.578c-1.5,1.584-7.236,4.414-7.268,9.117
	c-0.033,5.1,9.672,3.686,13.468,3.5s4.084-2.91,5.681-5.801c1.598-2.891,3.212-2.4,3.51-4.727s-1.224-7.543-1.224-7.543
	L274.717,539.558z"/>
<path fill="#4F4946" d="M274.551,538.083l-0.278,2.418c0,0,5.972,2,11.614,0.209l-0.315-3.305L274.551,538.083z"/>
<path fill="#131C24" d="M344.701,539.558c0.862,1.984,1.962,3.857,3.274,5.578c1.5,1.584,7.238,4.414,7.268,9.117
	c0.035,5.1-9.672,3.686-13.468,3.5s-4.084-2.91-5.68-5.801s-3.211-2.4-3.511-4.727c-0.301-2.326,1.224-7.543,1.224-7.543
	L344.701,539.558z"/>
<path fill="#4F4946" d="M344.867,538.083l0.278,2.418c0,0-5.971,2-11.614,0.209l0.313-3.305L344.867,538.083z"/>
<path fill="#293E4F" d="M341.727,473.716c0,6.289,5.872,63.689,5.872,63.689c-0.674,2.1-15.083,1.84-17.33,0.795
	s-8.781-57.936-9.2-64.275c-0.419-6.338-9.8-61.475-11.767-61.264c-1.967,0.209-11.309,59.293-12.885,64.115
	c-1.576,4.82-8.71,61.971-8.71,61.971c-4.944,2.721-16.7-0.688-16.7-0.688s2.465-58.676,2.747-60.447
	c0.418-2.623-0.021-9.688,1.123-25.371c1.023-14.027,4.72-44.57,7.063-61.111c0.085-0.588,0.164-1.152,0.242-1.694
	c0.459-3.22,0.8-5.585,0.968-6.718c0.071-0.49,0.111-0.752,0.111-0.752c0.631-0.271,1.292-0.522,1.98-0.752
	c16.461-5.514,47.8-5.164,47.8-5.164s0.432,5.632,0.467,5.906c0.041,0.332,0.107,0.854,0.191,1.528
	c0.185,1.458,0.457,3.63,0.771,6.151c0,0.018,0,0.035,0.005,0.054l0.03,0.229c1.106,8.973,2.672,22.101,2.524,23.471
	C336.807,415.486,341.727,467.429,341.727,473.716L341.727,473.716z"/>
<path fill="#D9C7C1" d="M344.072,287.763l-8.087,29.016c-0.278,0.941-0.607,2.1-0.959,3.444l-0.015,0.051
	c-0.005,0.012-0.008,0.024-0.011,0.036c-1.875,7.141-3.053,14.447-3.517,21.814c-0.336,5.972,0.771,29.977,0.771,29.977
	s-12.237,4.568-30.551,3.41c0,0-19.699-0.461-18.091-12.537c4.248-31.965,0.094-45.145-0.464-48.354c0,0-2.328-14.728-4.241-27.736
	c5.545-2.063,28.875-10.822,28.875-10.822l12.266,0.918C320.048,276.981,338.688,281.571,344.072,287.763L344.072,287.763z"/>
<path fill="#EEA987" d="M313.937,235.048c0,0,11.97,2.02,9.941,20.763c-2.029,18.743-12.601,17.09-13.308,17.063
	s-10.628,0.225-11.151-22.691C299.418,250.182,299.266,233.238,313.937,235.048z"/>
<path fill="#EEA987" d="M319.181,267.438c0,0-0.413,7.716,0.315,9.394c0.729,1.678-9.613,6.99-16.041,0.939
	c0,0,1.301-8.431,0.9-11.409S319.181,267.438,319.181,267.438z"/>
<path fill="#EEA987" d="M324.119,250.511c0,0,1.329-1.388,1.794,0.036c0.466,1.424-2.12,7.744-1.96,8.031
	c0,0-0.244,0.548-0.557,0.242C323.085,258.514,324.119,250.511,324.119,250.511z"/>
<path fill="#EEA987" d="M299.558,250.006c0,0-1.271-1.441-1.794-0.036c-0.523,1.405,1.39,7.714,1.629,8.1
	c0,0,0.411,0.648,0.737,0.353C300.455,258.128,299.558,250.006,299.558,250.006z"/>
<path fill="#E8734D" d="M324.885,248.919c-0.413,2.565-0.8,4.47-0.8,4.47l-1.743,2.276c0.067-1.942,0.013-3.887-0.164-5.822
	c-0.101-0.3-0.221-0.83-0.341-1.4c-0.2-0.948-0.4-2.018-0.546-2.376c-0.225-0.568-10.261-3.5-19.199,0.616
	c0,0,0.075,0.774,0.069,1.637c0,1-0.112,2.129-0.572,2.3c-0.857,0.312-0.5,5.888-0.5,5.888l-1.394-1.609c0,0-0.399-2.913-0.8-6.259
	v-0.023c-0.089-0.782-0.182-1.586-0.271-2.381c-0.199-3.367,0.135-9.48,4.519-13.072c2.959-1.266,11.043-2.542,15.557,0.068
	c1.008,0.613,1.983,1.277,2.923,1.99C326.523,240.614,324.885,248.919,324.885,248.919z"/>
<path fill="#C78D71" d="M305.175,270.367c0,0,1.91,2.654,6.35,2.553c4.44-0.101,6.365-2.414,6.365-2.414s-2.101,4.4-6.387,4.349
	C307.216,274.804,305.175,270.367,305.175,270.367z"/>
<path fill="#EEA987" d="M302.236,277.935c0,0,3.209,5.585,9.3,6.112c3.862,0.333,7.175-4.573,8.743-6.975
	C314.393,274.926,307.891,275.237,302.236,277.935z"/>
<path fill="#EDDAD3" d="M319.194,275.317c-2.199,2.591-4.783,4.83-7.661,6.637l3.242,5l5.529-9.9L319.194,275.317z"/>
<path fill="#EDDAD3" d="M303.7,276.064c2.142,2.521,4.816,4.533,7.832,5.89l-3.559,5.146l-6.183-8.788L303.7,276.064z"/>
<path fill="#5073AB" d="M311.531,281.954l2.779,4.228c-1.768,0.945-3.897,0.907-5.63-0.1L311.531,281.954z"/>
<path fill="#1A2833" d="M282.943,377.686c0,0,15.021,5.542,48.993,0.323l-0.452-6.152c0,0-19.69,5.809-47.94,0.833L282.943,377.686z
	"/>
<path fill="#385369" d="M320.303,277.047c0,0-3.512,26.275-3.03,48.91c0.482,22.633,7.832,65.073,7.832,65.073
	s13.1-1.284,16.353-5.378c0,0-7.517-40.847-7.3-46.9c0.218-6.053,9.635-51.581,9.635-51.581S340.11,282.259,320.303,277.047z"/>
<path fill="#385369" d="M301.506,278.422c0,0-0.033,24.9-0.515,47.535c-0.48,22.635-3.464,64.766-3.464,64.766
	s-15.367-2.189-18.62-6.283c0,0,5.418-39.634,5.199-45.688c-0.218-6.055-6.948-51.135-6.948-51.135S279.493,284.293,301.506,278.422
	L301.506,278.422z"/>
<path fill="#3E5E78" d="M303.429,373.75h9.229v6.862h-9.229V373.75z"/>
<path fill="#5073AB" d="M310.224,285.114c0,0-4.122,14.07-4.483,42.012c-0.36,27.943,0.507,35.957,0.507,35.957l3.218,6.369
	l4.289-6.645c0,0-1.375-64.3-0.578-77.205L310.224,285.114z"/>
<path fill="#EEA886" d="M327.438,324.438c0,0,6.1-3.067,6.947-3.61c0.847-0.541,11.038-2.049,12.321-2.008
	c1.284,0.041,1.341,1.064,0.979,1.428c-0.362,0.364-10.549,2.037-10.724,2.28c-0.176,0.244,0.861,0.154,0.861,0.154
	s10.98-0.169,11.745,0.567c0.765,0.735-0.113,1.432-0.557,1.615c0,0,1,1.147-0.156,1.619c-0.883,0.333-1.792,0.592-2.717,0.775
	c0,0,1.451,0.746,0.5,1.412s-12.588,4.271-12.588,4.271S329.719,324.673,327.438,324.438L327.438,324.438z"/>
<path fill="#385369" d="M348.401,345.466c-7.929,1.895-26.257-1.18-33.24-2.719c-1.48-0.326-3.15-0.668-4.871-1.006
	c-2.855-0.56-5.837-1.107-8.258-1.537c-2.98-0.535-5.109-0.891-5.109-0.891s38.466-8.643,39.886-8.643s-3.551-22.485-3.551-22.485
	s-4.954-18.833-2.382-26.234c0,0,9.76,2.959,12.918,5.216c1.763,1.258,3.058,9.426,4.258,14.981
	c1.522,7.038,5.058,23.069,5.459,26.452C353.874,331.686,356.332,343.576,348.401,345.466L348.401,345.466z"/>
<path fill="#385369" d="M289.545,282.045c0,0-11.815,4.036-12.381,5.57c-2.39,6.491-3.5,13.586-4.273,16.429
	c-0.943,3.474-3.08,13.866-3.632,17.254c-0.7,4.32-2.048,19.627-1.46,21.988c0.739,2.981,7.764,2.765,11.553,2.174
	c3.789-0.59,56.414-13.399,56.414-13.399s-3-9.79-3.153-10.657c0,0-40.567,4.637-45.735,5.739c-1.212,0.225-2.41,0.515-3.59,0.87
	C283.287,328.013,292.234,291.293,289.545,282.045L289.545,282.045z"/>
<path fill="#EEA886" d="M296.534,325.873c0,0-5.301-4.312-6.007-5.022s-10.338-4.377-11.6-4.614
	c-0.554-0.195-1.161,0.094-1.356,0.647c-0.071,0.2-0.081,0.419-0.026,0.624c0.167,0.882,9.981,4.17,10.1,4.447
	s-0.873-0.035-0.873-0.035s-10.686-2.529-11.594-1.977s-0.2,1.42,0.2,1.7c0,0-1.224,0.907-0.2,1.616
	c0.79,0.516,1.621,0.963,2.485,1.341c0,0-1.577,0.419-0.789,1.274c0.788,0.854,6.412,2.142,6.412,2.142
	S294.255,325.607,296.534,325.873z"/>
<path fill="#263947" d="M328.134,333.916l-17.85,7.828c-2.855-0.561-5.837-1.109-8.258-1.539L328.134,333.916z"/>
<path fill="#E8734D" d="M319.532,234.912c0,0,2.97-1.5,4.574,0.464c1.605,1.964,1.779,12.63-0.181,16.724
	C321.966,256.194,324.238,237.558,319.532,234.912z"/>
<path fill="#706865" d="M201.152,340.662h5.313V582.13h-5.313V340.662z"/>
<path fill="#BDAFAA" d="M64.701,239.781h155.552c5.315,0,9.624,4.309,9.624,9.624v283.247c0,5.314-4.309,9.623-9.624,9.623H64.702
	c-5.316,0-9.625-4.309-9.625-9.625V249.405C55.077,244.09,59.386,239.781,64.701,239.781z"/>
<path fill="#FFFFFF" d="M69.383,244.653h146.188c5.252,0,9.51,4.257,9.51,9.509v266.785c0,5.252-4.258,9.51-9.51,9.51H69.383
	c-5.252,0-9.509-4.258-9.509-9.51V254.162C59.874,248.91,64.131,244.653,69.383,244.653z"/>
<path fill="#706865" d="M116.433,237.488h52.088v11.763h-52.088V237.488z"/>
<path fill="#FFE5E5" d="M193.277,519.033H87.532c-8.577-0.008-15.528-6.959-15.538-15.535v-60.199
	c0.009-8.576,6.959-15.527,15.535-15.537h105.747c8.577,0.01,15.527,6.961,15.536,15.537v60.199
	C208.803,512.074,201.853,519.023,193.277,519.033z M87.532,429.765c-7.474,0.008-13.529,6.063-13.538,13.535V503.5
	c0.013,7.471,6.068,13.52,13.538,13.527h105.744c7.471-0.01,13.525-6.063,13.534-13.533v-60.201
	c-0.009-7.471-6.063-13.523-13.534-13.533L87.532,429.765z"/>
<path fill="#323657" d="M98.399,373.425c-0.008-0.002-0.017-0.002-0.024,0C98.477,373.468,98.492,373.474,98.399,373.425z"/>
<path fill="#FFE5E5" d="M190.234,366.921C180.716,366.922,173,359.208,173,349.69c-0.001-9.518,7.714-17.233,17.231-17.233
	c9.518-0.001,17.233,7.714,17.234,17.231l0,0C207.455,359.201,199.747,366.91,190.234,366.921z M190.234,334.457
	c-8.411,0-15.231,6.817-15.232,15.229c-0.001,8.411,6.817,15.231,15.229,15.233c8.412,0,15.232-6.818,15.233-15.229
	c0-0.001,0-0.001,0-0.002C205.454,341.281,198.642,334.466,190.234,334.457z"/>
<path fill="#FFE5E5" d="M190.234,406.63c-9.518,0.001-17.233-7.714-17.233-17.231c-0.001-9.518,7.714-17.233,17.231-17.233
	c9.518-0.001,17.233,7.714,17.234,17.231c0,0.001,0,0.001,0,0.002C207.454,398.912,199.746,406.619,190.234,406.63z
	 M190.234,374.167c-8.411,0-15.23,6.818-15.23,15.229c-0.001,8.411,6.817,15.23,15.229,15.231c8.411,0,15.23-6.818,15.231-15.229
	C205.454,380.992,198.642,374.177,190.234,374.167z"/>
<path fill="#FFE5E5" d="M112.563,350.457c-1.422,0-2.86-0.07-4.278-0.201c-10.37-0.996-20.063-5.591-27.4-12.985
	c-0.29-0.292-0.563-0.577-0.815-0.843c-0.986-1.045-1.941-2.162-2.831-3.313c-6.068-7.801-9.348-17.41-9.314-27.293
	c0.027-24.644,19.998-44.614,44.641-44.641v2c-23.537,0.026-42.612,19.1-42.639,42.638c-0.031,9.439,3.103,18.617,8.9,26.066
	c0.848,1.1,1.752,2.156,2.707,3.166c0.239,0.26,0.5,0.529,0.774,0.807c7.001,7.071,16.263,11.459,26.169,12.4
	c1.355,0.127,2.732,0.193,4.091,0.193c0.5,0,0.953-0.008,1.4-0.021c1.294-0.043,2.585-0.141,3.837-0.301
	c6.984-0.859,13.646-3.436,19.391-7.5c0.601-0.43,1.195-0.875,1.756-1.316c0.486-0.383,0.99-0.8,1.5-1.236
	c1.712-1.482,3.305-3.098,4.765-4.83c6.45-7.685,9.987-17.396,9.99-27.43c-0.001-2.093-0.153-4.184-0.456-6.256l1.981-0.292
	c0.317,2.168,0.477,4.357,0.478,6.548c-0.004,10.504-3.707,20.672-10.461,28.717c-1.528,1.814-3.196,3.506-4.989,5.059
	c-0.53,0.457-1.06,0.893-1.569,1.292c-0.585,0.461-1.199,0.925-1.834,1.375c-6.015,4.258-12.991,6.958-20.306,7.862
	c-1.312,0.164-2.663,0.267-4.016,0.311C113.56,350.449,113.079,350.457,112.563,350.457L112.563,350.457z"/>
<path fill="#FFE5E5" d="M143.705,329.453c-0.131-0.175-0.277-0.337-0.437-0.486c-0.063-0.076-0.141-0.14-0.229-0.186
	c-0.013-0.009-0.026-0.018-0.04-0.025c-8.322-4.6-23.338-8.354-23.338-8.354c-0.437-1-0.4-4.475-0.338-6.551
	c1.557-1.809,2.969-4.637,3.759-9.048c0.254,0.188,0.445-0.242,0.445-0.242c-0.139-0.247,2.106-5.731,1.7-6.967
	c-0.045-0.355-0.369-0.607-0.725-0.563c-0.123,0.016-0.239,0.066-0.334,0.145c0.055-0.314,0.109-0.648,0.166-1
	c0.084-0.528,0.89-8.4-3.365-13.089c-0.621-0.322-1.307-0.502-2.006-0.527c-6.833-2.093-10.932-1.16-13.5-0.06
	c-3.8,3.116-4.094,8.421-3.92,11.344c0.076,0.691,0.156,1.388,0.233,2.064v0.022c0.031,0.267,0.063,0.53,0.095,0.789
	c-0.263-0.243-0.673-0.227-0.916,0.036c-0.086,0.093-0.143,0.208-0.163,0.333c-0.456,1.219,1.206,6.693,1.413,7.031
	c0,0,0.357,0.562,0.639,0.307c0.785,4.81,2.2,7.77,3.69,9.6c-0.151,2.7-0.634,6.074-0.766,6.968
	c-3.488,1.1-20.984,5.756-26.277,9.232c-0.686,0.607-1.192,1.389-1.466,2.264c0.868,1.126,1.793,2.208,2.771,3.241
	c0.258,0.276,0.524,0.552,0.794,0.823c7.167,7.236,16.646,11.729,26.784,12.693c1.375,0.131,2.773,0.201,4.185,0.201
	c0.48,0,0.958-0.008,1.433-0.025c1.325-0.041,2.634-0.142,3.927-0.301c7.151-0.873,13.972-3.514,19.848-7.683
	c0.61-0.437,1.208-0.883,1.8-1.349c0.521-0.408,1.032-0.83,1.531-1.262c1.754-1.518,3.385-3.171,4.878-4.945
	C145.396,332.324,144.633,330.835,143.705,329.453L143.705,329.453z"/>
<path fill="#E2D2CA" d="M663.549,429.875h-51.707v-3.068h51.707V429.875z"/>
<path fill="#706865" d="M652.089,437.863h4.529v139.592h-4.529V437.863z"/>
<path fill="#CCBDB7" d="M619.933,430.32h-35.941v-4.387h35.941V430.32z"/>
<path fill="#4667A8" d="M608.767,429.875h-13.61v-41.338h13.61V429.875z"/>
<path fill="#B59074" d="M682.099,437.863H482.957v-7.938h199.142V437.863z"/>
<path fill="#323657" d="M720.319,381.887c0,0,2.177,30.543-3.791,34.2c-3.739,2.287-18.646,10.012-18.2,11.461
	c0.446,1.451,8.417,12.887,8.417,12.887s28.633-18.854,29.557-24.799c0.899-5.805-1.408-44.723-5.344-46.516
	c-2.948-1.344-4.5-0.233-8.219,2.527C717.521,375.518,720.319,381.887,720.319,381.887L720.319,381.887z"/>
<path fill="#EAD8CF" d="M668.135,390.608l-2.525-0.935c0,0,3.148-7.387,4.521-7.209c1.197,0.181,2.385,0.424,3.557,0.729
	L668.135,390.608z"/>
<path fill="#DA9B5B" d="M667.558,391.88c0.321-0.238,5.363-9.91,5.363-9.91l10.769,1.463l-5.82,11.457L667.558,391.88z"/>
<path fill="#424773" d="M685.089,558.394c0,0,0.891,6.182,1,7.109c0.108,0.928,9.899-0.547,9.899-0.547l0.794-7.359
	C696.782,557.597,686.313,557.525,685.089,558.394z"/>
<path fill="#292C47" d="M685.986,564.718c-1.746,2.086-3.804,3.889-6.1,5.348c-3,1.625-7.718,2.266-9.492,3.947
	c-1.281,1.211-4.666,6.436,7.8,6.326c12.466-0.107,18.473,0.738,19.809-1.264c1.337-2-1.932-14.775-1.932-14.775
	S693.115,565.363,685.986,564.718L685.986,564.718z"/>
<path fill="#424773" d="M622.344,558.455c0,0,0.89,6.18,1,7.109c0.109,0.928,9.899-0.549,9.899-0.549l0.794-7.355
	C634.037,557.66,623.566,557.583,622.344,558.455L622.344,558.455z"/>
<path fill="#292C47" d="M623.241,564.775c-1.747,2.086-3.807,3.889-6.104,5.346c-3,1.625-14.045,2.957-15.819,4.637
	c-1.281,1.213-3.411,6.1,14.126,5.637c12.461-0.322,18.473,0.74,19.811-1.262c1.337-2.002-1.935-14.779-1.935-14.779
	S630.539,565.494,623.241,564.775z"/>
<path fill="#292C47" d="M716.679,451.64c0,0-35.608,6.025-43.648,7.289c-8.04,1.266-51.646,12.111-57.1,15.418
	c-4.341,2.633,2.275,65.838,3.822,89.953h17.174l1.246-72.336c20.608,0.518,35.314-4.822,50.323-2.543
	c15.01,2.279,27.52,5.52,37.057-7.271C725.554,482.15,725.908,454.435,716.679,451.64z"/>
<path fill="#292C47" d="M681.582,564.359l16.737-1.035l1.632-71.361c8.87,0.221,11.912-0.342,19.094-1.211l13.515-31.41
	c-11.844,2.367-49.789,11.938-54.848,15C673.37,476.98,680.041,540.244,681.582,564.359z"/>
<path fill="#EEA886" d="M700.286,318.177c0,0-13.052-3.606-18.03,6.525c-4.979,10.131-2.723,29.342,3.854,31.148
	s16.038-0.273,18.769-6.581c2.729-6.308,4.908-15.267,4.256-21.067C708.482,322.4,703.754,319.567,700.286,318.177z"/>
<path fill="#EEA886" d="M689.523,353.83c0,0,0.144,7.707-0.706,9.348c-0.85,1.643,18.175,1.232,18.175,1.232s-3-9.254-1.3-17.139
	C707.375,339.468,689.523,353.83,689.523,353.83z"/>
<path fill="#3A3F47" d="M706.718,344.356c0,0-1.017,2.067-5.941,1.733c-4.925-0.336-11.42-6.276-13.509-6.807
	c-2.089-0.529-2.215-1.72-2.215-1.72l-1.105,1.968l-2.142,0.325c0,0,1.455-5.955-1.716-8.052
	c-3.171-2.098,1.428-18.982,17.483-14.909c0,0,12.255,2.245,12.419,9.089S709.095,340.731,706.718,344.356L706.718,344.356z"/>
<path fill="#E2D2CA" d="M687.821,362.981c0,0,0.053-3.14,1.476-3.44c1.422-0.299,14.956-2.162,16.699-1.476l0.749,4.144
	C706.744,362.208,703.377,364.28,687.821,362.981L687.821,362.981z"/>
<path fill="#EEA886" d="M683.901,336.16c0.366-2.572,3.292-5.529,4.965-1.521s-1.13,9.843-3.009,9.529
	C683.978,343.855,683.401,339.65,683.901,336.16z"/>
<path fill="#323657" d="M631.139,400.067c0.007-0.003,0.015-0.003,0.021,0C631.064,400.107,631.049,400.11,631.139,400.067z"/>
<path fill="#3A3F47" d="M704.094,320.009c0,0,15.914-0.746,2.777,24.096L704.094,320.009z"/>
<path fill="#918783" d="M739.553,572.824l-1.186,3.332l-50.021-15.5l2.399-6.744L739.553,572.824z"/>
<path fill="#918783" d="M692.318,558.283h-5.686V503.9h5.686V558.283z"/>
<path fill="#5E5854" d="M706.24,504.214h-33.532v-3.203h33.532V504.214z"/>
<path fill="#918783" d="M638.957,572.824l1.185,3.33l50.021-15.5l-2.199-7.168L638.957,572.824z"/>
<path fill="#918783" d="M674.199,575.796v3.869l15.963-19.01l-2.199-7.168L674.199,575.796z"/>
<path fill="#BFB2AC" d="M634.282,577.457c0,2.582,2.093,4.676,4.675,4.676c2.581,0,4.675-2.092,4.676-4.674
	c0-2.582-2.093-4.676-4.674-4.676c-0.001,0-0.002,0-0.002,0C636.375,572.783,634.283,574.875,634.282,577.457z"/>
<path fill="#BFB2AC" d="M673.804,577.457c0,2.58,2.093,4.674,4.674,4.674s4.674-2.094,4.674-4.674c0-2.582-2.093-4.674-4.674-4.674
	S673.804,574.875,673.804,577.457L673.804,577.457z"/>
<path fill="#BFB2AC" d="M734.877,577.457c-0.001,2.582,2.092,4.676,4.674,4.676s4.675-2.092,4.676-4.674
	c0-2.582-2.092-4.676-4.674-4.676c-0.001,0-0.001,0-0.001,0C736.971,572.783,734.878,574.875,734.877,577.457z"/>
<path fill="#E2D2CA" d="M725.359,501.011h-72.208c-1.997,0-3.617-1.619-3.617-3.617v-4.904c0-1.998,1.619-3.617,3.616-3.617h72.209
	c1.998,0,3.617,1.619,3.617,3.617v4.904C728.976,499.392,727.357,501.011,725.359,501.011z"/>
<path fill="#706865" d="M512.968,577.455h-4.532V437.863h4.532V577.455z"/>
<path fill="#5F8BE3" d="M657.118,408.449H546.808c-1.992,0-3.607-1.615-3.607-3.607l0,0v-75.692c0-1.992,1.615-3.606,3.607-3.606
	l0,0h110.31c1.992,0,3.607,1.614,3.608,3.606v75.692C660.726,406.833,659.111,408.449,657.118,408.449z"/>
<path fill="#F5F7FF" d="M656.123,395.457h-108.32v-65.434h108.32V395.457z"/>
<path fill="#CECFD6" d="M656.123,335.229h-108.32v-5.206h108.32V335.229z"/>
<path fill="#CECFD6" d="M562.634,391.428h-8.595c-1.232,0-2.232-1-2.232-2.233V341.38c0-1.233,1-2.233,2.232-2.233h8.595
	c1.233,0,2.232,1,2.232,2.233v47.814C564.866,390.428,563.867,391.428,562.634,391.428z"/>
<path fill="#CECFD6" d="M651.855,343.99h-21.413c-0.665,0-1.205-0.539-1.205-1.205v-2.432c0-0.666,0.54-1.206,1.206-1.206h21.411
	c0.666,0,1.206,0.54,1.206,1.206v2.432C653.06,343.451,652.52,343.99,651.855,343.99z"/>
<path fill="#CECFD6" d="M650.569,392.763h-18.842c-1.375,0-2.49-1.115-2.49-2.49v-40.547c0-1.376,1.115-2.491,2.491-2.491l0,0
	h18.842c1.375,0,2.49,1.114,2.49,2.49l0,0v40.547C653.06,391.648,651.945,392.763,650.569,392.763z"/>
<path fill="#FFFFFF" d="M598.171,401.733c0,2.094,1.698,3.79,3.792,3.79s3.79-1.698,3.79-3.792c-0.001-2.093-1.698-3.79-3.791-3.79
	C599.867,397.941,598.171,399.639,598.171,401.733z"/>
<path fill="#314875" d="M577.634,430.033v-1.477c0,0,2.073-9.176,16.745-9.176c14.671,0,14.374,10.652,14.374,10.652H577.634z"/>
<path fill="#EEA886" d="M608.93,420.744c0,0-3.187-0.246-4.356-0.953c-1.17-0.705-8.15-5.399-9.795-4.65
	c-1.644,0.749-12.562,4.1-12.181,5.699c0.381,1.602,1.39,1.443,2.16,1.16c0.77-0.283,8.699-1.947,9.399-1.668
	c0,0-7.789,2.844-7.819,4.916c-0.031,2.074,1.63,2.58,2.367,3.363c0.738,0.781,1.627,2.732,3.636,2.881
	c2.008,0.146,11.8-3.258,13.817-3.416c2.019-0.158,5.748,0.127,6-0.199S608.93,420.744,608.93,420.744z"/>
<path fill="#323657" d="M666.955,367.33c10.163-1.785,20.859-4.349,20.859-4.349l18.926-0.772c0,0,17.372,3.824,24.212,6.914
	c0.648,0.293,0.651,15.5,2.433,19.484l-5.671,11.964c0,0-3.277,23.7-3.957,34.245c-0.313,4.838,0.881,46.766,0.881,46.766
	s-1.7,0.84-14.616,2.262c-12.916,1.424-45.191-0.514-45.395-2.039c-0.204-1.525,6.248-56.811,6.535-59.672
	c0.439-4.394-1.269-24.699-1.269-24.699c-2.435,3.27-8.638,18.031-15.101,25.057c-3.806,4.131-22.642,6.664-26.191,6.781
	c-7.729,0.26-21.827,1.801-22.239,1.045c-0.33-0.451-1.229-12.514-0.345-12.809c0.771-0.258,26.954-1.766,33.661-5.323
	c2.454-1.3,9.79-17.3,9.79-17.3S661.349,369.848,666.955,367.33L666.955,367.33z"/>
<path fill="#E2D2CA" d="M740.589,480.371h-40.896c-3.835,0-6.943-3.109-6.943-6.943l0,0v-61.988c0-3.835,3.108-6.943,6.943-6.943
	l0,0h40.896c3.835,0,6.943,3.108,6.943,6.943l0,0v61.986C747.533,477.261,744.424,480.371,740.589,480.371z"/>
<path fill="#E2D2CA" d="M702.459,497.988c8.074,0,14.626-2.713,19.471-8.063c10.953-12.09,8.982-33.346,8.899-34.246
	c-0.185-1.672-1.691-2.879-3.364-2.693c-1.646,0.182-2.845,1.645-2.701,3.295c0.021,0.242,1.768,19.508-7.359,29.564
	c-3.689,4.07-8.579,6.047-14.94,6.047c-1.685,0-3.051,1.367-3.051,3.051c0,1.686,1.366,3.051,3.051,3.051L702.459,497.988z"/>
<path fill="#EEF0F7" d="M603.535,356.769c0,8.449-6.85,15.3-15.3,15.3s-15.3-6.851-15.3-15.3c0-8.45,6.85-15.301,15.3-15.301l0,0
	C596.686,341.468,603.535,348.319,603.535,356.769z"/>
<path fill="#D9C7C1" d="M598.2,365.21l-1.13,4.049c-2.06,1.461-4.45,2.387-6.957,2.693c-0.454,0.057-0.913,0.094-1.377,0.106
	c-0.167,0.007-0.333,0.008-0.5,0.008c-0.5,0-0.986-0.022-1.468-0.069c-0.534-0.052-1.065-0.13-1.592-0.235
	c-2.275-0.463-4.414-1.44-6.253-2.856c-0.217-1.339-0.449-2.818-0.653-4.199c1.123-0.418,4.7-1.636,6.962-2.4
	c0.03-0.012,0.063-0.021,0.093-0.031c0.052-0.018,0.101-0.035,0.147-0.05c0.133-0.046,0.26-0.089,0.384-0.129l0.351-0.121
	c0.463-0.154,0.787-0.265,0.9-0.3l0.046-0.018h0.025l3.037,0.229l0.51,0.036l0.159,0.012l0.069,0.018
	c0.183,0.047,0.714,0.187,1.421,0.4C594.184,362.899,597.101,363.946,598.2,365.21L598.2,365.21z"/>
<path fill="#EEA987" d="M589.031,349.171c0,0,3.643,0.615,3.024,6.316s-3.834,5.2-4.049,5.192c-0.216-0.009-3.234,0.067-3.392-6.906
	C584.615,353.775,584.567,348.623,589.031,349.171z"/>
<path fill="#EEA987" d="M590.628,359.027c-0.072,0.953-0.04,1.912,0.095,2.857c0.224,0.511-2.924,2.128-4.879,0.287
	c0.19-1.146,0.282-2.308,0.272-3.471C585.995,357.794,590.628,359.027,590.628,359.027L590.628,359.027z"/>
<path fill="#EEA987" d="M592.131,353.876c0,0,0.399-0.42,0.545,0.014c0.145,0.434-0.646,2.354-0.601,2.441
	c0,0-0.072,0.168-0.169,0.074C591.93,355.558,592.004,354.714,592.131,353.876z"/>
<path fill="#EEA987" d="M584.656,353.723c0,0-0.386-0.44-0.547-0.013c0.023,0.845,0.192,1.678,0.5,2.465
	c0,0,0.124,0.199,0.222,0.109C584.824,355.427,584.767,354.572,584.656,353.723z"/>
<path fill="#E8734D" d="M592.363,353.392c-0.126,0.779-0.243,1.359-0.243,1.359l-0.529,0.693c0.021-0.591,0.004-1.182-0.051-1.771
	c-0.029-0.092-0.065-0.254-0.1-0.426c-0.061-0.289-0.124-0.613-0.167-0.725c-1.897-0.695-3.991-0.629-5.84,0.189
	c0,0,0.021,0.233,0.021,0.5c0,0.307-0.035,0.647-0.176,0.699c-0.26,0.1-0.151,1.791-0.151,1.791l-0.425-0.488
	c0,0-0.123-0.885-0.243-1.9v-0.007c-0.027-0.239-0.055-0.481-0.082-0.724c-0.185-1.469,0.324-2.939,1.375-3.98
	c1.525-0.58,3.212-0.572,4.732,0.021c0.244,0.01,0.483,0.072,0.7,0.187C592.676,350.445,592.363,353.392,592.363,353.392z"/>
<path fill="#C78D71" d="M586.365,359.917c0.486,0.549,1.202,0.838,1.934,0.778c0.719,0.029,1.418-0.237,1.937-0.735
	c-0.366,0.755-1.105,1.258-1.942,1.322C587.453,361.2,586.721,360.681,586.365,359.917L586.365,359.917z"/>
<path fill="#EEA987" d="M585.472,362.221c0.618,1.011,1.655,1.692,2.828,1.858c1.175,0.101,2.191-1.388,2.671-2.119
	C589.177,361.306,587.196,361.4,585.472,362.221L585.472,362.221z"/>
<path fill="#EDDAD3" d="M590.631,361.427c-0.669,0.789-1.455,1.471-2.331,2.021l0.986,1.518l1.684-3L590.631,361.427z"/>
<path fill="#EDDAD3" d="M585.916,361.651c0.651,0.767,1.465,1.38,2.383,1.793l-1.082,1.563l-1.895-2.738L585.916,361.651z"/>
<path fill="#5073AB" d="M588.3,363.444l0.847,1.284c-0.537,0.287-1.186,0.276-1.713-0.029L588.3,363.444z"/>
<path fill="#323657" d="M599.178,364.971l-0.025,0.085c-0.093,0.33-0.449,1.6-0.915,3.289c-0.174,0.15-0.354,0.3-0.537,0.441
	c-0.205,0.163-0.415,0.32-0.631,0.473c-2.06,1.461-4.45,2.387-6.957,2.693c0.228-5.3,0.855-9.992,0.855-9.992
	c0.5,0.131,0.968,0.261,1.412,0.389c2.256,0.584,4.443,1.41,6.522,2.462l0.014,0.007
	C599.097,364.917,599.178,364.971,599.178,364.971z"/>
<path fill="#323657" d="M585.175,371.763c-2.275-0.463-4.414-1.439-6.253-2.855c-0.546-0.418-1.063-0.872-1.546-1.359
	c-0.094-0.094-0.188-0.192-0.278-0.289c-0.269-1.137-0.446-1.879-0.457-1.928s1.894-1.244,8.591-3.031
	C585.232,362.455,585.235,366.751,585.175,371.763L585.175,371.763z"/>
<path fill="#5073AB" d="M588.782,364.871c-0.061,1.399-0.067,4.1-0.046,7.188c-0.167,0.007-0.333,0.008-0.5,0.008
	c-0.5,0-0.985-0.022-1.468-0.069c0.155-2.4,0.496-4.785,1.017-7.133c0.075-0.309,0.119-0.463,0.119-0.463l0.9,0.148
	C588.795,364.65,588.787,364.755,588.782,364.871L588.782,364.871z"/>
<path fill="#323657" d="M599.948,366.61c-0.522,0.622-1.095,1.203-1.71,1.735c-0.174,0.15-0.354,0.3-0.537,0.441
	c0.008-0.018,0.881-2.564,1.477-3.815C599.582,365.242,599.765,366.16,599.948,366.61L599.948,366.61z"/>
<path fill="#323657" d="M577.377,367.546c-0.094-0.094-0.188-0.191-0.278-0.287c-0.343-0.363-0.666-0.742-0.969-1.139
	c0.095-0.306,0.271-0.58,0.512-0.791L577.377,367.546z"/>
<path fill="#1D3B54" d="M474.576,551.234c-1.176-1.879-2.801-3.436-4.729-4.531c-2.732-1.271-8.335,3.166-8.827,5.633l-6.495,9.477
	l1.229,0.844l3.468-5.059c-2.361,5.682-5.734,12.482-3.363,15.9c3.179,4.59,10.391,9.229,12.3,8.426s1.524-14.146,1.524-14.146
	C467.622,555.998,474.576,551.234,474.576,551.234L474.576,551.234z"/>
<path fill="#DE9673" d="M474.575,551.234c-1.355,2.621-2.553,5.32-3.584,8.086c-1.216,3.531-1.444,13.316-2.21,14
	c-0.765,0.682-6.809-2.371-7.616-6.029c-0.807-3.658,1.644-10.975,3.977-14.814c1.258-2.156,2.845-4.104,4.705-5.77
	C469.847,546.707,473.967,547.505,474.575,551.234z"/>
<path fill="#DE9673" d="M497.903,465.49c0,0-3.7,19.643-3.7,24.34c-0.096,6.264-1.553,12.434-4.27,18.078
	c-2.987,5.699-16.101,44.592-17.244,49.125s-2.114,8.809-2.114,8.809s-6.548-2.99-6.548-7.26c0-4.271,5.694-39.57,6.69-46.545
	s9.253-42.699,9.253-42.699L497.903,465.49z"/>
<path fill="#EEA886" d="M476.974,464.208c0,0,1.281,16.369,1.138,20.639c-0.143,4.271-2.136,13.951-2.136,16.514
	s0,55.648,2.124,62.055s-5.966,2-5.966,2s-14.091-34.918-14.091-49.486c0-14.566,1.707-21.826,0.711-31.08
	c-0.996-9.252-5.427-21.43-5.427-21.43L476.974,464.208z"/>
<path fill="#3876C8" d="M455.658,385.419c-4.849,6.369-8.128,13.791-9.569,21.664c-1.991,12.386,2.358,35.736,3.907,42.492
	c1.357,5.93,3.953,24.906,4.101,26.9c0,0,25.47,2.885,44.828-3.236c0,0,1.771-26.5,2.911-37.748
	c1.14-11.248-4.42-49.217-4.42-49.217L455.658,385.419z"/>
<path fill="#1D3B54" d="M484.781,579.564c-9.124-7.969-6.682-16.148-6.682-16.148s-3.648-1.301-6.609-0.557
	c-2.961,0.742-4.55,7.799-3.364,10.059l0.923,11.6l1.5-0.121l-0.492-6.191c1.76,5.977,3.433,13.482,7.479,14.666
	c5.429,1.588,14.063,0.646,15.055-1.201C493.58,589.822,484.781,579.564,484.781,579.564L484.781,579.564z"/>
<path fill="#754836" d="M490.135,298.685c0,0-2.257,13.438-0.307,17.947c1.951,4.512-10.359-5.274-10.359-5.274
	S484.576,296.554,490.135,298.685z"/>
<path fill="#754836" d="M485.584,261.357c0,0-19.76-4.523-22.22,16.59c-2.46,21.113,6.429,23.763,0.411,38.072
	c-6.017,14.309,14.695-4.661,14.695-4.661L485.584,261.357z"/>
<path fill="#EEA886" d="M483.881,261.05c5.07-0.1,16.234,2.764,17.589,16.237c-0.319,2.177-0.81,4.326-1.466,6.427
	c-0.958,2.818,1.354,11.273,0.676,11.669c-1.116,0.391-2.268,0.674-3.438,0.845c0,0-3.213,9.076-6.427,8.907
	c-3.214-0.169-15.314-3.025-20.725-14.583C464.679,278.994,463.4,261.464,483.881,261.05z"/>
<path fill="#1D3B54" d="M428.615,428.212c0,0,0.475-8.125,2.624-9.387c2.15-1.261,0.908,1.254,0.908,1.254s-1.208,5.895-1.474,8.283
	C429.984,428.371,429.295,428.32,428.615,428.212L428.615,428.212z"/>
<path fill="#EEA886" d="M438.573,409.921c0.419,2.417,0.987,4.807,1.7,7.154c1.1,3.51,2.121,4.631,1.678,6.641
	c-0.335,1.52-2.053,2.66-2.486,2.174c-0.435-0.484-0.644-6.393-3.091-6.364c-2.446,0.029,0.731,7.313-0.726,6.778
	s-7.061-3.607-6.708-6.582c0.354-2.975,2.594-5.128,2.45-9.573c-0.131-4.034,1.125-5.721,1.125-5.721L438.573,409.921z"/>
<path fill="#1D3B54" d="M436.616,419.278c0,0,3.26,0.833,3.065,11.854l-3.69-0.617c0,0,0.07-6.09-1.034-9.41
	C434.959,421.105,435.148,418.949,436.616,419.278z"/>
<path fill="#EDDAD3" d="M450.146,433.615l-28.73-8.15l0.085,35.383l28.593,17.139L450.146,433.615z"/>
<path fill="#EDDAD3" d="M450.093,477.988l-3.601,0.664l-27.81-17.295l0.347-35.729l2.389-0.162L450.093,477.988z"/>
<path fill="#3876C8" d="M486.613,310.686c0,0,7.659,3.146,9.026,4.101s4.1,12.035,4.787,12.992c0.687,0.958,7.292,9.17,6.377,15.829
	c-0.717,5.231-3.675,8-5.59,10.052c-1.915,2.053-3.688,13.1-4.288,14.736c-0.601,1.637,1.309,23.184,1.309,23.184
	s-22.473,8.746-42.575-6.16c0,0,4.014-14.424,4.014-17.023s-2.601-20.924-9.573-31.729c-6.973-10.803,1.23-22.291,6.563-23.656
	s15.591-5.2,15.591-5.2L486.613,310.686z"/>
<path fill="#3876C8" d="M462.097,311.378c0,0-11.246-0.692-16.888,5.873c-5.643,6.564-5.334,14.358-6.771,17.744
	c-1.437,3.385-4.719,17.947-5.436,20.309c-0.718,2.361-1.418,15.619-2.444,26.285s-0.818,30.586-0.818,30.586l10.762-1.952
	c0,0,0.434-18.987,0.707-30c0.272-11.013,9.229-30.462,12.614-38.976C457.209,332.733,470.686,316.72,462.097,311.378z"/>
<path fill="#3876C8" d="M494.524,314.166c3.172,0.374,5.93,2.352,7.3,5.237c2.359,4.925,3.263,9.019,3.877,10.249
	c0.615,1.23,9.149,17.444,9.662,21.035s-0.308,10.154-4.821,11.9c-4.513,1.746-20.718,1.947-20.718,1.947s4.101-8.336,0.307-12.646
	c0,0,11.762-2.124,14.545-2.406C507.615,349.192,490.798,317.857,494.524,314.166z"/>
<path fill="#1D3B54" d="M467.582,328.085l21.914,51.181l27.318-12.87l-20.2-49.148L467.582,328.085z"/>
<path fill="#EEA886" d="M480.153,353.23c0,0-2.966,0.789-3.907,0.926c-0.94,0.137,0.223,1.875,1.375,1.93
	C478.774,356.139,480.153,353.23,480.153,353.23z"/>
<path fill="#EEA886" d="M482.145,367.792c0.672-0.023,1.335-0.156,1.965-0.391c0,0,1.024-0.673,1.779-1.1
	c0.193-0.115,0.395-0.219,0.6-0.311c1.18-0.355,2.293-0.897,3.3-1.607c1.287-1,5.478-4.993,5.478-4.993l-2.771-4.177l-2.141-3.324
	c0,0-9,0.246-10.314,1.04c-0.124,0.075-0.244,0.157-0.359,0.247c-0.739,0.685-1.406,1.443-1.99,2.266
	c-0.184,0.174-1.882,2.03-1.781,2.773c0.06,0.846,0.551,1.602,1.301,2c0.192,1.08,0.684,2.084,1.417,2.9
	c0.195,1.113,0.897,2.074,1.899,2.6C480.527,365.716,481.023,367.582,482.145,367.792z"/>
<path fill="#3876C8" d="M490.135,351.889c0,0,13.342-2.384,17.026-2.772c0.132-2.891-0.009-5.786-0.421-8.65
	c-0.674-3.967-3.932-9.289-3.932-9.289l6.823,6.248c0,0,5.609,10.748,5.735,13.263s0.79,6.392-2.527,10.325
	c-3.318,3.934-18.989,2.132-18.989,2.132S495.159,358.32,490.135,351.889L490.135,351.889z"/>
<path fill="#EEA886" d="M486.031,302.992c0,0-0.432,1.272-0.934,3.165c-0.257,0.968-0.533,2.1-0.78,3.299
	c-0.678,3.328-1.128,7.223-0.336,9.849c0,0-7.179,2.262-12.51-7.942c0,0,2.715-10.759-0.234-17.411
	C468.288,287.3,486.031,302.992,486.031,302.992z"/>
<path fill="#754836" d="M501.469,277.286c0,0-8.381,5.372-16.574,6.272s-12.749,13.3-12.749,13.3s-12.882-20.057-2.508-32.384
	C480.012,252.147,503.686,261.689,501.469,277.286z"/>
<path fill="#EEA886" d="M481.513,283.093c0-1.582-1.69-4-4.341-1.917c-2.651,2.083,0.619,9.7,2.762,9.021
	C482.075,289.516,481.513,284.725,481.513,283.093z"/>
<path fill="#EEA886" d="M487.067,310.873c0,0,3.376,9.967-4.521,9.914c-7.897-0.053-11.336-6.261-13.592-11.77
	c1.706-0.851,3.493-1.529,5.333-2.025C475.98,306.736,487.067,310.873,487.067,310.873z"/>
<path fill="#1D3B54" d="M439.689,430.652l-3.7,0.479v-1.727L439.689,430.652z"/>
<path fill="#1D3B54" d="M430.702,428.103l-2.046,0.242c0,0-0.007-0.615,0.013-0.818
	C428.688,427.322,430.631,427.972,430.702,428.103z"/>
<path fill="#EEA886" d="M478.103,563.416c0.603,2.928,1.38,5.816,2.329,8.652c1.292,3.557,7.345,11.406,7.174,12.43
	c-0.171,1.025-6.874,2.473-9.838,0.1c-2.964-2.371-5.694-9.688-6.306-14.199c-0.371-2.457-0.468-4.947-0.288-7.428
	C471.174,562.97,475.244,560.865,478.103,563.416z"/>
<path fill="#A77860" d="M485.739,304.024c-0.257,0.968-0.638,2.132-0.934,3.285c-3.804-2.521-7.064-5.778-9.59-9.578
	C478.889,301.25,485.739,304.024,485.739,304.024z"/>
<path fill="#DFE1E8" d="M180.806,112.227h85.35c3.759,0,6.806,3.046,6.806,6.805v39.826c0,3.758-3.047,6.805-6.806,6.805h-85.35
	c-3.758,0-6.805-3.047-6.805-6.805v-39.826C174.001,115.273,177.048,112.227,180.806,112.227z"/>
<path fill="#323657" d="M123.083,380.542c-0.008-0.001-0.016-0.001-0.023,0C123.159,380.585,123.174,380.591,123.083,380.542z"/>
<path fill="#FFE5E5" d="M150.573,372.02H74.55c-1.229,0-2.225-0.996-2.225-2.226v-5.166c0-1.229,0.996-2.226,2.225-2.226h76.022
	c1.229,0,2.226,0.997,2.226,2.226v5.166C152.798,371.024,151.802,372.02,150.573,372.02z"/>
<path fill="#FFE5E5" d="M150.573,389.365H74.55c-1.229,0-2.225-0.996-2.225-2.225v-5.166c0-1.229,0.996-2.225,2.225-2.225h76.022
	c1.229,0,2.226,0.996,2.226,2.225v5.166C152.798,388.369,151.802,389.365,150.573,389.365z"/>
<path fill="#FFE5E5" d="M150.573,406.71H74.55c-1.229,0-2.225-0.996-2.225-2.225v-5.169c0-1.228,0.995-2.224,2.224-2.224h76.023
	c1.229,0,2.226,0.996,2.226,2.225l0,0v5.168C152.798,405.714,151.802,406.71,150.573,406.71z"/>
<path fill="#FFE5E5" d="M178.782,257.615h22.899c2.289,0,4.145,1.855,4.145,4.144v59.418c0,2.289-1.855,4.144-4.145,4.144l0,0
	h-22.901c-2.288,0-4.144-1.854-4.144-4.144l0,0V261.76C174.637,259.471,176.492,257.615,178.782,257.615z"/>
<path fill="#EEA886" d="M11.234,446.511c0.667,1.096,1.124,2.305,1.35,3.566c0.36,1.471,0.915,2.887,1.648,4.211
	c0.878,2.275,1.547,4.625,2,7.02c0.022,0.5-1.1,3.684-0.943,4.701c0.155,1.018,0.74,3.029-0.172,3.164
	c-0.913,0.133-1.948-1.516-1.948-1.516c0.047,0.527-0.222,1.035-0.687,1.291c-0.693,0.445-1.575,0.479-2.3,0.084
	c0,0-0.555,1.031-1.249,1.17c-0.771,0.225-1.602,0.113-2.285-0.311c-0.499,0.375-1.11,0.572-1.735,0.557
	c-0.81-0.029-1.543-0.486-1.926-1.199c0,0-1.716,0.348-2.213-0.453c-0.332-0.754-0.541-1.559-0.618-2.381
	c-0.174-4.111,0.569-8.211,2.176-12c2.227-4.717-0.565-9.32-0.565-9.32L11.234,446.511z"/>
<path fill="#DB9C7C" d="M13.41,467.042c0,0,0.151-5.881-1.4-7.131c-1.552-1.252-1.723,0.869-1.723,0.869s0.21-2.1-1.481-2.381
	c-1.69-0.281-1.763,2.209-1.763,2.209c-0.159-0.889-1.009-1.48-1.897-1.322c-0.053,0.01-0.104,0.021-0.155,0.037
	c-1.776,0.33-1.354,2.398-1.354,2.398s-1.7-2.023-2.8-0.08c-1.857,3.281-0.066,7.158-0.066,7.158s0.524,0.889,2.213,0.453
	c0,0,1.133,2.277,3.662,0.641c0,0,2.59,1.426,3.534-0.859C10.186,469.033,13.041,470.388,13.41,467.042L13.41,467.042z"/>
<path fill="#323657" d="M31.182,361.81c0,0-10.066,33.548-13.468,45.923c-1.065,3.88-3.648,40.942-4.101,42.437
	c-0.451,1.492-13.225,3.537-13.225,3.537s1.547-46.367,1.692-48.9c0.145-2.533,14.088-54.309,18.142-56.156
	c3.039-1.383,4.643-0.238,8.471,2.6C34.063,355.25,31.182,361.81,31.182,361.81L31.182,361.81z"/>
<path fill="#4DA8F2" d="M129.343,314.811l23.045-15.073l1.119,1.711l-23.045,15.074L129.343,314.811z"/>
<path fill="#EFAA88" d="M155.963,308.406c-0.1,0.637-0.301,1.253-0.595,1.826c0,0-0.755,0.9-1.251,1.568
	c-0.131,0.172-0.251,0.351-0.361,0.535c-0.472,1.082-1.113,2.081-1.9,2.959c-1.1,1.113-5.371,4.652-5.371,4.652l-3.66-3.107
	l-3.801-1.7c0,0,2.131-9.253,3.032-10.408c0.085-0.11,0.177-0.216,0.275-0.315c0.734-0.628,1.533-1.177,2.382-1.639
	c0.186-0.154,2.142-1.564,2.84-1.382c0.8,0.152,1.464,0.707,1.756,1.466c1.006,0.305,1.907,0.885,2.601,1.675
	c1.038,0.312,1.874,1.087,2.263,2.1C154.172,306.636,155.885,307.314,155.963,308.406L155.963,308.406z"/>
<path fill="#424773" d="M23.015,590.873c0,0-0.918,6.367-1.032,7.326c-0.113,0.959-10.208-0.566-10.208-0.566l-0.816-7.582
	C10.958,590.05,21.752,589.974,23.015,590.873L23.015,590.873z"/>
<path fill="#292C47" d="M22.091,597.386c1.8,2.15,3.921,4.01,6.289,5.512c3.093,1.672,7.953,2.334,9.782,4.066
	c1.319,1.25,4.808,6.629-8.037,6.523c-12.846-0.107-19.037,0.76-20.413-1.301s1.991-15.229,1.991-15.229
	S14.744,598.05,22.091,597.386L22.091,597.386z"/>
<path fill="#424773" d="M95.326,590.873c0,0-0.918,6.367-1.032,7.326s-10.208-0.566-10.208-0.566l-0.817-7.582
	C83.269,590.05,94.063,589.974,95.326,590.873L95.326,590.873z"/>
<path fill="#292C47" d="M94.403,597.386c1.801,2.15,3.923,4.01,6.291,5.512c3.093,1.672,14.473,3.047,16.301,4.777
	c1.319,1.252,3.517,6.281-14.558,5.811c-12.84-0.334-19.038,0.762-20.413-1.299c-1.375-2.063,1.99-15.229,1.99-15.229
	S86.881,598.126,94.403,597.386L94.403,597.386z"/>
<path fill="#292C47" d="M31.371,427.222c0,0-9.484,15.066-8.776,28.686s-3.438,28.49-4.863,42.715
	c-1.587,15.861-8.087,53.41-8.323,61.893c-0.237,8.484,1.009,35.576,1.009,35.576l13.011,0.301c0,0,10.927-65.643,13.756-72.342
	s16.863-54.451,17.335-59.809C54.991,458.884,31.371,427.222,31.371,427.222z"/>
<path fill="#292C47" d="M81.297,429.265c0,0,7.146,37.328,8.089,45.66c0.943,8.334,1.572,40.34,2.044,45.549
	s4.405,68.02,5.66,75.914H80.452c0,0-12.768-45.77-12.768-67.43c0-21.658-9.863-47.08-16.229-61.371
	c-6.367-14.289-20.942-14.625-24.858-41.137C26.597,426.451,75.997,420.855,81.297,429.265L81.297,429.265z"/>
<path fill="#EEA886" d="M47.195,300.551c0,0,12.729-4.753,18.601,4.936c5.871,9.688,5.3,29.085-1.112,31.472
	c-6.412,2.386-16.054,1.137-19.34-4.924c-3.286-6.062-6.249-14.828-6.107-20.686C39.378,305.492,43.853,302.243,47.195,300.551z"/>
<path fill="#EEA886" d="M63.299,337.402c0,0-0.53,3.436,0.345,5.129s-16.49,1.736-16.49,1.736
	c-0.926-5.759-2.29-11.438-4.082-16.989C40.399,319.5,63.299,337.402,63.299,337.402L63.299,337.402z"/>
<path fill="#D88A51" d="M43.072,327.279c0,0,1.2,1.979,6.093,1.211c4.892-0.767,10.859-7.275,12.899-7.992s2.063-1.914,2.063-1.914
	l1.278,1.869l2.17,0.137c0,0-1.979-5.823,1.007-8.199c2.984-2.376-3.101-18.848-18.79-13.364c0,0-12.052,3.322-11.612,10.175
	C38.62,316.052,40.375,323.867,43.072,327.279L43.072,327.279z"/>
<path fill="#E2D2CA" d="M64.674,342.328c0,0-0.053-3.234-1.521-3.547c-1.468-0.313-16.182-1.725-17.98-1.017v3.769
	C45.172,341.533,48.64,343.669,64.674,342.328z"/>
<path fill="#EEA886" d="M63.805,316.091c-0.275-1.149-3.2-4.434-4.318-0.918c-1.117,3.518,1.692,8.25,3.26,7.844
	C64.313,322.611,64.501,319.005,63.805,316.091z"/>
<path fill="#323657" d="M89.018,347.225c-10.092-1.33-24.343-4.899-24.343-4.899l-19.5-0.795c0,0-17.9,3.94-24.95,7.124
	c-0.669,0.3-0.671,15.97-2.507,20.077l5.841,12.332c0,0,3.377,24.426,4.077,35.29c0.321,4.985-6.964,46.761-6.964,46.761
	c6.928,1.814,13.989,3.074,21.118,3.766c13.311,1.465,46.568-0.531,46.779-2.1c0.211-1.57-6.441-58.544-6.734-61.494
	c-0.452-4.529,1.561-28.591,1.561-28.591c3.073-2.384,30.059-14.909,37.419-21.437c1.973-1.748,10.285-9.846,12.651-12.641
	c8.37-9.9,15.23-18.389,16.065-20.218c0.948-1.042-9.094-6.5-10.005-6.806c-0.8-0.268-12.112,14.395-16.467,19.111
	c-1.941,2.1-10.015,7.977-10.015,7.977S95.33,347.587,89.018,347.225L89.018,347.225z"/>
<path fill="#D88A51" d="M43.57,301.694c0,0-16.229,1.271-0.5,25.584L43.57,301.694z"/>
<path fill="#DFE1E8" d="M153.504,301.444l1.332-2.031l-2.451,0.32L153.504,301.444z"/>
</svg>
