<?xml version="1.0" encoding="utf-8"?>
<!-- Generator: Adobe Illustrator 16.0.3, SVG Export Plug-In . SVG Version: 6.00 Build 0)  -->
<!DOCTYPE svg PUBLIC "-//W3C//DTD SVG 1.1//EN" "http://www.w3.org/Graphics/SVG/1.1/DTD/svg11.dtd">
<svg version="1.1" id="Capa_1" xmlns="http://www.w3.org/2000/svg" xmlns:xlink="http://www.w3.org/1999/xlink" x="0px" y="0px"
	 width="595.28px" height="841.89px" viewBox="0 0 595.28 841.89" enable-background="new 0 0 595.28 841.89" xml:space="preserve">
<g>
	<path fill-rule="evenodd" clip-rule="evenodd" fill="#3387BD" d="M437.487,316.98c-3.656-3.861-0.949-8.677-1.942-12.939
		c1.354-6.347,7.565-6.769,11.787-9.57c6.406-4.252,14.888-5.174,19.533-12.206c0.926-4.759-3.218-5.834-5.901-7.572
		c-7.327-4.754-15.089-8.752-23.324-11.75c-0.961-0.275-1.733-0.83-2.321-1.637c1.044-15.791,3.911-17.688,18.147-11.684
		c21.252,8.96,42.458,18.032,63.684,27.056c0,2.151,0,4.302,0,6.454c-2.095,3.521-5.155,5.62-8.985,7.167
		c-16.213,6.555-32.054,13.99-48.031,21.083C452.728,314.667,445.212,315.848,437.487,316.98z"/>
	<path fill-rule="evenodd" clip-rule="evenodd" fill="#3387BD" d="M119.15,278.83c6.468-6.733,15.459-8.75,23.549-12.345
		c14.042-6.24,28.235-12.16,42.506-17.86c11.838-4.729,15.157-2.183,15.177,10.864c-0.645,0.767-1.297,1.527-1.948,2.29
		c-6.575,4.685-14.433,7.061-21.073,11.578c-3.272,2.225-8.073,3.227-8.281,8.513c0.105,4.866,4.565,4.584,7.336,6.362
		c8.248,5.288,18.833,7.053,24.535,16.19c-1.078,4.13,1.793,8.931-2.139,12.576c-13.969-0.689-25.951-7.45-38.434-12.646
		c-10.884-4.532-21.484-9.752-32.597-13.724c-3.962-1.418-6.746-3.855-8.633-7.496C119.15,281.698,119.15,280.265,119.15,278.83z"/>
	<path fill-rule="evenodd" clip-rule="evenodd" fill="#3387BD" d="M329.982,197.079c19.09,8.794,38.193,17.562,57.261,26.407
		c4.192,1.943,9.14,3.582,6.676,10.04c-1.172,0.458-2.305,0.376-3.4-0.242c-4.893-1.466-9.953-1.256-14.897-0.933
		c-13.891,0.914-27.222-1.494-39.454-7.784c-11.571-5.95-22.374-5.7-33.592,0.307c-15.815,8.469-33.034,7.922-50.211,7.353
		c-2.889-0.095-5.705-0.557-7.853-2.805c1.139-4.746,5.737-4.885,9.041-6.471c18.242-8.757,36.598-17.274,54.917-25.873
		C315.64,197.079,322.811,197.079,329.982,197.079z"/>
	<path fill-rule="evenodd" clip-rule="evenodd" fill="#266185" d="M119.15,283.132c25.199,10.761,49.091,24.823,76.389,30.271
		c2.145,0.426,2.838,1.803,3.273,3.597c-5.423,5.002-10.878,1.651-15.913-0.429c-21.326-8.809-42.511-17.958-63.749-26.984
		C119.15,287.435,119.15,285.284,119.15,283.132z"/>
	<path fill-rule="evenodd" clip-rule="evenodd" fill="#266185" d="M437.487,316.98c0.473-1.779,1.173-3.21,3.331-3.559
		c27.675-4.46,50.895-20.171,76.331-30.289c0,1.435,0,2.868,0,4.303c-11.94,9.454-26.814,12.845-40.189,19.333
		c-8.325,4.038-16.957,7.492-25.616,10.778C446.843,319.254,441.904,321.741,437.487,316.98z"/>
	<path fill-rule="evenodd" clip-rule="evenodd" fill="#3386BD" d="M365.084,330.195c7.672,0.116,15.355,0.006,23.01,0.418
		c5.647,0.303,8.879,2.551,4.581,8.518c-18.216,3.483-33.541,13.887-50.124,21.226c-15.757,6.973-30.819,7.397-46.425,0.008
		c-13.241-6.271-26.395-12.757-40.051-18.146c-4.272-1.688-8.729-3.417-11.626-7.41c1.308-5.628,5.954-3.792,9.443-3.99
		c6.67-0.376,13.365-0.326,20.05-0.452c7.729-2.624,14.338,1.994,19.856,5.25c19.177,11.313,37.017,7.792,55.354-1.481
		C353.934,331.719,358.875,327.767,365.084,330.195z"/>
	<path fill-rule="evenodd" clip-rule="evenodd" fill="#FFFFFF" d="M392.091,233.397c0.61,0.029,1.221,0.073,1.828,0.128
		c-7.794,5.475-16.734,0.193-25.248,3.309c3.749,4.521,11.297,3.216,15.237,8.941c-5.985,4.319-12.51,2.317-18.458,2.277
		c-7.221-0.05-13.788-0.412-13.213,10.868c-7.2-12.82-4.992-14.906,14.554-16.896c-11.24-4.395-22.807-8.12-33.624-13.383
		c-9.772-4.754-18.326-4.908-28.126,0.023c-10.256,5.16-21.371,8.614-33.306,13.28c6.313,3.359,12.081-0.132,18.979,4.767
		c-13.286,2.191-24.306,1.939-36.448,0.359c4.129-6.988,11.206-5.78,15.878-10.244c-2.431-0.492-4.508-0.91-6.584-1.33
		c-0.245-2.958,2.016-4.034,4.018-3.672c15.581,2.799,28.366-5.454,41.635-10.896c7.291-2.989,13.483-3.233,20.301-0.036
		c1.928,0.904,3.957,1.63,5.846,2.622c13.942,7.317,28.722,9.665,44.34,8.116C383.794,231.227,388.308,230.45,392.091,233.397z"/>
	<path fill-rule="evenodd" clip-rule="evenodd" fill="#235F83" d="M244.448,334.809c16.328,7.166,32.963,13.717,48.902,21.665
		c17.699,8.826,34.517,8.896,52.089-0.172c13.307-6.866,27.232-12.536,40.937-18.618c2.227-0.987,5.329-3.853,6.297,1.45
		c-19.338,9.183-38.454,18.887-58.11,27.339c-10.069,4.33-21.342,4.063-31.535-0.265c-18.102-7.686-35.834-16.238-53.728-24.413
		C246.278,340.415,243.193,339.133,244.448,334.809z"/>
	<path fill-rule="evenodd" clip-rule="evenodd" fill="#FFFFFF" d="M365.084,330.195c-12.31,4.664-24.676,9.192-36.907,14.058
		c-5.506,2.189-10.298,2.714-16.208,0.174c-12.399-5.328-25.32-9.444-38.027-14.058c-5.219-4.769-13.493-4.168-18.356-10.002
		c9.837-7.773,26.589,6.952,32.661-11.009c2.7,12.551,2.7,12.551-16.658,14.833c15.71,6.126,31.3,12.599,47.234,18.072
		c3.002,1.029,7.475-1.67,11.096-3.093c12.282-4.819,24.487-9.836,38.377-15.446c-7.091-2.962-13.261,0.132-18.533-3.813
		c10.993-2.074,22.04-2.109,34.72-0.868C378.498,326.111,370.31,325.544,365.084,330.195z"/>
	<path fill-rule="evenodd" clip-rule="evenodd" fill="#FFFFFF" d="M343.645,278.595c0,4.956,0.09,9.916-0.04,14.868
		c-0.061,2.33,0.577,5.66-3.284,5.374c-2.779-0.206-2.632-2.922-2.643-5.023c-0.039-7.166-0.04-14.334,0.033-21.503
		c0.03-2.878-0.045-5.889,4.155-6.111c3.524-0.185,6.289,0.487,7.642,4.279c2.035,5.706,4.302,11.331,7.234,18.984
		c2.872-7.275,5.282-12.824,7.241-18.526c1.49-4.34,4.541-5.216,8.427-4.63c4.286,0.645,3.061,4.225,3.129,6.801
		c0.18,6.805,0.133,13.62,0.03,20.427c-0.036,2.319,0.693,5.782-3.088,5.523c-3.26-0.221-3.073-3.376-3.075-5.906
		c-0.004-4.857-0.001-9.715-1.962-14.862c-2.043,5.555-4.071,11.116-6.138,16.665c-0.918,2.464-2.187,4.649-5.324,4.29
		c-2.461-0.282-3.537-2.132-4.271-4.25c-1.956-5.641-3.92-11.276-5.882-16.915C345.102,278.252,344.372,278.422,343.645,278.595z"/>
	<path fill-rule="evenodd" clip-rule="evenodd" fill="#266083" d="M392.091,233.397c-23.047,3.126-45.135,0.342-65.594-11.261
		c-5.278-2.992-9.705-2.422-14.925,0.101c-7.668,3.71-16.49,5.469-23.439,10.122c-8.179,5.475-16.874-0.996-24.578,3.139
		c-4.489,0.065-8.981,0.177-13.476,0.181c-4.137,0.002-6.795-1.428-5.568-6.256c23.453,1.282,46.485,0.202,67.75-11.511
		c5.955-3.28,12.108-1.708,17.564,1.008c17.09,8.506,34.98,12.059,54.004,10.599C386.872,229.286,391.511,227.561,392.091,233.397z"
		/>
	<path fill-rule="evenodd" clip-rule="evenodd" fill="#FFFFFF" d="M315.624,282.508c-0.081,10.955-5.893,17.381-15.828,17.501
		c-9.75,0.118-15.158-5.725-15.259-16.486c-0.109-11.647,5.722-18.003,16.344-17.812
		C310.844,265.888,315.705,271.428,315.624,282.508z"/>
	<path fill-rule="evenodd" clip-rule="evenodd" fill="#FFFFFF" d="M256.209,282.87c0-1.79-0.281-3.633,0.058-5.355
		c0.75-3.807-2.531-9.688,3.202-10.938c5.32-1.16,11.658-2.118,16.348,2.393c4.38,4.21,3.471,8.681-0.099,13.291
		c-3.601,4.649,2.664,7.256,2.952,11.242c0.132,1.847,2.928,3.868-0.099,5.401c-2.624,1.33-4.877,0.231-6.249-2.332
		c-0.67-1.252-1.075-2.643-1.639-3.954c-1.118-2.601-2.009-6.277-5.229-6.019c-4.162,0.336-2.279,4.399-2.568,6.897
		c-0.296,2.548-0.078,5.525-3.436,5.63c-3.705,0.116-3.143-3.145-3.213-5.528C256.13,290.026,256.209,286.446,256.209,282.87z"/>
	<path fill-rule="evenodd" clip-rule="evenodd" fill="#FFFFFF" d="M435.318,261.306c0.65,0.143,1.306,0.254,1.968,0.332
		c9.477,4.842,19.386,8.874,28.144,15.065c2.26,1.599,5.227,2.656,4.5,6.351c-9.611,10.026-24.177,11.938-34.384,20.988
		c-2.884,1.258-5.864,2.338-8.63,3.82c-4.779,2.557-8.807,5.391-9.159-3.889c-0.321-8.456-9.54-0.983-12.409-5.807
		c1.634-2.317,4.144-2.25,6.568-2.414c4.195,0.296,9.904-2.431,10.28,5.353c0.208,4.311,2.639,3.185,5.086,1.876
		c11.906-6.37,23.823-12.721,36.823-19.658c-9.848-7.912-21.02-11.622-30.722-17.749c-1.277-2.2,1.064-2.83,1.802-4.156
		L435.318,261.306z"/>
	<path fill-rule="evenodd" clip-rule="evenodd" fill="#FFFFFF" d="M411.916,295.753c-1.465,2.775-4.188,2.128-6.568,2.414
		c-5.617-8.186-10.652-8.818-16.775-1.693c-1.56,1.815-3.037,3.479-5.171,2.586c-2.685-1.124-1.383-3.429-0.66-5.454
		c2.642-7.393,5.138-14.836,7.783-22.23c0.956-2.668,1.843-5.286,5.66-5.391c4.385-0.118,5.25,2.994,6.399,5.958
		C405.664,279.891,407.409,288.362,411.916,295.753z"/>
	<path fill-rule="evenodd" clip-rule="evenodd" fill="#FFFFFF" d="M244.286,267.819c8.227,8.444,6.805,16.724-3.904,19.528
		c-4.477,1.174-7.171,2.223-6.662,7.309c0.229,2.284-0.606,4.435-3.314,4.46c-3.503,0.034-3.527-2.674-3.558-5.25
		c-0.094-7.792-0.223-15.587-0.338-23.379C231.47,263.169,238.284,268.201,244.286,267.819z"/>
	<path fill-rule="evenodd" clip-rule="evenodd" fill="#FFFFFF" d="M198.678,259.737c0.565-0.099,1.134-0.181,1.704-0.248
		c0.378,0.595,0.585,1.242,0.619,1.945c0.895,1.233,3.106,1.851,1.903,4.067c-10.231,5.635-20.463,11.27-32.41,17.848
		c15.73,7.042,28.444,15.948,43.092,21.139c2.011-0.246,3.272,0.404,3.06,2.668c-0.205,2.172-1.558,2.727-3.504,2.357
		c-4.064-1.695-8.127-3.393-12.19-5.09c-9.101-5.143-18.192-10.303-27.311-15.415c-3.306-1.851-7.372-2.933-7.358-7.864
		c5.865-6.401,13.698-9.767,21.12-13.794C191.391,265.184,196.137,264.069,198.678,259.737z"/>
	<path fill-rule="evenodd" clip-rule="evenodd" fill="#FFFFFF" d="M329.559,282.349c-0.007,4.273,0.044,8.548-0.027,12.82
		c-0.041,2.412-1.232,4.149-3.77,4.233c-2.579,0.088-3.904-1.653-3.936-4.031c-0.108-8.189-0.084-16.383-0.044-24.575
		c0.013-2.792,0.948-5,4.314-4.716c2.695,0.225,3.409,2.229,3.45,4.515C329.616,274.512,329.566,278.431,329.559,282.349z"/>
	<path fill-rule="evenodd" clip-rule="evenodd" fill="#FFFFFF" d="M202.904,265.501c-0.634-1.357-1.269-2.712-1.903-4.067
		c3.826-1.748,7.67-3.454,11.47-5.254c2.571-1.218,5.634-1.645,5.356,1.971c-0.732,9.557,5.699,7.42,11.11,7.746
		c5.138,0.309,10.635-1.832,15.349,1.922c-5.856,1.353-12.493-2.498-17.777,2.668c-5.181-1.036-11.94,2.625-13.797-7.21
		C212.011,259.562,206.584,265.678,202.904,265.501z"/>
	<path fill-rule="evenodd" clip-rule="evenodd" fill="#FFFFFF" d="M435.186,261.419c-0.601,1.385-1.201,2.771-1.802,4.156
		c-3.535-0.38-6.097-3.866-9.92-3.235c-2.917,3.458,0.947,8.632-4.105,12.528c-2.707-5.7-1.425-11.268-1.256-16.553
		c0.126-3.938,2.786-3.202,5.36-2.025C427.342,258.062,431.276,259.716,435.186,261.419z"/>
	<path fill-rule="evenodd" clip-rule="evenodd" fill="#FFFFFF" d="M213.142,309.514c2.47-1.468,3.335-3.08,0.444-5.025
		c0.6-4.49-1.219-9.271,2.307-14.883c3.535,7.431,3.167,13.952,0.877,20.427C216.269,311.451,214.277,310.503,213.142,309.514z"/>
	<path fill-rule="evenodd" clip-rule="evenodd" fill="#246084" d="M469.93,283.055c-5.851-7.225-14.673-9.798-22.296-14.252
		c-3.628-2.12-8.206-2.883-10.345-7.164c12.61,1.695,22.444,9.036,32.367,16.11C471.464,279.036,472.291,281.162,469.93,283.055z"/>
	<path fill-rule="evenodd" clip-rule="evenodd" fill="#225D81" d="M198.678,259.737c0.232,5.162-4.187,5.977-7.417,7.777
		c-8.285,4.614-16.646,9.093-24.978,13.629c-1.63-4.391,2.245-5.362,4.628-6.688C180.065,269.367,189.407,264.615,198.678,259.737z"
		/>
	<path fill-rule="evenodd" clip-rule="evenodd" fill="#FFFFFF" d="M308.6,281.166c-0.084,7.368-1.277,12.591-8.449,12.82
		c-7.328,0.233-8.622-4.908-8.695-10.817c-0.079-6.33,1.458-12.072,8.963-11.931C307.25,271.367,308.923,276.676,308.6,281.166z"/>
	<path fill-rule="evenodd" clip-rule="evenodd" fill="#FFFFFF" d="M271.592,276.37c-0.577,2.769-2.306,4.206-5.129,4.431
		c-3.854,0.307-3.69-2.424-3.694-4.937c-0.003-2.727,0.509-5.12,4.169-4.424C269.633,271.952,271.482,273.315,271.592,276.37z"/>
	<path fill-rule="evenodd" clip-rule="evenodd" fill="#FFFFFF" d="M395.383,272.855c2.795,6.496,5.943,9.649,2.486,13.488
		c-0.627,0.695-3.29,0.737-3.916,0.063C390.332,282.502,394.721,279.494,395.383,272.855z"/>
	<path fill-rule="evenodd" clip-rule="evenodd" fill="#FFFFFF" d="M242.113,274.748c-0.017,5.181-1.331,7.599-4.762,7.902
		c-3.764,0.334-3.629-2.641-3.597-5.122c0.036-2.735-0.621-6.257,3.929-5.87C240.53,271.899,242.135,273.672,242.113,274.748z"/>
</g>
</svg>
