<?xml version="1.0" encoding="utf-8"?>
<!-- Generator: Adobe Illustrator 16.0.3, SVG Export Plug-In . SVG Version: 6.00 Build 0)  -->
<!DOCTYPE svg PUBLIC "-//W3C//DTD SVG 1.1//EN" "http://www.w3.org/Graphics/SVG/1.1/DTD/svg11.dtd">
<svg version="1.1" id="Capa_1" xmlns="http://www.w3.org/2000/svg" xmlns:xlink="http://www.w3.org/1999/xlink" x="0px" y="0px"
	 width="595.28px" height="841.89px" viewBox="0 0 595.28 841.89" enable-background="new 0 0 595.28 841.89" xml:space="preserve">
<g>
	<path fill-rule="evenodd" clip-rule="evenodd" fill="#4D83F7" d="M526.435,477.713c-0.481-0.718-0.33-1.538-0.359-2.322
		c-0.169-4.462-0.322-8.924-0.478-13.386c-0.017-0.479-0.005-0.96-0.275-1.387c-0.188-1.184,0.934-1.104,1.501-1.419
		c7.818-4.338,15.726-8.514,23.613-12.723c12.044-6.429,24.053-12.925,36.24-19.079c3.016-1.521,4.634-4.03,5.681-7.065
		c1.987-3.396,0.871-8.169-2.604-11.099c-1.969-1.66-4.234-2.865-6.491-4.042c-12.807-6.68-25.556-13.476-38.564-19.755
		c-5.892-2.843-11.314-6.592-17.459-8.931c-0.545-0.207-0.957-0.564-1.242-1.069c-0.137-5.352-0.05-10.701,0.39-16.038
		c0.218-2.637,1.809-4.396,3.991-5.62c3.593-2.016,7.455-2.633,11.56-2.181c6.198,0.682,11.901,2.893,17.583,5.281
		c34.661,14.57,69.342,29.095,104.005,43.662c3.604,1.515,7.141,3.194,10.693,4.83c2.204,1.014,4.036,2.547,5.78,4.215
		c0.958,0.917,1.314,2.148,1.963,3.225c0,2.08,0,4.16,0,6.24c-0.205,4.196-3.292,6.152-6.405,7.919
		c-4.313,2.446-8.881,4.397-13.439,6.343c-22.57,9.631-45.141,19.263-67.683,28.96c-12.336,5.308-24.706,10.539-37.13,15.639
		c-4.737,1.944-9.683,3.311-14.786,3.986c-3.894,0.516-7.659-0.069-11.276-1.533c-1.922-0.777-3.278-2.226-4.156-4.222
		c-0.021-0.212-0.406,0.11-0.099,0.022c0.115-0.033,0.13,0.038,0.172,0.173C527.377,477.046,527.345,477.606,526.435,477.713z"/>
	<path fill-rule="evenodd" clip-rule="evenodd" fill="#4D83F7" d="M156.235,326.25c-0.553-3.492-0.225-6.983,0.029-10.471
		c0.075-1.027,0.767-1.727,1.55-2.324c1.722-1.313,3.548-2.454,5.54-3.318c17.375-7.539,34.349-15.946,51.583-23.793
		c17.96-8.178,35.843-16.525,53.758-24.802c5.417-2.503,11.169-3.812,17.024-4.72c3.152-0.489,6.297-1.117,9.518-0.929
		c0.51,0.03,0.937-0.148,1.283-0.523c3.2,0,6.4,0,9.601,0c0.327,0.614,0.918,0.536,1.469,0.553
		c11.272,0.353,21.772,3.424,31.97,8.228c20.584,9.698,41.345,19.024,62.037,28.492c13.287,6.08,26.582,12.142,39.875,18.207
		c1.244,0.567,2.444,1.183,3.357,2.245c0.868,1.009,1.351,2.192,1.374,3.497c0.049,2.796,0.02,5.593-0.01,8.389
		c-0.004,0.287-0.224,0.571-0.343,0.856c-1.292-1.627-0.623-3.536-0.713-5.318c-0.138-2.693-0.131-2.767-2.757-1.938
		c-2.008,0.635-4.05,0.853-6.149,0.849c-12.479-0.021-24.992-0.586-37.428,0.157c-11.773,0.703-22.796-1.835-33.905-4.905
		c-15.702-4.339-30.655-10.67-45.709-16.753c-3.485-1.408-6.979-2.804-10.421-4.31c-4.138-1.812-8.063-1.652-12.309-0.107
		c-19.692,7.164-38.972,15.439-58.936,21.869c-3.807,1.227-7.658,2.313-11.44,3.617c-1.984,0.685-4.035,0.916-6.139,0.914
		c-17.919-0.019-35.838-0.018-53.757-0.001c-1.938,0.002-3.82-0.241-5.688-0.742c-3.438-0.92-3.394-0.899-3.475,2.776
		C156.993,323.399,157.528,325.008,156.235,326.25z"/>
	<path fill-rule="evenodd" clip-rule="evenodd" fill="#033E5B" d="M526.435,477.713c0.545-0.451,0.118-1.274,0.688-1.762
		c0.184,0.123,0.455,0.205,0.549,0.382c1.641,3.092,4.565,3.997,7.694,4.653c4.345,0.91,8.563,0.22,12.773-0.811
		c6.389-1.563,12.37-4.228,18.39-6.79c21.296-9.063,42.604-18.1,63.89-27.184c12.552-5.357,25.081-10.769,37.603-16.197
		c2.415-1.048,4.744-2.294,7.115-3.442c2.362-1.145,3.988-3.152,5.84-4.906c0.793-0.751,0.198-1.918,0.984-2.606c0,4,0,8,0,12
		c-1.708,3.224-4.451,5.288-7.629,6.9c-3.064,1.556-6.204,2.939-9.363,4.287c-34.595,14.758-69.183,29.534-103.779,44.288
		c-4.698,2.003-9.359,4.116-14.396,5.199c-3.789,0.814-7.584,1.116-11.41,0.3c-0.701-0.149-1.409-0.307-2.083-0.547
		c-5.708-2.032-6.454-4.571-6.868-9.209C526.297,480.762,526.426,479.233,526.435,477.713z"/>
	<path fill-rule="evenodd" clip-rule="evenodd" fill="#397190" d="M-85.088,429.616c-0.421-0.33-0.8-0.779-1.432-0.485
		c0-4.64,0-9.28,0-13.92c0.337,0.019,0.675,0.038,1.013,0.058c1.749,1.338,0.929,3.311,1.241,5.006
		c-0.245,2.141,0.003,4.287-0.098,6.428C-84.412,427.716-84.247,428.793-85.088,429.616z"/>
	<path fill-rule="evenodd" clip-rule="evenodd" fill="#517B91" d="M310.041,587.599c-0.043,0.134-0.069,0.271-0.08,0.412
		c-5.601,0-11.2,0-16.8,0c-0.02-0.137-0.049-0.271-0.087-0.404c0.625-0.773,1.525-0.811,2.395-0.825
		c4.057-0.064,8.116-0.063,12.172,0C308.511,586.795,309.41,586.833,310.041,587.599z"/>
	<path fill-rule="evenodd" clip-rule="evenodd" fill="#4D83F7" d="M-84.628,420.021c-0.869-1.478-0.088-3.261-0.879-4.753
		c1.369-4.65,4.768-7.427,8.842-9.578c4.886-2.58,10.049-4.544,15.114-6.721c17.184-7.383,34.394-14.705,51.604-22.025
		c13.018-5.537,26.054-11.031,39.077-16.555c5.003-2.122,9.958-4.365,15-6.388c5.729-2.298,11.693-3.315,17.851-2.306
		c6.293,1.03,9.095,4.209,9.274,10.538c0.114,3.994-0.023,7.996-0.048,11.994c-0.096,0.226-0.265,0.362-0.506,0.412
		c-4.036,1.371-7.524,3.812-11.249,5.787c-10.01,5.309-19.966,10.72-29.84,16.278c-5.773,3.25-11.71,6.189-17.495,9.417
		c-1.051,0.586-2.007,1.307-2.949,2.046c-4.836,3.796-5.694,6.436-4.007,12.289c0.133,3.459,1.923,5.754,4.886,7.418
		c6.277,3.523,12.694,6.782,19.062,10.13c13.589,7.144,27.255,14.139,40.882,21.209c0.962,0.499,2.136,0.832,2.352,2.169
		c-0.385,6.615-0.658,13.233-0.561,19.863c0.008,0.543,0.144,1.131-0.357,1.564c-1.331-1.757-0.212-3.894-0.824-5.776
		c-0.833,0.001-1.069,0.699-1.489,1.11c-2.281,2.234-5.012,3.256-8.185,3.477c-6.683,0.464-12.966-0.811-19.145-3.408
		c-12.968-5.45-25.89-11.014-38.879-16.416c-20.297-8.442-40.487-17.141-60.799-25.546c-6.644-2.75-13.382-5.294-19.745-8.694
		c-1.993-1.065-3.826-2.323-5.4-3.938C-84.004,422.626-84.786,421.523-84.628,420.021z"/>
	<path fill-rule="evenodd" clip-rule="evenodd" fill="#4D83F7" d="M156.249,528.792c-0.614-3.803-0.462-7.6,0.069-11.396
		c0.146-1.048,0.961-1.429,1.785-1.737c2.482-0.934,5.053-1.424,7.71-1.545c11.659-0.529,23.323-0.466,34.989-0.396
		c4.315,0.025,8.63,0,12.945-0.047c2.49-0.027,4.932,0.295,7.359,0.797c3.071,0.232,5.837,1.518,8.638,2.607
		c20.93,8.143,41.815,16.397,62.695,24.667c2.005,0.794,3.985,1.654,5.978,2.481c2.59,1.077,5.014,0.964,7.64-0.112
		c22.482-9.211,45.033-18.255,67.596-27.271c2.746-1.097,5.439-2.324,8.21-3.357c1.087-0.404,2.198-1.057,3.431-0.394
		c5.191,0.052,10.384,0.124,15.576,0.149c5.113,0.026,10.228-0.02,15.341,0.013c6.709,0.043,13.418,0.128,20.127,0.203
		c2.323,0.026,4.626,0.18,6.819,1.073c2.362,0.962,3.057,1.965,3.06,4.546c0.002,2.236,0.017,4.474,0,6.71
		c-0.005,0.619,0.181,1.291-0.346,1.817c-1.348-1.795-0.535-3.858-0.67-5.793c-0.107-1.539-0.494-1.826-1.859-1.014
		c-6.479,3.857-13.563,6.454-20.38,9.602c-11.252,5.194-22.546,10.296-33.749,15.593c-12.867,6.082-25.838,11.938-38.729,17.966
		c-5.577,2.607-11.246,5.049-16.695,7.893c-6.572,3.431-13.756,4.008-20.81,5.22c-4.737,0.813-9.565,0.616-14.358,0.524
		c-12.523-0.241-24.504-2.534-35.935-8.088c-15.098-7.336-30.491-14.063-45.725-21.12c-14.365-6.654-28.908-12.918-43.157-19.823
		c-5.102-2.473-10.573-4.172-15.344-7.337c-1.024-0.68-1.451-0.263-1.46,0.85c-0.013,1.44,0.032,2.881-0.022,4.319
		C156.946,527.242,157.127,528.187,156.249,528.792z"/>
	<path fill-rule="evenodd" clip-rule="evenodd" fill="#033E5B" d="M156.249,528.792c0.27-3.068-0.305-6.171,0.209-9.216
		c0.304,0,0.497-0.062,0.598,0.009c6.482,4.541,14.019,6.938,21.081,10.286c12.493,5.92,25.116,11.565,37.696,17.303
		c18.324,8.358,36.542,16.948,54.949,25.127c3.769,1.675,7.749,2.497,11.766,3.148c7.825,1.269,15.697,1.967,23.636,1.471
		c4.699-0.294,9.343-0.997,14.007-1.641c6.084-0.839,11.501-3.148,16.928-5.688c20.344-9.518,40.673-19.066,61.055-28.504
		c13.344-6.178,26.766-12.188,40.159-18.26c1.973-0.895,3.854-1.936,5.639-3.164c0.435-0.299,0.825-0.787,1.659-0.541
		c0.08,2.793,0.161,5.635,0.241,8.477c-0.196,1.365-1.035,2.298-2.068,3.111c-1.581,1.246-3.328,2.21-5.158,3.024
		c-33.072,14.702-65.658,30.46-98.586,45.478c-5.814,2.651-11.558,5.452-17.926,6.635c-4.011,0.745-8.059,1.186-12.092,1.751
		c-5.656,0.002-11.312,0.005-16.967,0.008c-9.413-0.604-18.469-2.631-27.069-6.601c-34.153-15.761-68.278-31.583-102.689-46.78
		C160.54,533,157.778,531.677,156.249,528.792z"/>
	<path fill-rule="evenodd" clip-rule="evenodd" fill="#4F4F4F" d="M385.294,513.088c-4.763,1.152-9.084,3.461-13.598,5.254
		c-20.171,8.014-40.298,16.139-60.438,24.228c-2.073,0.833-4.166,1.629-6.194,2.563c-1.953,0.899-3.845,0.857-5.792,0.072
		c-5.772-2.329-11.535-4.681-17.328-6.958c-18.565-7.299-37.142-14.569-55.714-21.85c-1.699-0.666-3.589-0.824-5.124-1.929
		c-0.578-0.902-1.615-0.978-2.479-1.313c-12.065-4.682-24.142-9.333-36.217-13.99c-1.42-0.548-2.82-1.146-4.054-2.05
		c-1.236-0.904-2.059-2.095-1.711-3.691c0.375-1.725,1.557-2.754,3.277-3.108c0.54-0.111,1.11-0.095,1.667-0.095
		c17.115-0.001,34.23,0.003,51.345,0.006c0.479,0,0.96,0.017,1.439-0.009c1.669-0.087,1.767-0.145,1.794-1.804
		c0.069-4.157,0.086-8.315,0.143-12.473c0.013-0.958,0.015-1.929,0.171-2.868c0.316-1.911,1.592-3.042,3.38-3.139
		c1.905-0.103,3.375,0.948,3.948,2.817c0.31,1.01,0.308,2.052,0.306,3.09c-0.012,5.438-0.035,10.876-0.054,16.314
		c-0.001,0.24,0.005,0.479-0.002,0.72c-0.105,3.758-1.307,5.056-5.094,5.086c-8.157,0.065-16.315,0.024-24.473,0.026
		c-3.599,0.001-7.198-0.002-10.796,0.005c-0.379,0.001-0.81-0.098-1.115,0.428c0.612,0.637,1.493,0.811,2.263,1.138
		c10.516,4.476,21.308,8.244,31.925,12.459c17.672,7.015,35.353,14.009,53.018,21.041c3.635,1.447,7.429,2.489,10.928,4.28
		c1.303,0.666,2.496,0.113,3.681-0.362c5.709-2.292,11.408-4.607,17.12-6.894c24.55-9.826,49.104-19.643,73.653-29.471
		c1.619-0.647,3.214-1.356,4.98-2.104c-0.786-0.842-1.614-0.501-2.315-0.502c-11.597-0.024-23.193-0.016-34.79-0.021
		c-0.878,0-1.758-0.03-2.635-0.086c-1.524-0.097-2.507-0.889-2.979-2.351c-0.49-1.521-0.204-2.839,0.949-3.946
		c1.105-1.062,2.495-1.398,3.966-1.419c1.599-0.022,3.198,0.043,4.797,0.042c17.435-0.015,34.869-0.035,52.304-0.053
		c1.037-0.001,2.068-0.023,3.09,0.282c1.715,0.515,2.728,1.628,2.979,3.38c0.224,1.552-0.65,3.044-2.291,3.868
		c-0.997,0.5-2.062,0.866-3.101,1.28c-10.907,4.352-21.817,8.698-32.725,13.051C386.669,512.324,385.858,512.463,385.294,513.088z"
		/>
	<path fill-rule="evenodd" clip-rule="evenodd" fill="#4F4F4F" d="M383.871,329.786c0.483,1.011,1.545,1.063,2.407,1.389
		c12.035,4.541,24.042,9.154,35.981,13.939c0.738,0.296,1.504,0.589,2.146,1.04c1.236,0.866,2.102,2.025,1.839,3.643
		c-0.277,1.706-1.249,2.913-2.899,3.512c-0.839,0.304-1.717,0.34-2.603,0.327c-3.598-0.051-7.195-0.12-10.792-0.124
		c-13.597-0.015-27.193-0.009-40.789-0.004c-3.062,0.001-3.105,0.014-3.138,3.093c-0.039,3.758-0.007,7.517,0.023,11.274
		c0.011,1.294-0.093,2.564-0.617,3.755c-0.891,2.021-2.638,2.881-4.676,2.341c-1.366-0.362-2.252-1.186-2.412-2.637
		c-0.078-0.714-0.113-1.436-0.114-2.154c-0.008-6.078-0.004-12.157-0.004-18.235c0-0.16-0.002-0.32,0.002-0.479
		c0.084-3.533,1.205-4.713,4.807-4.759c4.957-0.062,9.916-0.016,14.875-0.009c7.438,0.011,14.875,0.029,22.313,0.04
		c0.314,0,0.628-0.05,1.073-0.088c-0.341-1.108-1.344-1.116-2.057-1.395c-11.979-4.682-23.985-9.297-35.962-13.988
		c-15.175-5.944-30.33-11.938-45.49-17.919c-5.126-2.022-10.423-3.61-15.382-6.055c-1.536-0.757-2.95-0.267-4.38,0.315
		c-5.255,2.136-10.501,4.295-15.772,6.391c-25.836,10.27-51.807,20.198-77.573,30.646c-1.158,0.47-2.391,0.803-3.653,1.785
		c0.956,0.398,1.731,0.25,2.462,0.251c11.596,0.029,23.193,0.045,34.789,0.063c1.039,0.002,2.078-0.042,3.088,0.297
		c1.523,0.512,2.343,1.614,2.632,3.136c0.279,1.472-0.57,2.407-1.631,3.219c-1.209,0.926-2.613,1.117-4.082,1.112
		c-3.519-0.012-7.038-0.003-10.557-0.002c-15.036,0-30.072,0-45.108-0.001c-0.8,0-1.6,0.002-2.399-0.022
		c-2.938-0.088-3.987-1.474-3.993-4.788c-0.003-1.689,1.249-2.485,2.655-3.047c3.414-1.361,6.827-2.723,10.243-4.078
		c8.763-3.475,17.527-6.946,26.29-10.423c0.417-0.166,0.928-0.218,1.133-0.898c-0.751-0.295-1.533-0.164-2.283-0.161
		c-10.636,0.037-21.272,0.089-31.908,0.131c-0.636,0.002-1.273-0.047-1.91-0.072c0.619-1.531,1.996-0.997,3.058-1.001
		c10.556-0.051,21.112-0.057,31.667-0.009c2.358,0.011,4.526-0.422,6.747-1.282c24.829-9.621,49.397-19.9,74.304-29.322
		c3.023-1.144,5.753-1.087,8.796,0.1c24.433,9.532,48.807,19.216,73.232,28.765c1.271,0.497,2.604,0.773,3.907,1.155
		C382.84,328.754,383.877,328.585,383.871,329.786z"/>
	<path fill-rule="evenodd" clip-rule="evenodd" fill="#323232" d="M348.218,401.725c0,3.189-0.004,6.379,0.001,9.568
		c0.019,12.718,0.041,25.435,0.061,38.153c0.001,0.56,0.023,1.123-0.026,1.679c-0.096,1.077-0.657,1.777-1.756,1.976
		c-2.942,0.532-5.882,0.552-8.822-0.028c-1.313-0.259-1.546-1.178-1.552-2.318c-0.014-2.958-0.091-5.916-0.093-8.875
		c-0.011-15.037-0.013-30.076,0.007-45.114c0.002-1.435,0.081-2.884,0.298-4.3c0.296-1.938,1.346-2.98,3.312-3.245
		c4.301-0.578,8.619-0.665,12.897,0.156c3.277,0.628,5.32,2.739,6.424,5.831c1.425,3.987,2.847,7.975,4.294,11.953
		c3.005,8.257,6.024,16.508,9.044,24.76c0.239,0.652,0.321,1.395,1.029,1.934c0.6-0.355,0.659-1.035,0.864-1.578
		c4.589-12.185,9.233-24.35,13.691-36.583c1.528-4.193,4.135-6.4,8.651-6.577c3.122-0.122,6.231-0.204,9.344,0.046
		c2.429,0.195,3.762,1.343,4.387,3.701c0.267,1.008,0.352,2.039,0.353,3.087c0.01,17.437,0.04,34.874,0.051,52.312
		c0.002,4.525-0.346,4.889-4.814,5.24c-1.921,0.151-3.83,0.114-5.708-0.432c-1.305-0.38-2.061-1.129-2.049-2.56
		c0.009-1.198-0.066-2.397-0.068-3.597c-0.034-14.477-0.059-28.954-0.102-43.43c-0.002-0.685,0.194-1.408-0.212-2.08
		c-0.765,0.072-0.76,0.716-0.922,1.206c-5.114,15.475-10.934,30.7-16.299,46.086c-0.184,0.528-0.374,1.054-0.55,1.585
		c-0.646,1.953-1.846,3.047-4.052,3.039c-1.917-0.008-3.834-0.022-5.752-0.039c-2.441-0.021-3.816-1.229-4.558-3.471
		c-1.229-3.716-2.549-7.4-3.818-11.104c-3.965-11.56-7.924-23.121-11.881-34.683C349.591,403.146,349.355,402.239,348.218,401.725z"
		/>
	<path fill-rule="evenodd" clip-rule="evenodd" fill="#033E5B" d="M383.871,329.786c-0.627-0.851-1.633-0.487-2.442-0.697
		c-3.647-0.945-7.021-2.595-10.516-3.922c-6.854-2.603-13.692-5.243-20.515-7.926c-6.748-2.655-13.459-5.407-20.204-8.069
		c-8.97-3.539-17.961-7.021-26.933-10.553c-1.986-0.782-3.88-0.571-5.813,0.178c-6.761,2.621-13.546,5.177-20.299,7.816
		c-7.348,2.872-14.672,5.804-22.002,8.721c-8.44,3.36-16.87,6.748-25.316,10.091c-3.335,1.32-6.74,2.467-9.971,4.039
		c-0.839,0.408-1.711,0.314-2.585,0.314c-11.67,0.004-23.341,0.004-35.011,0.019c-0.618,0.001-1.293-0.176-1.818,0.351
		c-6.395,0.721-12.77,0.155-19.143-0.346c-1.284-0.101-2.457-0.683-3.603-1.248c-0.934-0.46-1.441-1.237-1.465-2.302
		c0-2.94,0-5.878,0-8.662c0.95-0.4,1.434-0.033,1.947,0.153c2.726,0.987,5.515,1.539,8.435,1.535
		c17.833-0.024,35.666-0.024,53.499,0.004c2.275,0.004,4.426-0.47,6.578-1.125c17.207-5.237,33.978-11.687,50.734-18.184
		c6.702-2.598,13.477-5.008,20.185-7.588c3.654-1.405,7.148-1.119,10.707,0.345c10.12,4.163,20.26,8.277,30.41,12.366
		c11.502,4.634,23.332,8.245,35.361,11.225c3.33,0.825,6.643,1.724,9.97,2.561c0.612,0.154,1.271,0.296,1.888,0.238
		c7.817-0.74,15.651-0.217,23.476-0.308c8.636-0.1,17.273-0.054,25.909-0.007c3.081,0.017,6.041-0.359,8.859-1.688
		c1.253-0.59,1.473-0.418,1.519,1.055c0.079,2.555,0.097,5.111,0.14,7.666c-0.324,1.892-1.704,2.58-3.367,2.918
		c-2.59,0.527-5.203,0.867-7.85,0.868c-15.271,0.005-30.543,0.009-45.815-0.017C387.164,329.605,385.543,330.405,383.871,329.786z"
		/>
	<path fill-rule="evenodd" clip-rule="evenodd" fill="#4F4F4F" d="M70.856,374.271c0.12,0.016,0.237,0.003,0.35-0.042
		c0,2.466,0,4.934,0,7.464c1.144,0.196,1.823-0.444,2.562-0.8c7.698-3.702,15.09-7.985,22.646-11.956
		c1.199-0.629,2.391-1.308,3.657-1.765c2.823-1.018,4.919,0.346,5.238,3.348c0.109,1.028,0.085,2.073,0.087,3.11
		c0.008,4.392-0.008,8.783,0.01,13.174c0.009,2.073,0.036,2.086,2.172,2.086c12.695,0.002,25.39-0.008,38.085,0.011
		c0.843,0.001,1.77-0.31,2.515,0.396c-0.987,0.931-2.236,0.74-3.413,0.747c-5.274,0.033-10.549-0.011-15.823,0.022
		c-4.057,0.025-4.922,0.889-4.926,4.956c-0.018,17.582,0.003,35.164-0.025,52.746c-0.002,1.392,0.36,2.911-0.845,4.076
		c-0.96-0.767-0.792-1.852-0.779-2.874c0.043-3.518,0.164-7.035,0.16-10.552c-0.016-12.954-0.069-25.908-0.108-38.862
		c-0.001-0.32,0.012-0.641-0.006-0.96c-0.089-1.62-0.155-1.724-1.852-1.753c-3.997-0.07-7.994-0.097-11.992-0.137
		c-2.159-0.021-4.322,0.048-6.475-0.069c-3.194-0.173-4.292-1.229-4.418-4.445c-0.166-4.232-0.15-8.472-0.221-12.709
		c-0.009-0.551,0.108-1.124-0.246-1.687c-1.267-0.226-2.267,0.526-3.297,1.076c-23.483,12.516-46.958,25.048-70.438,37.568
		c-2.326,1.241-4.688,2.415-7.019,3.646c-0.631,0.333-1.236,0.732-1.808,1.161c-0.394,0.295-0.342,0.733,0.021,1.012
		c0.439,0.338,0.932,0.614,1.428,0.867c26.271,13.389,52.334,27.176,78.469,40.825c0.827,0.433,1.63,0.976,2.559,1.063
		c0.537-0.873,0.327-1.69,0.329-2.47c0.015-6.638-0.005-13.275,0.02-19.913c0.004-1.194,0.065-2.406,0.275-3.578
		c0.365-2.042,2.155-3.565,3.968-3.535c1.864,0.032,3.332,1.586,3.596,3.832c0.046,0.396,0.028,0.799,0.029,1.198
		c0.001,10.075,0.004,20.15-0.01,30.226c-0.001,0.714-0.068,1.442-0.225,2.137c-0.55,2.438-2.223,3.456-4.64,2.802
		c-0.682-0.184-1.322-0.55-1.954-0.884c-7.907-4.192-15.808-8.396-23.714-12.59c-0.771-0.409-1.527-0.884-2.454-0.861
		c-3.331-2.37-7.095-3.961-10.689-5.845c-14.545-7.626-29.148-15.14-43.717-22.719c-3.04-1.581-6.035-3.25-9.032-4.911
		c-2.931-1.626-4.387-4.078-4.054-7.486c-0.195-3.128,2.155-4.469,4.302-5.766c1.765-1.066,3.645-1.976,5.477-2.948
		c17.552-9.307,35.134-18.559,52.654-27.927c2.295-1.227,3.261-2.772,3.071-5.333C70.254,377.069,69.927,375.566,70.856,374.271z"/>
	<path fill-rule="evenodd" clip-rule="evenodd" fill="#4F4F4F" d="M592.635,420.487c-0.525,3.553-2.613,5.81-5.745,7.43
		c-9.011,4.661-17.978,9.41-26.932,14.182c-11.069,5.898-22.106,11.855-33.159,17.783c-0.485,0.261-0.987,0.492-1.479,0.737
		c-6.366,3.319-12.74,6.629-19.101,9.964c-2.475,1.298-4.916,2.657-7.378,3.981c-0.632,0.34-1.253,0.726-1.924,0.965
		c-2.859,1.017-5.029-0.325-5.143-3.376c-0.154-4.149-0.084-8.308-0.111-12.462c-0.011-1.518-0.063-3.037-0.026-4.554
		c0.03-1.224-0.477-1.668-1.709-1.682c-3.829-0.046-7.657-0.193-11.486-0.301c0.64-2.61-0.899-5.08-0.492-7.676
		c4.879,0.018,9.759,0.032,14.638,0.054c0.719,0.003,1.445-0.027,2.156,0.06c3.09,0.38,4.557,1.896,4.694,5.04
		c0.102,2.314,0.008,4.638,0.006,6.956c-0.003,2.391,0,4.781,0,7.29c1.33,0.197,2.256-0.45,3.2-0.953
		c14.743-7.854,29.48-15.719,44.221-23.575c10.58-5.64,21.168-11.267,31.744-16.913c1.385-0.739,2.726-1.562,3.976-2.281
		c-0.057-0.737-0.409-0.966-0.748-1.142c-27.284-14.183-54.573-28.356-81.822-42.51c-0.788,0.626-0.524,1.309-0.527,1.898
		c-0.034,7.118-0.057,14.237-0.058,21.355c0,1.21-0.063,2.406-0.464,3.547c-0.639,1.823-2.063,2.778-3.838,2.643
		c-1.809-0.138-3.008-1.233-3.348-3.187c-0.164-0.94-0.231-1.908-0.229-2.863c0.024-9.837,0.07-19.675,0.117-29.512
		c0.003-0.558,0.017-1.126,0.121-1.67c0.416-2.148,2.153-3.256,4.256-2.678c0.763,0.209,1.502,0.548,2.206,0.915
		c5.175,2.694,10.374,5.345,15.493,8.141c3.78,2.063,7.807,3.623,11.35,5.912c0.833-0.539,0.324-1.363,0.78-1.852
		c0.867,2.024,2.585,2.993,4.458,3.98c18.641,9.825,37.393,19.437,56.036,29.255C589.224,414.89,591.852,416.973,592.635,420.487z"
		/>
	<path fill-rule="evenodd" clip-rule="evenodd" fill="#323232" d="M293.779,420.464c0.399,5.831-0.448,11.487-2.663,16.892
		c-3.696,9.02-10.563,14.208-19.973,16.19c-6.704,1.411-13.35,1.07-19.91-0.889c-7.037-2.101-11.95-6.559-14.729-13.359
		c-2.497-6.109-3.165-12.505-3.003-19.039c0.109-4.419,0.649-8.76,2.074-12.964c3.693-10.9,11.371-17.047,22.604-18.952
		c6.104-1.035,12.101-0.474,18.026,1.201c6.832,1.93,11.607,6.221,14.456,12.664c2.06,4.658,3.152,9.546,3.118,14.662
		C293.772,418.067,293.779,419.266,293.779,420.464z"/>
	<path fill-rule="evenodd" clip-rule="evenodd" fill="#323232" d="M211.123,423.573c0.698,0.551,1.447,1.108,2.159,1.711
		c2.302,1.948,4.015,4.356,5.192,7.105c2.391,5.579,4.739,11.178,7.009,16.807c1.152,2.856,0.317,4.067-2.743,4.165
		c-2.316,0.073-4.641-0.071-6.956,0.023c-2.056,0.084-3.261-0.778-4.006-2.679c-1.808-4.609-3.703-9.186-5.607-13.757
		c-0.705-1.693-1.406-3.41-2.333-4.984c-2.244-3.808-5.691-5.457-10.072-5.172c-1.82,0.118-2.015,0.313-2.02,2.188
		c-0.021,6.799-0.004,13.597-0.012,20.396c-0.003,2.823-0.266,3.108-2.944,3.708c-2.705,0.605-5.395,0.48-8.098,0.008
		c-1.296-0.227-1.986-0.935-2.043-2.246c-0.031-0.718-0.062-1.438-0.061-2.156c0.026-17.754,0.054-35.508,0.092-53.263
		c0.002-1.117,0.021-2.244,0.167-3.349c0.238-1.781,0.944-2.54,2.691-2.882c1.012-0.198,2.061-0.291,3.093-0.287
		c6.715,0.027,13.434-0.218,20.141,0.355c4.051,0.346,7.851,1.397,11.266,3.673c2.91,1.94,4.869,4.567,5.843,7.934
		c0.928,3.203,1.21,6.47,0.573,9.729c-1.085,5.555-4.178,9.592-9.477,11.817c-0.585,0.246-1.151,0.536-1.719,0.818
		C211.206,423.261,211.198,423.378,211.123,423.573z"/>
	<path fill-rule="evenodd" clip-rule="evenodd" fill="#323232" d="M477.95,445.479c0.327,1.139,0.563,2.313,1.002,3.406
		c0.623,1.554,0.37,2.932-0.51,4.27l-0.182,0.075l-0.192-0.043c-3.275,0.291-6.552,0.281-9.828,0.006
		c-1.898-0.001-2.598-1.356-3.101-2.841c-1.026-3.026-1.98-6.077-2.983-9.11c-0.896-2.711-0.918-2.742-3.679-2.736
		c-6.239,0.013-12.478,0.046-18.716,0.089c-2.227,0.015-2.305,0.085-3.027,2.26c-1.033,3.108-2.105,6.206-3.052,9.342
		c-0.678,2.246-2.109,3.289-4.406,3.248c-2.077-0.036-4.16,0.003-6.232-0.133c-2.149-0.141-2.669-0.823-2.185-2.985
		c0.453-2.022,1.047-4.022,1.726-5.981c5.985-17.285,11.999-34.56,18.016-51.833c1.02-2.928,1.879-3.537,4.903-3.555
		c2.96-0.018,5.922,0.057,8.88-0.023c2.293-0.062,3.794,0.887,4.66,3c1.698,4.143,3.032,8.414,4.515,12.632
		c4.634,13.189,9.231,26.392,13.848,39.587C477.563,444.603,477.768,445.038,477.95,445.479z"/>
	<path fill-rule="evenodd" clip-rule="evenodd" fill="#033E5B" d="M-84.628,420.021c1.25,3.293,3.961,5.117,6.834,6.761
		c5.009,2.865,10.43,4.826,15.722,7.061c17.944,7.576,35.908,15.104,53.866,22.65c8.095,3.401,16.2,6.782,24.287,10.205
		c9.924,4.199,19.848,8.396,29.854,12.397c5.382,2.152,10.918,2.225,16.506,1.781c2.798-0.222,5.086-1.764,6.944-3.895
		c0.46-0.528,0.691-1.284,1.693-1.648c0.578,2.511,0.003,5.031,0.347,7.476c-1.585,6.243-3.386,7.824-9.7,8.822
		c-5.097,0.805-10.033,0.13-14.907-1.345c-3.062-0.927-6.02-2.136-8.966-3.376c-35.858-15.103-71.718-30.198-107.58-45.291
		c-3.244-1.365-6.479-2.749-9.397-4.75c-2.681-1.84-4.988-4.005-5.963-7.255c-0.007-2.538-0.03-5.076-0.011-7.613
		C-85.094,421.321-85.33,420.551-84.628,420.021z"/>
	<path fill-rule="evenodd" clip-rule="evenodd" fill="#323232" d="M123.147,451.846c0.027-1.036,0.077-2.072,0.078-3.109
		c0.007-18.28,0.009-36.561,0.012-54.841c0-3.371,1.174-4.55,4.587-4.56c6.785-0.02,13.57-0.025,20.355-0.036
		c2.336,0.522,4.685,0.987,6.935,1.849c7.205,2.761,10.845,8.077,11.35,15.687c0.291,4.391-0.41,8.597-2.175,12.631
		c-1.604,3.668-4.2,6.391-7.784,8.146c-4.146,2.029-8.506,3.209-13.158,3.195c-1.838-0.006-3.677,0.051-5.515,0.106
		c-1.675,0.051-1.751,0.081-1.762,1.787c-0.033,5.119-0.011,10.237-0.015,15.356c-0.004,4.708-0.28,4.984-4.918,5.328
		c-2.085,0.155-4.151,0.067-6.216-0.23C124.082,453.035,123.349,452.811,123.147,451.846z"/>
	<path fill-rule="evenodd" clip-rule="evenodd" fill="#323232" d="M319.897,421.186c0,9.276,0.001,18.552-0.003,27.829
		c0,0.718,0.024,1.444-0.067,2.153c-0.147,1.149-0.762,1.873-1.993,2.035c-2.872,0.377-5.736,0.478-8.597-0.063
		c-1.733-0.328-2.172-0.783-2.335-2.503c-0.083-0.873-0.065-1.757-0.066-2.636c-0.006-5.357,0.005-10.716-0.006-16.073
		c-0.023-12.234-0.063-24.467-0.076-36.701c-0.001-1.275,0.11-2.552,0.216-3.825c0.105-1.282,0.806-2.011,2.107-2.214
		c2.947-0.46,5.889-0.423,8.841-0.056c1.261,0.157,1.804,0.926,1.935,2.069c0.072,0.632,0.043,1.277,0.043,1.917
		C319.897,402.473,319.897,411.83,319.897,421.186z"/>
	<path fill-rule="evenodd" clip-rule="evenodd" fill="#033E5B" d="M592.635,420.487c-2.184-3.563-5.221-6.034-8.978-7.938
		c-13.445-6.813-26.793-13.817-40.164-20.774c-5.095-2.651-10.106-5.469-15.258-8.002c-1.688-0.831-2.454-1.838-2.36-3.622
		c-0.064-1.574-0.154-3.149,0.121-4.715c3.681,1.161,7.025,3.045,10.382,4.888c8.052,4.422,16.368,8.327,24.509,12.576
		c8.635,4.508,17.259,9.035,25.876,13.577c2.215,1.167,4.163,2.67,5.549,4.814c1.253,1.938,1.825,4.058,1.759,6.358
		C594.036,418.82,593.738,419.856,592.635,420.487z"/>
	<path fill-rule="evenodd" clip-rule="evenodd" fill="#4F4F4F" d="M468.24,453.193c3.276-0.21,6.552-0.152,9.828-0.006
		C474.793,453.801,471.517,453.579,468.24,453.193z"/>
	<path fill-rule="evenodd" clip-rule="evenodd" fill="#033E5B" d="M70.856,374.271c0.003,1.917-0.09,3.841,0.039,5.75
		c0.119,1.77-0.632,2.828-2.129,3.624c-3.308,1.758-6.55,3.642-9.865,5.386c-7.905,4.16-15.859,8.227-23.752,12.412
		c-7.889,4.182-15.719,8.475-23.593,12.684c-1.188,0.635-2.491,1.063-3.571,1.902c-1.481,1.149-2.579,2.579-3.133,4.393
		c-1.97-3.757-1.516-7.283,1.295-10.344c2.307-2.512,5.146-4.281,8.121-5.85c18.218-9.604,36.157-19.72,54.284-29.49
		C69.234,374.369,69.892,373.427,70.856,374.271z"/>
	<path fill-rule="evenodd" clip-rule="evenodd" fill="#FFFFFF" d="M247.52,421.134c-0.284-3.2-0.274-6.387,0.488-9.531
		c0.339-1.402,0.84-2.743,1.441-4.053c2.74-5.975,7.93-9.15,15.587-8.911c1.267,0.04,2.534,0.24,3.788,0.545
		c5.017,1.218,8.383,4.289,9.865,9.171c2.371,7.81,2.607,15.729,0.492,23.648c-0.842,3.152-2.496,5.874-4.938,8.069
		c-2.017,1.814-4.337,2.933-7.1,3.104c-2.476,0.154-4.941,0.23-7.417,0c-3.662-0.341-6.515-2.043-8.573-5.053
		c-2.167-3.167-3.392-6.694-3.61-10.521C247.419,425.454,247.52,423.292,247.52,421.134z"/>
	<path fill-rule="evenodd" clip-rule="evenodd" fill="#FFFFFF" d="M191.729,408.103c0-2.316-0.015-4.634,0.005-6.95
		c0.016-1.907,0.206-2.143,1.983-2.169c2.714-0.041,5.428-0.062,8.131,0.332c4.799,0.698,7.15,3.27,7.58,8.368
		c0.344,4.07-2.313,7.767-6.438,8.977c-2.26,0.663-4.583,0.641-6.896,0.587c-1.338-0.031-2.999,0.65-3.937-0.227
		c-1.048-0.979-0.335-2.72-0.403-4.125c-0.077-1.594-0.018-3.195-0.018-4.793C191.735,408.103,191.732,408.103,191.729,408.103z"/>
	<path fill-rule="evenodd" clip-rule="evenodd" fill="#FFFFFF" d="M440.434,428.13c2.855-8.78,5.63-17.307,8.397-25.816
		c1.258,0.181,1.365,1.083,1.599,1.793c2.42,7.343,4.819,14.692,7.195,22.049c0.604,1.871,0.464,2.036-1.427,2.159
		c-4.863,0.318-9.729,0.207-14.595,0.055C441.298,428.362,440.995,428.25,440.434,428.13z"/>
	<path fill-rule="evenodd" clip-rule="evenodd" fill="#FFFFFF" d="M136.06,409.697c0-2.875-0.021-5.749,0.007-8.623
		c0.019-1.855,0.085-1.906,1.833-2.044c2.565-0.203,5.122-0.012,7.624,0.508c4.466,0.929,7.017,3.983,7.322,8.556
		c0.123,1.844-0.026,3.689-0.426,5.478c-0.907,4.055-5.071,7.865-9.679,7.16c-1.589-0.243-3.186,0.025-4.779,0.045
		c-1.61,0.02-1.949-0.34-1.959-1.979c-0.018-3.033-0.005-6.066-0.005-9.1C136.018,409.697,136.039,409.697,136.06,409.697z"/>
</g>
</svg>
